<svg xmlns="http://www.w3.org/2000/svg" width="19" height="13" viewBox="0 0 19 13"><path fill="#08194F" d="M211.5,32.375 C211.703125,32.375 211.878906,32.3007812 212.027344,32.1523438 L212.027344,32.1523438 L220.722656,23.46875 C220.871094,23.3203125 220.945312,23.1425781 220.945312,22.9355469 C220.945312,22.7285156 220.871094,22.5507812 220.722656,22.4023438 L220.722656,22.4023438 L218.777344,20.46875 C218.628906,20.3203125 218.453125,20.2460938 218.25,20.2460938 C218.046875,20.2460938 217.871094,20.3203125 217.722656,20.46875 L217.722656,20.46875 L211.5,26.6914062 L205.277344,20.46875 C205.128906,20.3203125 204.953125,20.2460938 204.75,20.2460938 C204.546875,20.2460938 204.371094,20.3203125 204.222656,20.46875 L204.222656,20.46875 L202.277344,22.4023438 C202.128906,22.5507812 202.054688,22.7285156 202.054688,22.9355469 C202.054688,23.1425781 202.128906,23.3203125 202.277344,23.46875 L202.277344,23.46875 L210.972656,32.1523438 C211.121094,32.3007812 211.296875,32.375 211.5,32.375 Z" transform="translate(-202 -20)"/></svg>