<svg xmlns="http://www.w3.org/2000/svg" width="512" height="394" viewBox="0 0 512 394">
  <g fill="none">
    <path fill="#F2F1E7" d="M284.83,210.9 C266.358,209.479 247.782,211.029 229.301,209.733 C214.652,208.706 199.53,208.506 184.83,209.066 C163.417,209.882 142.081,212.581 120.683,213.783 C101.171,214.879 81.598,217.545 62.062,217.658 C55.787,217.694 49.51,217.659 43.235,217.659 C40.903,217.659 32.412,216.328 30.442,218.195 C28.586,219.954 29.899,227.52 29.894,229.647 C29.878,237.519 30.431,245.124 31.581,252.904 C33.719,267.38 37.415,282.139 41.93,296.078 C51.85,326.703 77.625,345.798 107.551,355.219 C151.214,368.965 196.754,367.469 242.09,367.35 C281.045,367.247 319.976,361.738 358.945,361.531 C392.741,361.352 426.635,352.217 451.323,327.889 C470.143,309.344 473.497,282.364 478.445,257.614 C480.916,245.261 480.122379,233.385 479.41,220.924 C479.14,216.217 478.622,214.948 473.791,213.776 C463.38,211.249 449.848,213.999 439.312,214.24 C412.165,214.861 384.882,214.927 357.749,213.447 C334.287,212.167 310.178,209.173 284.83,210.9 Z"/>
    <path fill="#D2D2CA" d="M246.813,323.339 C230.174,319.443 213.757,313.915 201.672,302.499 C190.504,291.949 183.733,275.607 178.902,261.211 C177.31,256.467 176.839,251.608 175.654,246.796 C174.996,244.122 173.174,241.039 173.403,238.199 C173.765,233.724 178.076,231.236 181.745,229.575 C190.395,225.658 200.7,224.728 210.085,224.179 C239.137,222.48 268.627,222.003 297.715,223.311 C304.294,223.606 310.739,224.027 317.167,223.212 C322.42,222.546 329.047,221.8 333.068,226.285 C337.666,231.412 333.87,239.668 330.71,244.501 C327.475,249.448 323.139,252.284 326.547,258.273 C328.067,260.942 331.344,262.594 331.734,265.845 C332.213,269.837 328.004,272.298 327.026,275.913 C324.682,284.586 334.248,290.246 341.88,289.494 C355.715,288.131 365.231,278.323 369.481,265.767 C372.797,255.97 370.274,246.429 372.297,236.757 C375.575,221.105 395.24,226.325 406.635,226.62 C424.203,227.074 441.771,227.573 459.333,228.242 C462.554,228.365 488.583,228.66 482.742,220.064 C479.891,215.868 465.694,216.888 461.388,216.709 C451.508,216.299 442.027,216.557 432.14,217.096 C387.615,219.524 341.923,216.825 297.416,214.657 C273.13,213.473 248.95,212.24 224.667,211.276 C196.69,210.164 169.629,211.098 141.773,212.469 C128.647,213.115 115.493,213.221 102.379,214.138 C81.865,215.572 60.831,213.768 40.424,215.713 C34.849,216.244 33.445,217.255 32.862,223.253 C31.785,234.335 32.898,246.078 33.611,257.151 C35.126,280.676 42.211,307.185 58.367,325.132 C92.021,362.517 142.888,367.813 190.568,369.235 C205.661,369.685 220.779,370.758 235.875,369.795 C249.375,368.934 262.601,367.36 276.148,366.84 C283.619,366.553 291.054,365.415 298.541,365.059 C318.233,364.121 337.853,361.359 357.549,360.194 C377.407,359.02 397.411,358.845 416.698,353.313 C421.282,351.999 428.034,350.03 428.719,344.812 C430.026,334.838 411.828,337.792 406.482,337.925 C389.35,338.35 372.968,340.216 355.755,339.442 C327.81,338.185 299.997,334.584 272.64,328.75 C264.368,326.984 255.56,325.387 246.813,323.339 Z"/>
    <path fill="#F2F1E7" d="M257.309,185.31 C245.963,181.683 231.358,182.434 219.459,182.402 C206.456,182.366 193.456,182.061 180.448,181.949 C157.104,181.747 133.87,182.247 110.521,182.86 C90.275,183.391 70.145,184.366 49.947,185.418 C39.246,185.975 27.202,184.313 16.986,188.054 C8.941,191.001 2.278,201.275 10.926,208.326 C14.791,211.478 21.749,211.17 26.249,211.605 C34.628,212.416 42.828,213.601 51.28,214.026 C70.901,215.01 90.338,216.658 109.995,216.698 C136.819,216.752 163.627,214.236 190.332,212.18 C208.216,210.803 226.694,210.716 244.594,211.419 C262.804,212.135 281.152,209.631 299.351,211.374 C341.771,215.436 384.787,207.249 427.166,213.574 C438.614,215.283 450.615,215.258 462.175,215.246 C472.869,215.235 486.209,216.795 496.243,212.489 C503.389,209.422 507.785,205.136 505.976,197.247 C504.164,189.339 497.121,187.294 489.799,185.789 C452.971,178.217 414.521,179.999 377.139,179.999 C356.248,179.999 335.432,180.965 314.599,182.159 C295.734,183.238 276.558,183.357 257.309,185.31 Z"/>
    <path fill="#D2D2CA" d="M104.784,200.456 C110.589,200.001 116.388,199.575 122.179,199.425 C140.126,198.96 158.066,198.24 175.998,197.41 C214.522,195.628 253.044,192.815 291.528,193.09 C331.453,193.376 371.358,194.743 411.262,196.002 C420.836,196.304 430.41,196.6 439.987,196.874 C458.288,197.396 476.676,199.444 494.931,200.772 C498.539,201.035 505.159,200.681 505.539,205.58 C506.814,222.005 432.647,216.008 424.238,215.685 C387.1,214.257 349.849,209.967 312.671,210.435 C303.171,210.555 293.608,211.025 284.05,210.926 C248.877,210.56 213.882,210.226 178.763,212.832 C145.354,215.311 111.325,216.79 77.85,216.696 C57.844,216.64 37.105,218.226 17.319,214.305 C13.665,213.581 6.281,212.398 6.19105102,207.802 C6.028,199.347 27.169,202.286 31.919,202.237 C45.877,202.09 59.931,201.266 73.885,201.781 C84.195,202.16 94.499,201.262 104.784,200.456 Z"/>
    <path fill="#BDBDB5" d="M67.071,347.542 C58.54,353.1 46.2,374.974 54.98,385.096 C65.949,397.742 77.541,375.6 83.793,369.211 C89.497,363.381 104.463,360.486 92.094,352.84 C85.972,349.055 73.236,339.745 67.071,347.542 Z"/>
    <path fill="#F2F1E7" d="M432.095,345.611 C428.866,346.763 408.027,352.89 411.383,361.071 C412.749,364.4 420.732,365.029 423.562,366.965 C427.289,369.515 430.939,373.184 433.316,376.992 C436.491,382.081 437.655,386.966 444.132,388.619 C458.183,392.206 460.146,379.116 456.72,369.291 C454.993,364.342 440.667,339.875 432.095,345.611 Z"/>
    <g fill="#B3E2EE" transform="translate(28 5)">
      <path d="M185.499 130.999C188.384 115.326 191.968 99.029 177.558 87.963 165.87 78.987 151.871 83.463 143.388 94.477 137.243 90.92 134.549 82.156 127.609 78.487 121.168 75.082 111.149 74.563 105.074 79.081 97.483 84.725 96.321 96.296 90.488 103.425 86.508 108.29 84.908 105.841 79.619 101.981 74.104 97.956 68.062 93.149 61.02 92.99 51.983 92.786 41.908 96.74 38.953 105.812 34.198 120.408 37.105 135.718 37.002 150.47 27.098 151.03 17.105 146.68 8.552 153.961 3.548 158.22-2.666 172.395 2.744 177.704 6.421 181.312 13.66 180.582 18.279 180.86 30.274 181.579 42.052 181.093 54.005 179.971 77.359 177.779 101.441 176.436 124.876 176.495 149.102 176.556 173.157 179.016 197.416 178.999 219.665 178.983 241.52 177.786 263.686 176.123 273.816 175.363 283.5 175.498 293.571 175.457 304.103 175.414 296.847 181.576 295.966 188.958 294.426 201.837 308.488 206.831 318.936 208.041 318.928 212.141 316.485 215.516 316.966 219.999 317.439 224.41 319.255 227.903 320.888 231.888 324.639 241.043 319.177 241.951 315.579 250.524 312.303 258.332 314.364 265.197 319.979 270.839 323.875 274.753 328.178 277.5 333.965 277.07 340.849 276.559 342.022 272.719 346.51 269.549 352.921 265.02 360.921 266.16 366.485 259 373.313 250.214 373.237 240.938 367.389 231.991 361.321 222.705 359.794 222.244 368.965 213.012 377.484 204.435 380.957 197.549 382.024 185.025 382.288 181.934 380.893 177.874 383.494 175.465 386.597 172.592 398.38 175.298 402.001 175.624 410.275 176.369 418.464 176.726 426.754 176.985 431.251 177.125 437.564 178.744 442.011 177.498 444.749 176.731 444.48 177.771 445.4 175.456 446.511 172.656 443.015 162.277 441.768 159.707 436.912 149.7 425.624 149.051 415.875 148.955 404.955 148.848 406.169 137.353 398.231 132.711 390.51 128.196 379.276 130.389 372.565 135.636 370.361 137.359 367.971 141.579 365.024 141.154 362.533 140.795 359.078 135.573 357.288 133.812 348.29 124.961 339.084 126.15 329.488 134.488 325.09 138.31 324.982 140.854 318.614 138.519 313.657 136.701 311.421 133.593 305.708 134.207 296.247 135.224 291.763 141.99 288.076 149.931 285.858 154.709 284.975 158.405 279.862 156.971 272.741 154.972 269.309 148.491 260.565 149.04 256.384 149.303 250.268 155.252 246.391 154.043 242.369 152.788 243.56 147.646 238.31 146.475 230.986 144.842 222.956 148.158 215.591 147.355 214.527 142.507 214.233 137.888 211.229 133.812 204.821 125.125 195.183 129.361 185.499 130.999zM227.999 23.499C214.269 22.488 202.188 33.664 201.994 47.072 201.912 52.696 203.668 56.523 208.61 59.499 212.955 62.115 217.077 60.355 221.397 61.999 225.213 63.452 225.461 67.168 228.952 70.187 232.891 73.593 239.595 75.361 244.67 74.324 258.507 71.498 264.731 51.89 260.753 39.974 257.47 30.14 242.245 18.014 227.999 23.499zM302.499.499C290.921.738 287.253 16.398 292.364 24.534 295.878 30.125 307.001 34.762 313.399 32.466 320.967 29.75 324.444 20.661 322.008 13.4 319.964 7.302 310.613-1.603 302.499.499z"/>
    </g>
    <g fill="#73CEE5" transform="translate(30 8)">
      <path d="M96.291 87.309C98.61 91.687 94.019 101.946 94.316 107.384 94.726 114.858 97.132 122.422 101.977 128.221 106.735 133.915 107.188 135.825 107.076 143.209 106.886 155.788 117.588 159.001 128.738 158.502 136.571 158.152 146.199 155.712 153.97 157.538 156.592 158.154 158.694 159.954 161.313 160.752 166.25 162.257 171.633 161.319 176.672 161.108 187.819 160.642 198.19 160.393 208.639 164.501 214.962 166.986 222.431 167.715 228.455 170.638 199.059 178.114 167.829 175.03 137.701 174.998 109.93 174.969 82.26 171.998 54.525 173.999 39.369 175.093 22.388 176.871 7.291 174.748-5.566 172.94 2.784 157.32 9.209 151.352 12.712 148.099 18.357 146.403 23.16 146.461 27.099 146.509 30.996 148.69 34.921 147.846 35.504 137.383 31.415 127.882 32.981 117.209 34.786 104.902 38.422 95.059 50.979 90.792 60.209 87.656 68.568 90.468 75.036 97.636 77.967 100.884 80.878 107.928 85.999 105.032 89.354 103.135 91.069 95.781 92.759 92.504 93.793 90.499 94.446 88.589 96.291 87.309zM297.499 172.499C293.071 182.261 290.88 193.491 300.801 200.708 305.932 204.441 312.563 204.393 318.42 206.086 318.158 210.867 313.765 213.946 314.854 219.35 315.996 225.013 321.933 228.404 323.523 233.997 325.407 240.626 319.558 241.217 315.95 246.025 312.942 250.033 311.496 256.786 312.465 261.875 313.793 268.859 320.891 274.679 328.013 272.773 341.37 269.2 335.188 250.682 334.002 240.988 333.048 233.194 333.505 230.65 337.076 223.678 339.295 219.348 340.562 214.126 338.944 209.335 337.408 204.793 333.152 200.854 330.465 196.976 326.771 191.644 328.158 190.617 327.71 184.801 327.34 179.985 324.26 179.896 321.926 175.468 319.711 171.265 321.98 163.607 319.294 160.151 311.235 149.777 299.976 170.465 297.499 172.499zM218.999 21.999C213.513 27.642 208.427 43.622 219.173 46.261 223.983 47.442 231.934 42.812 236.044 45.467 239.249 47.536 237.86 51.395 238.914 54.396 240.649 59.335 244.31 59.625 248.942 59.501 251.176 70.07 238.69 72.073 231.635 69.622 228.781 68.629 224.715 67.516 222.273 65.758 219.252 63.583 219.736 59.076 217.309 57.162 211.568 52.632 200.311 65.192 198.6 52.781 196.853 40.106 205.22 29.514 218.999 21.999zM297.499.499C295.509 5.499 298.455 11.519 302.841 14.326 305.63 16.111 312.849 16.39 314.781 19.025 318.567 24.186 308.768 30.463 304.387 30.007 300.328 29.584 293.13 24.894 290.949 21.486 286.558 14.623 290.321 7.747 297.499.499z"/>
    </g>
    <path fill="#E0E1DD" d="M372.999,60.999 C366.116,64.734 356.736,87.006 359.364,95.397 C360.865,100.192 370.703,103.723 375.187,101.98 C381.489,99.529 380.112,89.046 385.541,85.246 C390.718,81.622 397.863,85.189 401.498,89.364 C410.014,99.144 397.621,127.082 409.449,132.136 C412.182,133.304 420.113,134.84 422.922,133.386 C426.92,131.316 427.151,122.246 427.459,117.717 C428.236,106.296 428.272,93.434 426.229,82.268 C422.229,60.416 392.984,53.384 372.999,60.999 Z"/>
    <path fill="#D2D2CC" d="M388.999,72.999 C379.537,73.748 364.414,86.033 367.962,96.883 C369.798,102.499 375.5,100.95 378.524,97.293 C382.233,92.805 382.462,84.094 388.24,81.543 C393.001,79.441 398.364,82.062 401.146,85.99 C408.463,96.319 405.599,110.535 405.001,122.174 C404.786,126.354 405.036,130.252 409.999,131.024 C419.85,132.557 419.397,114.594 418.799,108.753 C417.493,96.003 408.941,72.432 388.999,72.999 Z"/>
    <path fill="#FFC94E" d="M253.999,123.499 C253.724,132.738 251.338,142.193 252.066,151.435 C258.104,153.306 265.536,150.255 271.922,150.575 C272.47,154.169 269.85,156.955 270.075,160.426 C274.66,161.524 281.989,160.121 284.385,155.571 C286.438,151.674 284.489,144.269 284.498,139.986 C284.51,135.201 284.825,130.305 284.06,125.572 C283.159,120.005 281.887,119.333 276.207,119 C271.337,118.713 259.357,119.029 253.999,123.499 Z"/>
    <g fill="#F27183" transform="translate(299 79)">
      <path d="M17.499,25.999 C2.336,28.496 2.835,39.439 3.474,52.571 C3.836,60.044 -0.225,68.981 1.245,76.231 C2.099,80.442 4.634,81.325 9.536,82.033 C16.979,83.107 15.731,79.734 18.685,74.093 C22.121,67.53 32.631,58.805 40.547,60.943 C42.985,54.649 45.208,40.191 42.479,33.49 C39.403,25.941 26.279,25.527 17.499,25.999 Z"/>
      <path d="M18.499,1.499 C10.194,2.629 7.934,17.715 10.501,24.169 C11.966,27.852 22.73,29.836 26.765,27.017 C32.656,22.902 29.791,-4.694 18.499,1.499 Z"/>
    </g>
    <path fill="#C6465C" d="M301.999,116.999 C302.15,125.181 301.647,133.386 300.972,141.496 C300.667,145.145 299.786,149.804 300.5,153.442 C301.407,158.07 302.786,158.521 307.632,158.996 C315.393,159.756 315.757,157.446 315.618,149.999 C315.448,140.908 313.616,131.849 313.995,122.799 C314.131,119.553 315.672,114.16 314.145,111.075 C310.267,103.23 298.479,110.171 301.999,116.999 Z"/>
    <path fill="#FFD274" d="M264.499,121.499 C264.725,128.294 265.901,134.864 266.813,141.558 C267.429,146.082 268.437,146.22 265.293,148.023 C263.016,149.33 255.231,149.286 252.575,148.878 C251.947,135.817 247.847,119.165 264.499,121.499 Z"/>
    <path fill="#000" d="M509.824,191.905 C504.434,181.267 492.455,180.125 481.613,180.149 C481.526,179.833 481.413,179.513 481.258,179.191 C479.056,174.596 479.838,169.251 478.102,164.495 C476.152,159.159 471.954,155.193 467.32,152.098 C459.131,146.628 450.643,147.369 442.092,150.28 C439.635,144.29 436.423,138.194 431.779,133.8 C431.797,133.311 431.732,132.789 431.567,132.236 C428.995,123.633 432.253,113.069 432.285,104.189 C432.321,94.216 432.821,83.749 428.475,74.487 C420.072,56.572 398.243,49.393 380.128,55.333 C371.112,58.29 364.738,63.809 361.165,72.65 C358.483,79.285 355.115,88.95 357.433,96.124 C359.794,103.432 369.05,105.688 375.88,105.298 C383.643,104.855 384.066,99.284 385.269,93.097 C386.158,88.522 389.213,84.055 394.181,86.677 C398.874,89.154 400.695,94.363 401.564,99.265 C403.513,110.253 400.878,121.71 402.951,132.638 C401.68,133.547 400.502,134.579 399.474,135.773 C398.662,136.714 396.34,141.304 395.122,141.747 C395.572,141.469 393.955,139.936 393.701,139.608 C392.816,138.464 392.109,137.175 391.28,135.991 C389.641,133.649 387.87,131.292 385.459,129.688 C380.165,126.167 372.99,125.928 367.318,128.626 C364.462,129.984 361.934,132.027 359.635,134.18 C357.541,136.14 353.813,138.884 352.572,141.5 C351.633,141.1 350.337,140.683 350.195,140.62 C348.618,139.909 347.107,139.075 345.599,138.238 C345.615,137.886 345.601,137.526 345.515,137.15 C343.254,127.243 350.374,113.413 341.286,105.637 C339.031,103.707 336.218,102.458 333.151,101.708 C333.415,99.719 332.493,97.947 332.241,95.965 C331.918,93.418 331.954,90.834 331.628,88.282 C330.965,83.098 328.86,77.984 323.23,76.771 C312.14,74.384 306.667,83.074 306.511,92.306 C306.269,93.551 306.169,94.821 306.133,95.986 C306.058,98.44 305.872,101.51 306.269,104.226 C300.556,107.045 297.258,111.911 296.5,119.254 C295.862,125.43 296.226,131.664 296.726,137.834 C297.113,142.617 297.23,147.51 297.654,152.332 C296.239,152.018 294.815,151.744 293.372,151.555 C291.388,151.295 289.453,151.219 287.564,151.315 C286.107,137.441 292.185,113.773 272.773,114.946 C266.363,115.333 255.694,114.309 251.164,119.902 C248.883,122.718 248.51,126.319 248.495,129.832 C247.405,136.587 247.829,145.138 248.206,149.936 C247.475,150.121 246.742,150.3 246.01,150.487 C245.978,150.495 245.956,150.5 245.927,150.507 C245.817,148.95 244.887,145.537 244.775,144.741 C244.407,142.111 243.979,139.561 242.844,137.132 C240.528,132.163 235.371,129.049 229.974,128.537 C226.205,128.18 222.72,129.084 219.314,130.345 C222.462,115.732 221.258,100.694 209.041,89.862 C203.288,84.762 196.091,81.612 188.338,83.473 C182.17,84.953 177.046,89.071 172.714,93.664 C169.242,89.721 166.915,84.584 163.309,80.822 C158.099,75.386 151.04,73.583 143.784,75.546 C128.816,79.594 121.385,95.041 115.615,108.447 C112.66,106.155 110.326,103.297 107.431,100.619 C103.73,97.196 99.158,94.756 94.197,93.773 C84.105,91.773 73.77,95.715 67.006,103.342 C55.404,116.425 57.574,134.449 61.121,150.529 C50.112,148.663 39.172,150.091 32.271,160.803 C29.2,165.574 26.297,174.196 28.287,180.161 C18.034,180.311 7.219,181.95 2.175,191.905 C-0.703,197.585 -0.888,204.485 2.608,209.945 C6.191,215.543 13.192,217.924 19.365,219.346 C21.8,219.907 24.266,220.325 26.755,220.652 C28.099,229.302 28.069,238.344 28.444,246.977 C28.909,257.701 29.738,268.396 31.671,278.969 C35.364,299.176 42.635,319.473 57.192,334.441 C60.522,337.865 64.12,340.962 67.933,343.774 C63.713,346.101 60.195,349.557 57.262,353.334 C51.133,361.23 46.182,372.437 49.708,382.461 C54.153,395.094 68.456,397.45 77.467,388.175 C81.703,383.813 83.905,377.994 87.584,373.215 C89.932,370.164 92.967,368.038 96.539,366.654 C100.995,364.927 106.199,362.346 111.003,363.344 C116.723,364.532 122.344,366.12 128.099,367.196 C139.27,369.283 150.564,370.651 161.872,371.738 C174.953,372.996 188.207,373.009 201.337,373.594 C202.906,373.664 204.474,373.728 206.04,373.781 C213.121,375.51 221.281,374.888 227.881,374.482 C240.264,373.72 252.442,372.177 264.871,372.637 C271.912,372.898 278.97,373.226 286.027,373.439 C294.186,374.165 302.405,373.961 310.662,373.593 C311.581,373.552 312.5,373.519 313.419,373.483 C314.88,373.451 316.359,373.4 317.848,373.322 C328.616,372.965 339.429,372.766 350.128,371.737 C367.858,370.032 387.281,367.477 405.559,362.054 C405.967,363.166 406.84,364.109 408.209,364.48 C414.921,366.296 419.99,367.465 424.415,373.213 C428.094,377.993 430.297,383.812 434.533,388.174 C443.543,397.449 457.846,395.093 462.291,382.46 C465.818,372.436 460.867,361.229 454.737,353.333 C451.806,349.556 448.287,346.1 444.067,343.773 C447.88,340.962 451.478,337.865 454.808,334.44 C469.365,319.472 476.636,299.175 480.329,278.968 C482.261,268.395 483.091,257.7 483.556,246.976 C483.931,238.343 483.902,229.301 485.245,220.651 C487.733,220.324 490.2,219.905 492.635,219.345 C498.808,217.924 505.809,215.542 509.392,209.944 C512.887,204.484 512.702,197.585 509.824,191.905 Z M386.286,78.245 C382.407,80.081 379.946,83.617 378.542,87.57 C377.764,89.763 377.995,92.231 377.225,94.44 C376.038,97.845 374.527,97.49 371.242,96.928 C368.331,96.429 365.346,95.698 364.825,92.451 C364.276,89.018 365.767,84.825 366.652,81.571 C367.761,77.49 369.083,73.238 371.697,69.836 C377.242,62.616 388.6,60.344 397.217,61.26 C406.301,62.226 414.815,67.536 419.821,75.164 C425.685,84.096 423.731,96.32 423.437,106.416 C423.23,113.504 421.342,120.934 421.601,128.13 C417.501,127.21 413.269,127.739 409.326,129.241 C410.724,122.135 411.169,114.694 411.039,107.583 C410.889,99.301 409.84,90.223 404.258,83.695 C399.919,78.622 392.779,75.172 386.286,78.245 Z M314.052,89.313 C314.576,86.324 315.82,84.878 318.858,84.325 C320.37,84.05 321.798,83.808 322.91,84.965 C325.777,87.946 323.553,95.981 324.964,100.771 C320.967,100.74 316.979,101.225 313.531,101.915 C314.058,97.767 313.324,93.457 314.052,89.313 Z M304.442,127.94 C304.554,120.345 303.887,113.101 312.4,110.693 C318.206,109.05 332.018,106.975 336.395,112.48 C339.114,115.898 337.333,122.744 336.915,126.668 C336.639,129.255 336.374,131.908 336.585,134.489 C331.01,133.539 325.526,135.463 321.319,139.935 C316.862,144.672 315.612,151.034 313.213,156.843 C309.935,155.913 306.692,154.82 303.425,153.846 C306.234,145.914 304.326,135.898 304.442,127.94 Z M256.897,124.97 C258.403,123.082 261.866,123.465 264.059,123.341 C267.467,123.148 270.875,122.632 274.288,122.576 C276.251,122.544 277.178,122.376 278.179,124.006 C279.829,126.692 279.527,131.436 279.533,134.45 C279.545,140.378 278.619,146.833 279.668,152.801 C279.269,152.932 278.868,153.059 278.472,153.207 C277.868,149.284 275.754,145.981 270.912,144.994 C265.858,143.963 260.568,145.753 255.581,147.554 C255.458,146.57 255.316,145.527 255.169,144.447 C255.317,142.309 255.389,140.17 255.473,138.1 C255.606,134.771 254.684,127.744 256.897,124.97 Z M40.106,164.097 C47.318,156.219 57.231,158.629 66.191,161.408 C69.823,162.534 72.74,158.959 72.016,155.583 C69.029,141.644 62.494,123.374 71.409,110.313 C76.698,102.565 86.145,98.558 95.248,101.557 C104.17,104.497 107.254,114.253 115.412,118.185 C117.306,119.098 120.137,118.862 121.155,116.68 C126.378,105.483 132.439,88.466 145.621,84.619 C158.231,80.939 161.766,98.096 169.539,104.419 C171.593,106.089 174.711,106.605 176.714,104.419 C180.393,100.406 184.603,95.618 189.957,93.908 C195.675,92.082 200.599,95.935 204.237,99.998 C214.124,111.042 209.387,124.813 206.528,137.589 C205.49,142.225 210.048,145.356 214.137,143.439 C218.969,141.174 225.788,136.375 231.276,138.557 C235.781,140.347 235.19,146.156 235.772,150.211 C236.721,156.843 240.396,160.949 247.313,160.114 C252.979,159.43 258.261,156.889 263.744,155.435 C265.009,155.099 268.528,154.004 269.395,154.804 C268.625,154.095 268.382,159.32 268.105,160.447 C267.173,164.237 271.677,168.713 275.338,166.008 C281.41,161.522 287.463,159.55 294.946,161.2 C301.586,162.663 307.937,165.249 314.541,166.876 C316.53,167.366 318.804,166.561 319.832,164.723 C323.248,158.616 324.024,147.983 330.671,144.402 C336.55,141.233 344.456,148.559 350.039,150.543 C356.179,152.725 359.133,147.812 362.985,143.834 C367.929,138.729 375.631,131.957 382.07,139.143 C386.002,143.531 387.986,150.544 394.835,151.163 C401.75,151.788 403.41,145.142 407.645,141.375 C421.004,129.492 430.569,147.024 434.484,157.923 C435.303,160.206 437.939,162.447 440.565,161.376 C448.934,157.962 456.268,155.69 463.941,161.903 C469.897,166.726 469.458,173.599 471.155,180.222 C456.26,180.027 441.297,178.049 426.429,177.352 C424.955,177.283 423.482,177.226 422.008,177.164 C417.871,176.381 413.623,176.477 409.485,175.474 C405.679,174.552 402.13,177.932 403.155,181.804 C406.509,194.46 400.236,215.583 385.554,217.98 C381.788,218.595 380.832,223.924 383.35,226.33 C388.126,230.892 393.641,235.17 394.803,242.077 C395.846,248.275 393.893,255.012 390.562,260.223 C388.933,262.771 386.749,265.333 384.151,266.927 C380.805,268.98 376.7,268.629 373.229,270.409 C367.621,273.286 362.241,280.353 355.132,278.153 C348.464,276.09 344.839,269.146 345.888,262.456 C346.862,256.247 353.255,253.812 356.104,248.624 C358.673,243.946 356.237,239.08 354.404,234.63 C351.716,228.099 351.834,221.769 353.26,214.838 C353.94,211.538 351.799,208.336 348.267,208.283 C340.569,208.17 331.001,207.797 328.471,198.882 C326.663,192.512 333.106,183.08 331.319,178.991 C328.56,172.68 315.913,177.63 311.544,178.026 C311.275,178.05 311.007,178.077 310.738,178.102 C294.061,178.54 277.384,179.099 260.694,179.243 C244.902,179.379 229.105,179.15 213.319,178.674 C210.406,178.587 207.493,178.497 204.581,178.415 C203.204,178.285 201.828,178.151 200.452,178.026 C181.589,176.315 162.809,175.86 143.88,175.963 C124.437,176.067 104.991,176.442 85.568,177.351 C68.967,178.128 52.247,180.512 35.637,180.217 C35.369,180.212 35.1,180.207 34.829,180.202 C32.771,175.479 37.345,167.112 40.106,164.097 Z M25.085,210.209 C20.097,209.294 11.249,207.7 10.985,201.226 C10.464,188.482 31.178,191.118 38.851,191.091 C54.712,191.036 70.73,188.602 86.59,187.779 C104.312,186.86 122.053,186.38 139.796,186.14 C159.387,185.875 178.871,185.849 198.431,187.135 C210.448,187.925 222.437,188.627 234.425,188.562 C243.515,188.811 252.606,188.965 261.699,188.978 C277.834,188.999 293.941,188.237 310.067,187.841 C313.597,187.755 317.124,187.662 320.651,187.571 C319.661,191.569 319.467,195.858 319.734,198.634 C320.819,209.916 303.839,205.795 296.238,205.811 C286.611,205.365 276.874,205.068 267.402,205.955 C260.023,205.985 252.644,205.967 245.274,205.785 C243.532,205.742 241.79,205.68 240.047,205.611 C238.75,205.539 237.449,205.482 236.146,205.445 C227.724,205.056 219.308,204.533 210.873,204.514 C204.997,204.501 199.195,204.753 193.381,205.647 C191.283,205.969 189.185,206.334 187.143,206.914 C173.704,207.373 160.266,207.903 146.829,208.43 C129.095,209.126 111.377,210.131 93.646,210.904 C77.826,211.594 62.036,211.23 46.211,211.367 C39.179,211.427 32.027,211.482 25.085,210.209 Z M79.528,366.995 C75.906,371.763 67.709,391.597 60.034,381.342 C55.533,375.327 59.658,365.624 63.016,360.123 C65.198,356.55 68.018,353.102 71.334,350.513 C72.348,349.721 73.612,349.079 74.895,348.44 C80.362,351.787 86.165,354.653 92.202,357.102 C87.218,358.935 82.829,362.651 79.528,366.995 Z M448.981,360.123 C452.338,365.624 456.464,375.328 451.963,381.342 C444.287,391.597 436.091,371.763 432.469,366.995 C429.168,362.651 424.78,358.934 419.794,357.101 C425.832,354.652 431.635,351.786 437.102,348.439 C438.385,349.078 439.649,349.72 440.663,350.512 C443.979,353.102 446.8,356.55 448.981,360.123 Z M473.737,243.537 C472.648,255.419 471.704,267.122 469.264,278.837 C465.281,297.969 458.07,316.582 443.179,329.819 C430.649,340.959 414.631,347.317 398.631,351.604 C379.76,356.661 359.894,359.915 340.389,360.854 C315.547,362.05 290.72,361.573 265.844,361.239 C255.496,361.1 245.301,363.196 235.028,362.966 C224.422,362.728 213.798,363.135 203.209,362.326 C192.664,361.521 182.161,361.362 171.608,360.854 C152.104,359.915 132.237,356.661 113.366,351.604 C97.366,347.316 81.348,340.958 68.818,329.819 C53.927,316.582 46.717,297.969 42.733,278.837 C40.294,267.122 39.349,255.419 38.26,243.537 C37.555,235.844 36.616,228.47 34.326,221.362 C44.532,221.969 54.95,221.386 64.984,221.52 C84.096,221.775 103.199,220.636 122.294,219.981 C144.148,219.232 165.998,218.393 187.854,217.689 C198.458,217.348 209.063,217.05 219.669,216.834 C255.163,216.108 290.794,216.273 326.271,217.539 C331.76,217.735 336.617,217.189 342.107,218.018 C341.368,223.094 341.289,228.458 342.618,233.188 C343.308,235.646 344.5,237.974 345.411,240.353 C345.863,241.533 346.509,242.859 346.678,244.118 C346.695,244.237 346.69,244.458 346.69,244.642 C346.416,244.912 345.815,245.813 345.718,245.919 C341.59,250.406 337.705,254.426 336.659,260.648 C335.644,266.686 336.647,273.007 340.065,278.166 C343.513,283.369 349.327,287.312 355.546,288.137 C362.097,289.006 368.631,285.591 373.875,281.968 C375.169,281.075 376.247,279.935 377.639,279.217 C379.577,278.218 381.754,278.279 383.847,277.758 C387.086,276.952 389.913,275.332 392.495,273.253 C397.506,269.219 400.978,263.636 403.139,257.62 C405.437,251.218 406.061,243.819 404.1,237.246 C402.605,232.233 399.609,228.341 396.14,224.767 C398.109,223.659 399.909,222.273 401.569,220.706 C407.755,221.985 414.302,222.173 420.581,221.167 C429.39,221.459 438.2,221.639 447.013,221.521 C457.047,221.387 467.465,221.97 477.671,221.363 C475.381,228.47 474.441,235.844 473.737,243.537 Z M486.913,210.209 C479.971,211.482 472.819,211.427 465.786,211.366 C454.948,211.272 444.097,211.533 433.261,211.287 C428.177,211.171 415.976,213.588 412.267,209.831 C409.846,207.375 415.588,187.322 414.197,187.264 C417.934,187.42 421.672,187.585 425.408,187.779 C441.267,188.602 457.286,191.036 473.147,191.091 C480.82,191.118 501.534,188.482 501.013,201.226 C500.749,207.7 491.901,209.294 486.913,210.209 Z"/>
    <path fill="#000" d="M248.376 71.117C253.296 79.97 259.227 86.882 270.837 85.301 283.102 83.632 291.449 73.792 294.057 62.09 296.582 50.758 294.54 37.71 286.879 28.685 279.235 19.68 268.039 19.275 258.665 25.186 252.001 22.823 245.136 23.413 239.536 28.557 236.686 31.175 234.523 34.346 232.589 37.679 229.572 41.236 227.277 45.488 225.995 49.906 224.288 55.786 224.38 62.884 228.899 67.534 233.957 72.738 241.642 72.62 248.376 71.117zM233.664 50.513C236.102 41.568 244.247 32.13 254.088 33.227 255 33.465 255.935 33.803 256.902 34.283 258.285 34.969 260.163 35.262 261.52 34.283 268.26 29.429 275.421 28.678 280.632 35.946 285.36 42.541 286.505 51.727 284.693 59.508 282.885 67.268 277.922 74.521 269.564 75.897 261.035 77.301 258.019 69.929 254.575 63.576 253.661 61.889 251.323 60.91 249.478 61.502 245.385 62.814 238.207 65.217 234.67 61.357 232.12 58.574 232.764 53.814 233.664 50.513zM331.619 40.499C342.292 44.015 350.72 37.037 353.451 26.888 356.669 14.933 350.743 2.608 337.966.432 330.717-.803 321.942 2.736 317.903 8.801 315.208 11.5 313.675 15.172 314.247 20.178 315.292 29.346 323.007 37.662 331.619 40.499zM322.204 21.098C323.154 17.429 322.638 13.467 325.87 10.806 328.316 8.792 331.812 8.066 334.901 8.414 342.849 9.31 347.073 15.914 345.352 23.557 344.045 29.363 340.625 34.283 334.172 32.476 329.039 31.039 324.256 26.738 321.781 21.955 321.972 21.701 322.122 21.417 322.204 21.098zM98.001 162.298C96.418 156.735 99.011 149.338 105.253 148.123 111.024 147 115.998 152.839 119.685 156.516 121.581 158.406 125.46 157.71 126.012 154.846 127.906 145.013 125.659 129.688 135.483 123.421 147.871 115.519 149.306 132.254 149.519 140.63 149.603 143.906 153.839 145.989 156.234 143.411 158.898 140.544 166.455 131.807 168.821 139.341 170.091 143.383 168.616 148.229 168.857 152.4 169.015 155.139 171.372 157.044 174.101 156.396 178.232 155.415 181.114 155.69 184.47 158.299 187.23 160.445 189.349 162.763 192.668 164.049 196.667 165.598 198.393 160.277 196.374 157.681 191.503 151.416 184.657 147.796 177.183 147.804 177.423 141.758 177.906 135.302 173.005 131.027 167.37 126.112 161.487 128.351 156.568 132.211 154.81 121.498 149.823 110.585 136.803 114.484 122.979 118.624 119.991 133.031 119.007 146.085 113.174 141.661 106.647 138.73 99.284 143.128 91.924 147.525 88.998 157.389 95.175 163.944 96.341 165.179 98.456 163.897 98.001 162.298z"/>
  </g>
</svg>
