<svg xmlns="http://www.w3.org/2000/svg" width="522" height="522" viewBox="0 0 522 522">
  <g fill="none" transform="translate(5 189)">
    <g transform="translate(7 7)">
      <path fill="#FEF0AE" d="M436.745,88.065 L399.7,14.203 C395.596,6.02 387.225,0.854 378.071,0.854 L206.137,0.854 C198.494,0.854 191.3,4.465 186.734,10.594 L129.011,88.066 L95.72,131 L462.38,131 L436.745,88.065 Z"/>
      <path fill="#FEE45A" d="M306.006,10.594 C310.572,4.465 317.766,0.854 325.409,0.854 L206.137,0.854 C198.494,0.854 191.3,4.465 186.734,10.594 L129.011,88.066 L95.72,131 L214.993,131 L248.284,88.066 L306.006,10.594 Z"/>
      <path fill="#B8DDFF" d="M403.18,88.07 L376.26,34.39 C375.17,32.22 372.96,30.85 370.54,30.85 L358.76,30.85 L340.523,45.776 L340.523,110.807 L358.76,121.281 L421.11,121.281 L403.18,88.07 Z"/>
      <path fill="#D5EAFF" d="M358.76,88.07 L358.76,121.28 L140.18,121.28 L166.42,88.07 L207.13,33.43 C208.34,31.81 210.24,30.85 212.26,30.85 L358.76,30.85 L358.76,88.07 Z"/>
      <path fill="#FEDF30" d="M388.39,88.07 L267.72,88.07 L242.069,113.78 L242.069,192.826 L267.72,204.16 L388.39,204.16 L413.693,177.263 L413.693,124.04 C413.693,122.249 413.105,120.508 412.02,119.084 L388.39,88.07 Z"/>
      <path fill="#FEE97D" d="M483.951,118.118 L488.796,112.255 C487.089,98.622 475.456,88.07 461.36,88.07 L388.39,88.07 L388.39,204.16 L489.02,204.16 L489.02,149.75 L483.951,147.173 L483.951,118.118 Z M151.65,88.07 L63.51,88.07 C31.81,88.07 6.11,113.77 6.11,145.47 L6.11,186.38 L6.11,204.16 L133.05,204.16 L174.48,193.797 L174.48,112.25 L151.65,88.07 Z"/>
      <path fill="#B8DDFF" d="M212.26,30.85 C210.24,30.85 208.34,31.81 207.13,33.43 L166.42,88.07 L140.18,121.28 L222.529,121.28 L248.283,88.066 L290.914,30.85 L212.26,30.85 Z"/>
      <path fill="#FED402" d="M338.005,204.157 L338.005,204.16 L388.39,204.16 L413.693,177.263 L413.693,128.469 C371.959,128.468 338.005,162.422 338.005,204.157 Z"/>
      <g fill="#FEE45A" transform="translate(28 88)">
        <path d="M461.021,108.823 C457.32,70.517 424.954,40.469 385.694,40.469 C376.822,40.469 368.308,42.017 360.391,44.834 L360.391,116.161 L461.021,116.161 L461.021,108.823 Z M146.481,105.797 L146.481,88.191 C135.333,60.263 108.028,40.468 76.169,40.468 C34.435,40.468 0.481,74.422 0.481,116.156 L0.481,116.159 L105.051,116.159 L146.481,105.797 Z"/>
        <path d="M239.72,0.07 L239.72,116.16 L105.05,116.16 L105.05,71.97 L105.05,33.86 C105.05,32.39 105.44,30.96 106.18,29.7 L123.65,0.07 L239.72,0.07 Z"/>
      </g>
      <path fill="#FEDF30" d="M133.05,134.208 L133.05,159.97 L133.05,204.16 L179.858,204.16 C179.858,204.159 179.858,204.158 179.858,204.157 C179.858,172.646 160.497,145.582 133.05,134.208 Z"/>
      <path fill="#D7D0D6" d="M497.2,193.31 L497.2,211.09 C497.2,214.91 494.1,218.01 490.27,218.01 L6.11,218.01 C3.01,218.01 0.5,215.5 0.5,212.4 L0.5,192 C0.5,188.9 3.01,186.38 6.11,186.38 L490.27,186.38 C494.1,186.38 497.2,189.48 497.2,193.31 L497.2,193.31 Z"/>
      <g transform="translate(6 90)">
        <path fill="#B8B2B8" d="M22.48,114.157 C22.48,118.89 22.938,123.515 23.773,128.01 L172.565,128.01 C173.4,123.515 173.858,118.89 173.858,114.157 C173.858,108.034 173.108,102.085 171.729,96.38 L24.609,96.38 C23.23,102.085 22.48,108.034 22.48,114.157 Z"/>
        <circle cx="98.169" cy="114.157" r="50.689" fill="#736572"/>
        <path fill="#615260" d="M98.169,114.157 C98.169,95.398 108.381,79.023 123.527,70.258 C116.07,65.942 107.405,63.469 98.169,63.469 C70.174,63.469 47.481,86.163 47.481,114.158 C47.481,142.153 70.175,164.847 98.169,164.847 C107.405,164.847 116.075,162.371 123.532,158.055 C108.386,149.288 98.169,132.915 98.169,114.157 L98.169,114.157 Z"/>
        <path fill="#F9F7F8" d="M98.169,134.845 C86.762,134.845 77.481,125.564 77.481,114.157 C77.481,102.75 86.762,93.469 98.169,93.469 C109.577,93.469 118.858,102.75 118.858,114.157 C118.858,125.564 109.577,134.845 98.169,134.845 L98.169,134.845 Z"/>
        <path fill="#B8B2B8" d="M332.005,114.157 C332.005,118.89 332.463,123.515 333.298,128.01 L482.089,128.01 C482.924,123.515 483.382,118.89 483.382,114.157 C483.382,108.034 482.632,102.085 481.253,96.38 L334.133,96.38 C332.754,102.085 332.005,108.034 332.005,114.157 Z"/>
        <circle cx="407.693" cy="114.157" r="50.689" fill="#736572"/>
        <path fill="#D7D0D6" d="M98.169,114.157 C98.169,106.954 99.678,100.106 102.388,93.904 C101.025,93.62 99.615,93.469 98.169,93.469 C86.762,93.469 77.481,102.75 77.481,114.157 C77.481,125.564 86.762,134.845 98.169,134.845 C99.615,134.845 101.036,134.694 102.399,134.41 C99.689,128.208 98.169,121.36 98.169,114.157 Z"/>
        <path fill="#615260" d="M407.693,114.157 C407.693,95.398 417.906,79.024 433.052,70.258 C425.594,65.942 416.929,63.468 407.693,63.468 C379.698,63.468 357.005,86.162 357.005,114.157 C357.005,142.152 379.699,164.846 407.693,164.846 C416.929,164.846 425.598,162.37 433.056,158.054 C417.909,149.288 407.693,132.915 407.693,114.157 L407.693,114.157 Z"/>
        <path fill="#F9F7F8" d="M407.693,134.845 C396.286,134.845 387.005,125.564 387.005,114.157 C387.005,102.75 396.286,93.469 407.693,93.469 C419.101,93.469 428.382,102.75 428.382,114.157 C428.382,125.564 419.101,134.845 407.693,134.845 Z"/>
        <path fill="#D7D0D6" d="M407.693,114.157 C407.693,106.955 409.203,100.108 411.915,93.905 C410.551,93.621 409.139,93.469 407.693,93.469 C396.286,93.469 387.005,102.75 387.005,114.157 C387.005,125.564 396.286,134.845 407.693,134.845 C409.14,134.845 410.552,134.693 411.917,134.409 C409.204,128.206 407.693,121.358 407.693,114.157 Z"/>
        <path fill="#FEDF30" d="M42.63,0.03 L42.63,32.59 C42.63,42.86 34.3,51.19 24.02,51.19 L0.27,51.19 C2.08,26.54 19.47,6.22 42.63,0.03 Z"/>
        <path fill="#E94444" d="M483.02,25.72 L483.02,59.75 L464.99,59.75 C460.24,59.75 456.38,55.89 456.38,51.14 L456.38,30.86 C456.38,26.11 460.24,22.25 464.99,22.25 L482.8,22.25 C482.95,23.39 483.02,24.55 483.02,25.72 L483.02,25.72 Z"/>
      </g>
    </g>
    <g fill="#000">
      <path d="M111.169,182.968 C95.626,182.968 82.981,195.614 82.981,211.156 C82.981,226.698 95.627,239.344 111.169,239.344 C126.713,239.344 139.358,226.698 139.358,211.156 C139.358,195.614 126.713,182.968 111.169,182.968 L111.169,182.968 Z M111.169,224.345 C103.897,224.345 97.981,218.428 97.981,211.157 C97.981,203.886 103.897,197.969 111.169,197.969 C118.441,197.969 124.358,203.886 124.358,211.157 C124.358,218.428 118.441,224.345 111.169,224.345 L111.169,224.345 Z M420.692,182.968 C405.149,182.968 392.504,195.614 392.504,211.156 C392.504,226.698 405.15,239.344 420.692,239.344 C436.236,239.344 448.881,226.698 448.881,211.156 C448.881,195.614 436.236,182.968 420.692,182.968 Z M420.692,224.345 C413.42,224.345 407.504,218.428 407.504,211.157 C407.504,203.886 413.42,197.969 420.692,197.969 C427.964,197.969 433.881,203.886 433.881,211.157 C433.881,218.428 427.965,224.345 420.692,224.345 Z"/>
      <path d="M503.518,187.323 L503.518,122.722 C503.518,103.337 487.747,87.566 468.361,87.566 L448.375,87.566 L436.489,63.867 C434.634,60.165 430.128,58.669 426.423,60.525 C422.721,62.382 421.224,66.889 423.081,70.591 L431.594,87.565 L414.813,87.565 L389.965,38.024 C387.593,33.293 382.83,30.353 377.537,30.353 L219.264,30.353 C214.893,30.353 210.726,32.446 208.117,35.95 L169.659,87.565 L150.953,87.565 L199.75,22.074 C202.885,17.866 207.891,15.353 213.139,15.353 L385.07,15.353 C391.426,15.353 397.145,18.882 399.995,24.564 L408.75,42.019 C410.607,45.721 415.114,47.218 418.816,45.36 C422.519,43.503 424.015,38.996 422.158,35.293 L413.403,17.839 C407.994,7.053 397.137,0.353 385.07,0.353 L213.137,0.353 C203.174,0.353 193.672,5.123 187.719,13.112 L132.246,87.565 L70.515,87.565 C34.728,87.565 5.614,116.68 5.614,152.466 L5.614,188.253 C2.225,190.627 4.70734562e-14,194.553 4.70734562e-14,198.995 L4.70734562e-14,219.4 C4.70734562e-14,226.63 5.883,232.513 13.113,232.513 L57.028,232.513 C60.285,240.792 65.428,248.271 72.232,254.398 C83.008,264.101 96.706,269.347 111.098,269.347 C112.132,269.347 113.172,269.32 114.213,269.265 C137.649,268.037 157.144,253.023 165.276,232.513 L366.582,232.513 C375.117,254.059 396.146,269.347 420.693,269.347 C445.24,269.347 466.269,254.059 474.804,232.513 L497.274,232.513 C505.229,232.513 511.701,226.041 511.701,218.087 L511.701,200.309 C511.701,194.592 508.351,189.656 503.518,187.323 L503.518,187.323 Z M488.518,149.248 L477.994,149.248 C477.382,149.248 476.883,148.749 476.883,148.137 L476.883,127.863 C476.883,127.25 477.382,126.751 477.994,126.751 L488.518,126.751 L488.518,149.248 Z M485.247,111.75 L477.993,111.75 C469.109,111.75 461.882,118.978 461.882,127.862 L461.882,148.136 C461.882,157.02 469.11,164.247 477.993,164.247 L488.517,164.247 L488.517,185.881 L473.099,185.881 C463.675,166.42 443.726,152.967 420.693,152.967 C414.485,152.967 408.505,153.954 402.891,155.763 L402.891,102.564 L468.36,102.564 C475.429,102.565 481.648,106.23 485.247,111.75 L485.247,111.75 Z M398.031,87.565 L373.262,87.565 L373.262,45.354 L376.86,45.354 L398.031,87.565 Z M282.219,87.565 L282.219,45.354 L358.263,45.354 L358.263,87.565 L282.219,87.565 Z M219.815,45.354 L267.218,45.354 L267.218,87.565 L188.363,87.565 L219.815,45.354 Z M163.597,185.882 C159.817,178.024 154.323,171.135 147.548,165.713 L147.548,128.855 C147.548,128.732 147.581,128.612 147.643,128.507 L162.936,102.566 L267.219,102.566 L267.219,185.882 L163.597,185.882 Z M48.126,107.891 L48.126,129.587 C48.126,135.711 43.145,140.692 37.022,140.692 L22.029,140.692 C25.516,126.338 35.222,114.398 48.126,107.891 Z M15,217.513 L15,200.882 L53.888,200.882 C53.117,205.212 52.823,209.674 53.06,214.201 C53.118,215.313 53.216,216.416 53.335,217.514 L15,217.514 L15,217.513 Z M113.429,254.286 C101.928,254.892 90.844,250.971 82.271,243.251 C73.698,235.532 68.644,224.936 68.041,213.416 C67.129,196.01 76.68,179.856 92.372,172.262 C96.101,170.457 97.66,165.972 95.855,162.244 C94.051,158.516 89.568,156.955 85.836,158.76 C73.709,164.629 64.313,174.298 58.73,185.899 C58.619,185.894 58.51,185.882 58.398,185.882 L20.613,185.882 L20.613,155.692 L37.021,155.692 C51.416,155.692 63.125,143.982 63.125,129.587 L63.125,103.116 C65.537,102.756 68.003,102.566 70.514,102.566 L145.522,102.566 L134.72,120.891 C133.298,123.303 132.547,126.057 132.547,128.856 L132.547,157.031 C129.274,155.744 125.852,154.73 122.297,154.04 C118.224,153.252 114.294,155.907 113.505,159.973 C112.715,164.039 115.371,167.976 119.438,168.765 C138.923,172.548 153.259,189.052 154.298,208.899 C155.545,232.679 137.21,253.041 113.429,254.286 L113.429,254.286 Z M169.004,217.514 C169.34,214.438 169.445,211.299 169.278,208.112 C169.15,205.66 168.867,203.248 168.446,200.882 L310.874,200.882 C315.017,200.882 318.374,197.524 318.374,193.382 C318.374,189.24 315.017,185.882 310.874,185.882 L282.218,185.882 L282.218,102.566 L387.891,102.566 L387.891,163.127 C379.534,168.853 372.736,176.696 368.287,185.883 L342.837,185.883 C338.694,185.883 335.337,189.241 335.337,193.383 C335.337,197.525 338.694,200.883 342.837,200.883 L363.431,200.883 C362.833,204.221 362.504,207.651 362.504,211.158 C362.504,213.307 362.63,215.426 362.858,217.514 L169.004,217.514 L169.004,217.514 Z M420.693,254.345 C396.879,254.345 377.505,234.971 377.505,211.157 C377.505,187.343 396.879,167.969 420.693,167.969 C444.507,167.969 463.881,187.343 463.881,211.157 C463.881,234.971 444.508,254.345 420.693,254.345 Z M496.701,217.513 L478.528,217.513 C478.756,215.424 478.882,213.305 478.882,211.157 C478.882,207.65 478.553,204.22 477.955,200.882 L496.701,200.882 L496.701,217.513 Z"/>
      <path d="M241.569,120.779 L236.182,120.779 C232.039,120.779 228.682,124.137 228.682,128.279 C228.682,132.421 232.039,135.779 236.182,135.779 L241.569,135.779 C245.712,135.779 249.069,132.421 249.069,128.279 C249.069,124.137 245.712,120.779 241.569,120.779 Z"/>
    </g>
  </g>
</svg>
