<svg xmlns="http://www.w3.org/2000/svg" width="15" height="15" viewBox="0 0 15 15"><path fill="#333333" d="M1368.55506,837.289062 C1368.86931,837.289062 1369.13643,837.179074 1369.3564,836.959096 L1369.3564,836.959096 L1370.9591,835.356403 C1371.17907,835.136425 1371.28906,834.869309 1371.28906,834.555056 C1371.28906,834.240802 1371.17907,833.973687 1370.9591,833.753709 L1370.9591,833.753709 L1367.49445,830.289062 L1370.9591,826.824416 C1371.17907,826.604438 1371.28906,826.337323 1371.28906,826.023069 C1371.28906,825.708816 1371.17907,825.4417 1370.9591,825.221722 L1370.9591,825.221722 L1369.3564,823.619029 C1369.13643,823.399051 1368.86931,823.289062 1368.55506,823.289062 C1368.2408,823.289062 1367.97369,823.399051 1367.75371,823.619029 L1367.75371,823.619029 L1364.28906,827.083675 L1360.82442,823.619029 C1360.60444,823.399051 1360.33732,823.289062 1360.02307,823.289062 C1359.70882,823.289062 1359.4417,823.399051 1359.22172,823.619029 L1359.22172,823.619029 L1357.61903,825.221722 C1357.39905,825.4417 1357.28906,825.708816 1357.28906,826.023069 C1357.28906,826.337323 1357.39905,826.604438 1357.61903,826.824416 L1357.61903,826.824416 L1361.08368,830.289062 L1357.61903,833.753709 C1357.39905,833.973687 1357.28906,834.240802 1357.28906,834.555056 C1357.28906,834.869309 1357.39905,835.136425 1357.61903,835.356403 L1357.61903,835.356403 L1359.22172,836.959096 C1359.4417,837.179074 1359.70882,837.289062 1360.02307,837.289062 C1360.33732,837.289062 1360.60444,837.179074 1360.82442,836.959096 L1360.82442,836.959096 L1364.28906,833.49445 L1367.75371,836.959096 C1367.97369,837.179074 1368.2408,837.289062 1368.55506,837.289062 Z" transform="translate(-1357 -823)"/></svg>
