<?xml version="1.0" encoding="iso-8859-1"?>
<!-- Generator: Adobe Illustrator 19.0.0, SVG Export Plug-In . SVG Version: 6.00 Build 0)  -->
<svg version="1.1" id="Capa_1" xmlns="http://www.w3.org/2000/svg" xmlns:xlink="http://www.w3.org/1999/xlink" x="0px" y="0px"
	 viewBox="0 0 512 512" style="enable-background:new 0 0 512 512;" xml:space="preserve">
<path style="fill:#128CA0;" d="M377.761,68.181c7.579,1.529,12.479,8.907,10.961,16.486l-18.417,91.314l-30.639-6.172l18.417-91.314
	c1.529-7.579,8.907-12.49,16.486-10.961L377.761,68.181z"/>
<path style="fill:#0D828E;" d="M355.91,169.809l18.417-91.314c0.815-4.041,3.302-7.311,6.587-9.263
	c-0.988-0.46-2.037-0.826-3.152-1.051l-3.192-0.647c-7.579-1.529-14.957,3.382-16.486,10.961l-18.417,91.314l30.639,6.172
	l0.634-3.145L355.91,169.809z"/>
<path id="SVGCleanerId_0" style="fill:#E0AE65;" d="M482.302,328.997C492.738,338.306,504,351.834,504,366.891
	c0,15.057-11.262,28.585-21.698,37.894c-9.889,8.818-24.846,8.818-34.735,0c-10.436-9.309-21.698-22.837-21.698-37.894
	s11.262-28.585,21.698-37.894C457.456,320.18,472.412,320.18,482.302,328.997z"/>
<g>
	<path id="SVGCleanerId_0_1_" style="fill:#E0AE65;" d="M482.302,328.997C492.738,338.306,504,351.834,504,366.891
		c0,15.057-11.262,28.585-21.698,37.894c-9.889,8.818-24.846,8.818-34.735,0c-10.436-9.309-21.698-22.837-21.698-37.894
		s11.262-28.585,21.698-37.894C457.456,320.18,472.412,320.18,482.302,328.997z"/>
</g>
<path style="fill:#CE9142;" d="M469.33,363.446c0-12.133,7.313-23.271,15.614-32.011c-0.882-0.84-1.765-1.655-2.642-2.438
	c-9.889-8.817-24.846-8.817-34.735,0c-10.436,9.309-21.698,22.837-21.698,37.894c0,15.058,11.262,28.585,21.698,37.895
	c9.889,8.817,24.846,8.817,34.735,0c2.027-1.808,4.084-3.777,6.085-5.883C478.778,389.744,469.33,377.238,469.33,363.446z"/>
<path style="fill:#85B52A;" d="M91.599,332.426v22.46h-73.67v-13.498c0-7.087,3.169-13.802,8.64-18.306l13.95-11.486
	c8.79-7.24,21.58-6.83,29.88,0.96L91.599,332.426z"/>
<path style="fill:#75A807;" d="M58.378,323.082l12.378-10.192l-0.357-0.334c-8.3-7.79-21.09-8.2-29.88-0.96l-13.95,11.486
	c-5.471,4.504-8.64,11.22-8.64,18.306v13.498h31.808v-13.498C49.738,334.301,52.907,327.586,58.378,323.082z"/>
<path style="fill:#F5DCB4;" d="M88.248,338.987v74.784H23.097C15.312,413.771,9,407.459,9,399.673v-49.2
	c0-6.344,5.143-11.487,11.487-11.487h67.761V338.987z"/>
<path style="fill:#E5BF89;" d="M46.95,399.673v-49.2c0-6.344,5.143-11.487,11.487-11.487h-37.95C14.143,338.987,9,344.13,9,350.474
	v49.2c0,7.786,6.312,14.097,14.097,14.097h37.95C53.261,413.771,46.95,407.459,46.95,399.673z"/>
<path style="fill:#AEEFFF;" d="M177.542,189.755v201.012c0,11.474-9.298,20.772-20.772,20.772H90.045
	c-11.474,0-20.772-9.298-20.772-20.772V189.755c0-6.965,5.648-12.613,12.613-12.613h83.043
	C171.894,177.142,177.542,182.79,177.542,189.755z"/>
<path style="fill:#7CE5E8;" d="M115.866,390.766V189.754c0-6.965,5.648-12.612,12.613-12.612H81.886
	c-6.965,0-12.613,5.647-12.613,12.612v201.012c0,11.475,9.298,20.772,20.772,20.772h46.592
	C125.163,411.538,115.866,402.241,115.866,390.766z"/>
<path style="fill:#FF7400;" d="M177.542,384.366l-1.383-1.075c-26.428-20.548-43.5-51.292-46.837-84.349l-0.634-6.287l-25.63-9.153
	c-4.201-1.501-8.579-2.262-13.012-2.262c-3.36,0-6.721,0.441-9.989,1.313l-5.339,1.423l-0.79,0.124l-4.655,2.063v104.603
	c0,11.475,9.298,20.772,20.772,20.772h66.725c11.474,0,20.772-9.297,20.772-20.772L177.542,384.366L177.542,384.366z"/>
<path style="fill:#FF5500;" d="M115.866,390.766v-102.69l-12.807-4.574c-4.201-1.501-8.579-2.262-13.012-2.262
	c-3.36,0-6.721,0.441-9.989,1.313l-5.339,1.423l-0.79,0.124l-4.655,2.063v104.603c0,11.475,9.298,20.772,20.772,20.772h46.592
	C125.163,411.538,115.866,402.241,115.866,390.766z"/>
<path style="fill:#AEEFFF;" d="M126.198,250.809h279.043v35.729c0,69.035-55.965,125-125,125h-29.043c-69.035,0-125-55.965-125-125
	V250.809z"/>
<path style="fill:#7CE5E8;" d="M233.673,311.638L233.673,311.638c0-19.732,15.996-35.729,35.728-35.729h135.84v-25.1H126.198v35.729
	c0,69.036,55.964,125,125,125h29.043c1.083,0,2.164-0.014,3.241-0.041C253.231,388.683,233.673,352.446,233.673,311.638z"/>
<path style="fill:#34D6D2;" d="M251.198,411.538h29.043c61.121,0,111.988-43.871,122.85-101.839h-39.904l-26.338-7.747
	c-3.259-0.958-6.641-1.444-10.052-1.444c-4.744,0-9.361,0.921-13.722,2.739l-1.332,0.556c-3.785,1.576-7.757,2.376-11.807,2.376
	c-5.047,0-10.088-1.286-14.579-3.719c-5.191-2.813-11.066-4.299-16.989-4.299c-4.001,0-7.94,0.665-11.708,1.977l-25.965,9.037
	H128.248C138.9,367.403,189.893,411.538,251.198,411.538z"/>
<path style="fill:#20C6AA;" d="M283.477,411.493c-30.248-22.814-49.804-59.049-49.804-99.855l0,0c0-1.202,0.062-2.39,0.177-3.562
	l-3.155,1.098H128.248c0.641,3.505,1.432,6.958,2.359,10.355c0.048,0.174,0.093,0.349,0.141,0.522
	c0.193,0.696,0.395,1.388,0.599,2.079c0.067,0.225,0.133,0.45,0.201,0.674c0.203,0.67,0.412,1.337,0.625,2.002
	c0.075,0.234,0.151,0.469,0.228,0.702c0.218,0.665,0.44,1.327,0.669,1.987c0.075,0.217,0.152,0.433,0.229,0.649
	c0.24,0.679,0.483,1.357,0.734,2.031c0.059,0.159,0.121,0.316,0.18,0.475c1.221,3.236,2.57,6.409,4.045,9.511
	c0.015,0.031,0.029,0.063,0.044,0.095c0.321,0.673,0.651,1.341,0.983,2.007c0.09,0.179,0.177,0.36,0.268,0.539
	c0.31,0.615,0.628,1.226,0.948,1.834c0.118,0.225,0.236,0.45,0.355,0.674c0.314,0.588,0.633,1.172,0.956,1.755
	c0.13,0.234,0.261,0.468,0.392,0.702c0.325,0.578,0.654,1.153,0.988,1.725c0.131,0.224,0.264,0.447,0.396,0.67
	c0.345,0.582,0.692,1.163,1.046,1.739c0.111,0.181,0.225,0.36,0.338,0.541c0.384,0.618,0.77,1.234,1.164,1.845
	c0.008,0.012,0.016,0.024,0.025,0.037c1.372,2.122,2.81,4.198,4.304,6.229c0.093,0.126,0.184,0.255,0.278,0.381
	c0.397,0.535,0.802,1.064,1.207,1.593c0.167,0.218,0.333,0.438,0.502,0.655c0.384,0.493,0.773,0.982,1.163,1.47
	c0.197,0.246,0.393,0.491,0.592,0.735c0.383,0.471,0.771,0.939,1.161,1.404c0.21,0.25,0.421,0.5,0.633,0.749
	c0.391,0.459,0.785,0.917,1.183,1.371c0.214,0.244,0.43,0.485,0.646,0.728c0.406,0.456,0.812,0.91,1.225,1.359
	c0.203,0.222,0.409,0.44,0.614,0.66c0.433,0.465,0.866,0.931,1.306,1.39c0.131,0.137,0.265,0.27,0.396,0.406
	c1.546,1.598,3.136,3.153,4.765,4.667c0.233,0.217,0.464,0.437,0.7,0.651c0.42,0.384,0.845,0.762,1.27,1.14
	c0.28,0.25,0.56,0.5,0.842,0.748c0.412,0.361,0.829,0.716,1.245,1.072c0.302,0.257,0.604,0.514,0.909,0.769
	c0.411,0.343,0.824,0.684,1.24,1.021c0.318,0.259,0.637,0.516,0.957,0.771c0.413,0.33,0.828,0.658,1.245,0.982
	c0.329,0.255,0.66,0.508,0.992,0.76c0.417,0.317,0.834,0.635,1.255,0.948c0.338,0.251,0.68,0.497,1.021,0.745
	c0.422,0.307,0.842,0.615,1.268,0.916c0.349,0.247,0.703,0.488,1.055,0.731c0.77,0.533,1.546,1.058,2.328,1.573
	c0.394,0.26,0.786,0.523,1.184,0.779c0.404,0.26,0.814,0.513,1.221,0.768c0.399,0.25,0.797,0.502,1.198,0.748
	c0.407,0.25,0.819,0.493,1.229,0.737c0.408,0.243,0.816,0.487,1.228,0.726c0.411,0.239,0.825,0.473,1.239,0.708
	c0.418,0.236,0.836,0.471,1.257,0.703c0.413,0.228,0.828,0.452,1.244,0.675c0.43,0.23,0.862,0.458,1.295,0.683
	c0.412,0.215,0.825,0.429,1.24,0.639c0.448,0.228,0.899,0.45,1.351,0.671c0.405,0.199,0.809,0.399,1.216,0.594
	c0.484,0.231,0.972,0.456,1.459,0.681c0.38,0.176,0.758,0.354,1.14,0.526c0.608,0.274,1.222,0.539,1.835,0.803
	c0.355,0.153,0.709,0.307,1.065,0.457c0.775,0.325,1.554,0.645,2.337,0.955c0.352,0.139,0.707,0.271,1.06,0.408
	c0.547,0.211,1.095,0.422,1.646,0.625c0.39,0.144,0.784,0.283,1.176,0.423c0.521,0.186,1.042,0.372,1.566,0.551
	c0.405,0.139,0.811,0.273,1.218,0.408c0.518,0.172,1.037,0.341,1.558,0.506c0.41,0.13,0.82,0.257,1.232,0.383
	c0.528,0.161,1.057,0.318,1.587,0.472c0.407,0.118,0.814,0.236,1.222,0.351c0.549,0.153,1.1,0.301,1.652,0.447
	c0.393,0.104,0.785,0.21,1.179,0.31c0.602,0.153,1.207,0.298,1.812,0.442c0.347,0.083,0.693,0.169,1.042,0.249
	c0.843,0.193,1.689,0.376,2.538,0.553c0.113,0.023,0.225,0.05,0.338,0.073c0.958,0.196,1.92,0.379,2.886,0.553
	c0.327,0.059,0.656,0.111,0.984,0.167c0.648,0.111,1.297,0.221,1.948,0.323c0.387,0.06,0.775,0.114,1.163,0.171
	c0.598,0.087,1.196,0.173,1.796,0.251c0.41,0.054,0.821,0.103,1.232,0.153c0.586,0.071,1.172,0.139,1.76,0.201
	c0.416,0.044,0.834,0.086,1.251,0.127c0.591,0.057,1.184,0.109,1.778,0.158c0.413,0.034,0.826,0.068,1.241,0.098
	c0.615,0.044,1.232,0.082,1.849,0.117c0.393,0.022,0.785,0.047,1.179,0.066c0.68,0.032,1.362,0.056,2.044,0.078
	c0.334,0.01,0.666,0.025,1.001,0.034c1.016,0.024,2.034,0.039,3.056,0.039c0.001,0,0.001,0,0.002,0h29.043
	c1.021,0,2.039-0.014,3.054-0.039C283.356,411.498,283.416,411.495,283.477,411.493z"/>
<path style="fill:#2CD4E5;" d="M420.868,234.792v3.014c0,7.188-5.815,13.003-13.003,13.003H125.808
	c-7.188,0-13.003-5.815-13.003-13.003v-3.014c0-7.188,5.815-13.003,13.003-13.003h282.057
	C415.053,221.789,420.868,227.604,420.868,234.792z"/>
<path style="fill:#85B52A;" d="M376.22,359.449v15.391h-73.67v-16.99c0-4.875,2.181-9.495,5.944-12.594l16.646-13.706
	c8.79-7.24,21.58-6.83,29.88,0.96l16.042,15.036C374.353,350.63,376.22,354.939,376.22,359.449z"/>
<path style="fill:#75A807;" d="M336.359,359.702c0-4.875,2.18-9.496,5.944-12.595l15.061-12.4l-2.344-2.197
	c-8.3-7.79-21.09-8.2-29.88-0.96l-16.646,13.706c-3.764,3.099-5.944,7.719-5.944,12.594v16.99h33.809V359.702z"/>
<path style="fill:#F5DCB4;" d="M295.857,382.317v-21.879c0-3.217,2.608-5.824,5.824-5.824h77.646c3.217,0,5.824,2.608,5.824,5.824
	v21.879c0,16.139-13.083,29.221-29.221,29.221h-30.851C308.939,411.538,295.857,398.455,295.857,382.317z"/>
<path style="fill:#E5BF89;" d="M365.795,400.855c-16.139,0-29.221-13.083-29.221-29.221v-17.02h-34.893
	c-3.217,0-5.824,2.608-5.824,5.824v21.879c0,16.139,13.083,29.221,29.221,29.221h30.851c9.101,0,17.229-4.161,22.588-10.684
	L365.795,400.855L365.795,400.855z"/>
<path style="fill:#7C4513;" d="M504.5,415.784v17.78c0,3.65-2.96,6.61-6.61,6.61H14.11c-3.65,0-6.61-2.96-6.61-6.61v-17.78
	c0-3.65,2.96-6.61,6.61-6.61h483.78C501.54,409.174,504.5,412.134,504.5,415.784z"/>
<path d="M497.89,406.25h-6.202c12.985-12.902,19.812-26.421,19.812-39.358c0-14.327-8.37-29.365-24.207-43.491
	c-12.746-11.366-31.971-11.366-44.719,0.001c-9.758,8.704-16.682,17.755-20.559,26.772h-25.526
	c10.665-19.433,16.253-41.202,16.253-63.636v-28.814c8.959-2.194,15.626-10.292,15.626-19.917v-3.014
	c0-11.306-9.198-20.504-20.503-20.504h-11.442l1.354-6.717c3.1-15.376-5.07-30.455-18.801-36.646l17.1-84.787
	c2.327-11.613-5.224-22.968-16.824-25.309l-3.2-0.648c-5.629-1.138-11.365-0.009-16.148,3.172
	c-4.779,3.179-8.037,8.029-9.173,13.658l-17.096,84.766c-6.162,0.147-12.17,2.024-17.429,5.519
	c-7.349,4.883-12.357,12.335-14.101,20.984l-5.244,26.007H185.042v-24.534c0-11.09-9.022-20.112-20.113-20.112H81.886
	c-11.09,0-20.113,9.022-20.113,20.112v111.002c-12.804-3.043-26.796,1.353-35.421,12.215l-14.484,18.515H9
	c-4.142,0-7.5,3.357-7.5,7.5v60.687c0,3.841,1.008,7.451,2.773,10.58C1.639,412.818,0,416.401,0,420.36v17.779
	c0,7.78,6.33,14.11,14.11,14.11h483.78c7.78,0,14.11-6.33,14.11-14.11V420.36C512,412.58,505.67,406.25,497.89,406.25z
	 M452.558,334.595c3.528-3.146,7.952-4.719,12.376-4.719s8.848,1.573,12.375,4.718c8.754,7.81,19.19,19.751,19.19,32.297
	c0,12.545-10.436,24.488-19.189,32.297c-7.056,6.29-17.698,6.291-24.751,0.001c-8.755-7.81-19.191-19.753-19.191-32.298
	c0-0.574,0.022-1.146,0.065-1.718h36.547c4.142,0,7.5-3.357,7.5-7.5s-3.358-7.5-7.5-7.5h-31.084
	C442.688,344.155,447.865,338.781,452.558,334.595z M438.18,406.25h-54.422c5.539-6.432,8.892-14.798,8.892-23.933v-17.144h25.757
	c-0.027,0.574-0.04,1.146-0.04,1.718C418.368,379.828,425.194,393.346,438.18,406.25z M16.5,399.673v-53.187h45.273v44.279
	c0,5.712,1.702,11.033,4.626,15.483H22.566C19.176,405.978,16.5,403.132,16.5,399.673z M119.372,299.946
	c3.737,37.013,22.77,69.578,50.663,91.257c-0.232,7.117-6.093,12.835-13.265,12.835H90.045c-7.318,0-13.272-5.954-13.272-13.272
	v-96.937c0.001-0.052,0,0,0-0.052l0,0c0.004-0.001,0.008-0.002,0.013-0.003l5.847-1.559c5.653-1.507,11.552-1.265,17.062,0.703
	L119.372,299.946z M372.245,258.309l-1.554,7.707c-1.785,8.85-6.908,16.475-14.428,21.471c-5.391,3.582-11.552,5.504-17.868,5.648
	l7.022-34.826L372.245,258.309L372.245,258.309z M397.742,286.538c0,6.124-0.47,12.192-1.395,18.161h-32.44l-5.003-1.472
	c1.94-0.948,3.831-2.031,5.66-3.246c10.856-7.213,18.254-18.223,20.831-31l2.152-10.672h10.195L397.742,286.538L397.742,286.538z
	 M323.691,290.17c-5.768-2.58-10.701-6.739-14.283-12.131c-3.933-5.92-5.866-12.767-5.639-19.73h26.346L323.691,290.17z
	 M296.914,286.34c3.421,5.149,7.697,9.52,12.609,12.967c-7.111,2.861-15.033,2.413-21.784-1.244
	c-10.027-5.433-21.955-6.398-32.722-2.647l-25.166,8.759h-28.845c-4.142,0-7.5,3.357-7.5,7.5s3.358,7.5,7.5,7.5h30.113
	c0.839,0,1.673-0.141,2.465-0.417l26.364-9.176c6.794-2.365,14.319-1.757,20.646,1.671c10.85,5.877,23.604,6.525,34.994,1.78
	l1.335-0.557c5.407-2.254,11.48-2.585,17.102-0.931l26.685,7.849c0.687,0.202,1.4,0.305,2.116,0.305H393
	c-2.774,9.456-6.745,18.545-11.852,27.078l-20.994-19.739c-11.019-10.33-28.122-10.879-39.783-1.278
	c-0.039,0.032-0.078,0.064-0.116,0.098l-24.792,21.267c-3.959,0.205-7.107,3.479-7.107,7.49v27.703c0,7.725,2.398,14.9,6.488,20.821
	c-4.832,0.599-9.713,0.9-14.604,0.9h-29.043c-53.47,0-98.712-35.901-112.889-84.864h22.675c4.142,0,7.5-3.357,7.5-7.5
	s-3.358-7.5-7.5-7.5H135.02c-0.87-5.754-1.321-11.644-1.321-17.637v-28.229H288.76C288.53,268.206,291.321,277.922,296.914,286.34z
	 M303.356,382.317v-20.203h74.294v20.203c0,11.978-9.744,21.722-21.722,21.722h-30.851
	C313.101,404.039,303.356,394.294,303.356,382.317z M318.514,347.114l11.445-9.817c5.858-4.781,14.417-4.49,19.928,0.677
	l9.722,9.141h-41.095V347.114z M183.377,400.331c3.578,2.14,7.264,4.117,11.049,5.919h-14.01
	C181.622,404.414,182.62,402.429,183.377,400.331z M407.864,229.289c3.035,0,5.503,2.469,5.503,5.504v3.014
	c0,3.034-2.469,5.503-5.503,5.503l0,0c-0.12-0.003,0.119-0.003,0,0H125.808c-3.035,0-5.503-2.469-5.503-5.503v-3.014
	c0-3.035,2.469-5.504,5.503-5.504H407.864 M383.073,204.607l-1.952,9.682h-26.828l6.564-32.557l8.103,1.634
	c4.722,0.951,8.79,3.686,11.456,7.697C383.081,195.076,384.025,199.885,383.073,204.607z M365.435,79.978
	c0.344-1.704,1.33-3.173,2.776-4.135c1.444-0.96,3.174-1.301,4.867-0.959l3.2,0.648c3.511,0.709,5.794,4.146,5.092,7.651
	l-16.935,83.964l-15.934-3.21L365.435,79.978z M316.809,191.247c0.952-4.722,3.686-8.79,7.698-11.456s8.824-3.608,13.543-2.656
	l0.13,0.026c0.002,0,0.004,0,0.006,0.001l0.462,0.093l7.505,1.513l-7.162,35.521h-26.828L316.809,191.247z M81.886,184.642h83.043
	c2.819,0,5.113,2.293,5.113,5.112v24.534h-44.234c-11.306,0-20.503,9.198-20.503,20.504v3.014c0,8.808,5.582,16.335,13.394,19.232
	v26.739l-13.959-4.985c-8.387-2.994-17.368-3.364-25.971-1.07l-1.995,0.532v-88.499C76.773,186.935,79.067,184.642,81.886,184.642z
	 M38.133,322.257c5.693-7.169,15.536-9.375,23.641-5.729v14.958H30.913L38.133,322.257z M15,421.25h482v16H15V421.25"/>
<g>
</g>
<g>
</g>
<g>
</g>
<g>
</g>
<g>
</g>
<g>
</g>
<g>
</g>
<g>
</g>
<g>
</g>
<g>
</g>
<g>
</g>
<g>
</g>
<g>
</g>
<g>
</g>
<g>
</g>
</svg>
