<svg xmlns="http://www.w3.org/2000/svg" width="26" height="26" viewBox="0 0 26 26"><g fill="none"><polygon fill="#F8F8F8" points="0 2 19 2 19 25 0 25"/><path fill="#BEDAFF" d="M25,19 C25,22.3137091 22.3137091,25 19,25 C15.6862909,25 13,22.3137091 13,19 L25,19 Z"/><path fill="#D5EA7A" d="M25.3137133,13 C26.2287622,13.915049 26.2287622,15.3986643 25.3137133,16.3137133 C24.3986643,17.2287622 22.915049,17.2287622 22,16.3137133 L25.3137133,13 Z"/><circle cx="18" cy="17" r="2" fill="#FFD88E"/><polygon fill="#FFD88E" points="18.496 10.569 21.318 10.569 21.318 13.391 18.496 13.391" transform="rotate(-45 19.907 11.98)"/><path fill="#FF7A7A" d="M14,16 C13.711316,16 13.46359,15.727801 13.4106019,15.352356 L13.0172873,12.5653927 C12.9024469,11.7517277 13.3743532,11 14,11 C14.6256468,11 15.0975531,11.7517277 14.9827127,12.5653927 L14.5893981,15.352356 C14.53641,15.727801 14.288684,16 14,16 L14,16 Z"/><g fill="#000"><path d="M25.4794922,18.7446289 L19.8001172,18.7446289 C20.0320859,18.3914453 20.1675195,17.9695547 20.1675195,17.516332 C20.1675195,16.7960508 19.8260156,16.1544297 19.2968242,15.7435586 L19.2968242,14.0796094 L19.5512383,14.3340234 C19.6504141,14.4331484 19.7803633,14.4827617 19.9103125,14.4827617 C20.0402617,14.4827617 20.1702109,14.4331484 20.2693867,14.3340234 L22.2654961,12.3379648 C22.3607109,12.2426992 22.4142344,12.1135625 22.4142344,11.9788906 C22.4142344,11.8442188 22.3607109,11.715082 22.2654961,11.6198164 L20.2693867,9.62370703 C20.1741211,9.52849219 20.0449844,9.47496875 19.9103125,9.47496875 C19.7756406,9.47496875 19.6464531,9.52849219 19.5512383,9.62370703 L19.2968242,9.87812109 L19.2968242,2.7421875 C19.2968242,2.46177344 19.0694258,2.234375 18.7890117,2.234375 L17.1677695,2.234375 L17.1677695,1.83188281 C17.1678203,0.821792969 16.3460781,1.44328993e-15 15.3359375,1.44328993e-15 C14.3257969,1.44328993e-15 13.5040547,0.821792969 13.5040547,1.83188281 L13.5040547,2.234375 L11.4803203,2.234375 L11.4803203,1.83188281 C11.4803203,0.821792969 10.6585781,1.44328993e-15 9.6484375,1.44328993e-15 C8.63829687,1.44328993e-15 7.81655469,0.821792969 7.81655469,1.83188281 L7.81655469,2.234375 L5.79282031,2.234375 L5.79282031,1.83188281 C5.79282031,0.821792969 4.97107812,1.44328993e-15 3.9609375,1.44328993e-15 C2.95079687,1.44328993e-15 2.12905469,0.821792969 2.12905469,1.83188281 L2.12905469,2.234375 L0.5078125,2.234375 C0.227398437,2.234375 -5.41233725e-16,2.46177344 -5.41233725e-16,2.7421875 L-5.41233725e-16,25.4921875 C-5.41233725e-16,25.7726016 0.227398437,26.0000508 0.5078125,26.0000508 L7.36343359,26.0000508 C7.64384766,26.0000508 7.87124609,25.7726016 7.87124609,25.4921875 C7.87124609,25.2117734 7.64384766,24.984375 7.36343359,24.984375 L1.015625,24.984375 L1.015625,3.25 L4.77719531,3.25 L4.77719531,3.65249219 C4.77719531,4.10256641 4.41101172,4.46875 3.9609375,4.46875 C3.68052344,4.46875 3.453125,4.69614844 3.453125,4.9765625 C3.453125,5.25697656 3.68052344,5.484375 3.9609375,5.484375 C4.97107812,5.484375 5.79282031,4.66258203 5.79282031,3.65249219 L5.79282031,3.25 L10.4646953,3.25 L10.4646953,3.65249219 C10.4646953,4.10256641 10.0985117,4.46875 9.6484375,4.46875 C9.36802344,4.46875 9.140625,4.69614844 9.140625,4.9765625 C9.140625,5.25697656 9.36802344,5.484375 9.6484375,5.484375 C10.6585781,5.484375 11.4803203,4.66258203 11.4803203,3.65249219 L11.4803203,3.25 L16.1521953,3.25 L16.1521953,3.65249219 C16.1521953,4.10256641 15.7860117,4.46875 15.3359375,4.46875 C15.0555234,4.46875 14.828125,4.69614844 14.828125,4.9765625 C14.828125,5.25697656 15.0555234,5.484375 15.3359375,5.484375 C16.3460781,5.484375 17.1678203,4.66258203 17.1678203,3.65249219 L17.1678203,3.25 L18.28125,3.25 L18.28125,10.8937969 L17.5552305,11.6198164 C17.3569297,11.8181172 17.3569297,12.1396641 17.5552305,12.3380156 L18.28125,13.0640352 L18.28125,15.3013047 C18.1647578,15.2825664 18.0453711,15.2724609 17.9236484,15.2724609 C16.6863633,15.2724609 15.6797266,16.2790469 15.6797266,17.5163828 C15.6797266,17.9695547 15.8151602,18.3914961 16.0471289,18.7446797 L13,18.7446797 C12.7195859,18.7446797 12.4921875,18.9720781 12.4921875,19.2524922 C12.4921875,21.6689688 13.7692852,23.7924375 15.6837383,24.9844258 L11.9335938,24.9844258 C11.6531797,24.9844258 11.4257812,25.2118242 11.4257812,25.4922383 C11.4257812,25.7726523 11.6531797,26.0000508 11.9335938,26.0000508 L19.2397461,26.0000508 C22.9603867,26.0000508 25.9873047,22.9731328 25.9873047,19.2524922 C25.9873047,18.9720273 25.7599063,18.7446289 25.4794922,18.7446289 Z M3.14467969,2.234375 L3.14467969,1.83188281 C3.14467969,1.38180859 3.51086328,1.015625 3.9609375,1.015625 C4.41101172,1.015625 4.77719531,1.38180859 4.77719531,1.83188281 L4.77719531,2.234375 L3.14467969,2.234375 Z M8.83217969,2.234375 L8.83217969,1.83188281 C8.83217969,1.38180859 9.19836328,1.015625 9.6484375,1.015625 C10.0985117,1.015625 10.4646953,1.38180859 10.4646953,1.83188281 L10.4646953,2.234375 L8.83217969,2.234375 Z M14.5196797,2.234375 L14.5196797,1.83188281 C14.5196797,1.38180859 14.8858633,1.015625 15.3359375,1.015625 C15.7860117,1.015625 16.1521953,1.38180859 16.1521953,1.83188281 L16.1521953,2.234375 L14.5196797,2.234375 Z M19.9103633,10.7010313 L21.1882734,11.9789414 L19.9103633,13.2568516 L18.6324531,11.9789414 L19.9103633,10.7010313 Z M16.6954023,17.5163828 C16.6954023,16.8391133 17.2464297,16.2880859 17.9236992,16.2880859 C18.6009687,16.2880859 19.1519961,16.8391133 19.1519961,17.5163828 C19.1519961,18.1936523 18.6009687,18.7446797 17.9236992,18.7446797 C17.2464297,18.7446797 16.6954023,18.1936016 16.6954023,17.5163828 Z M19.2397461,24.984375 C16.2502539,24.984375 13.7879727,22.6838828 13.5301055,19.7602539 L24.9493359,19.7602539 C24.6915195,22.6838828 22.2292383,24.984375 19.2397461,24.984375 L19.2397461,24.984375 Z"/><path d="M21.2779023 16.9188398C21.8003398 17.4412773 22.4950273 17.7290039 23.2338945 17.7290039 23.9727617 17.7290039 24.6673984 17.4412773 25.1898867 16.9188398 25.712375 16.3964023 26 15.7017148 26 14.9628477 26 14.2239805 25.7122734 13.5293438 25.1898359 13.0068555 24.9914844 12.8086055 24.6700391 12.8086055 24.4716367 13.0068555L21.2778516 16.2006406C21.0795508 16.3989922 21.0795508 16.7205391 21.2779023 16.9188398L21.2779023 16.9188398zM24.7776445 14.1372461C25.1314375 14.7994844 25.029418 15.6429609 24.4716875 16.2006914 23.9140586 16.7584219 23.0704805 16.8604414 22.4082422 16.5066484L24.7776445 14.1372461zM14.0065859 9.75644922C13.7261719 9.75644922 13.4987734 9.98384766 13.4987734 10.2642617L13.4987734 10.4647461C13.1621445 10.5640234 12.8590312 10.7609023 12.629043 11.0377617 12.287793 11.4486836 12.1482969 11.9854922 12.2463555 12.5105703L12.7510703 15.2136055C12.8639062 15.8178516 13.3918789 16.2563984 14.0065859 16.2563984 14.621293 16.2563984 15.1492656 15.8178516 15.2621016 15.2136563L15.7668164 12.5105703C15.864875 11.9854922 15.7253789 11.4486836 15.3841289 11.0377617 15.1541406 10.7608516 14.8510273 10.5639727 14.5143984 10.4647461L14.5143984 10.2642617C14.5143984 9.98379688 14.2870508 9.75644922 14.0065859 9.75644922L14.0065859 9.75644922zM14.6028086 11.6866953C14.7504805 11.8645313 14.8109102 12.0969062 14.768457 12.3241523L14.2637422 15.0272891C14.2406367 15.151043 14.1324727 15.2408242 14.0066367 15.2408242 13.8808008 15.2408242 13.7726367 15.1509922 13.7495312 15.0272383L13.2448164 12.3241523C13.2023633 12.0968555 13.262793 11.8645313 13.4104648 11.6866953 13.5581875 11.5088594 13.7754805 11.4068398 14.0066875 11.4068398 14.2378945 11.4068398 14.4550859 11.5088594 14.6028086 11.6866953L14.6028086 11.6866953zM4.11678516 8.25703125C4.02238281 8.16207031 3.89136719 8.10824219 3.7578125 8.10824219 3.62425781 8.10824219 3.49324219 8.16207031 3.39878906 8.25703125 3.30433594 8.35148438 3.25 8.4825 3.25 8.61605469 3.25 8.74960938 3.30428516 8.88011719 3.39878906 8.97507812 3.49324219 9.06948047 3.62425781 9.12386719 3.7578125 9.12386719 3.89136719 9.12386719 4.02238281 9.06953125 4.11678516 8.97507812 4.21123828 8.88011719 4.265625 8.74960938 4.265625 8.61605469 4.265625 8.4825 4.21128906 8.35148438 4.11678516 8.25703125zM10.7693828 8.10808984L6.27996484 8.10808984C5.99955078 8.10808984 5.77215234 8.33548828 5.77215234 8.61590234 5.77215234 8.89631641 5.99955078 9.12371484 6.27996484 9.12371484L10.7693828 9.12371484C11.0497969 9.12371484 11.2771953 8.89631641 11.2771953 8.61590234 11.2771953 8.33548828 11.0498477 8.10808984 10.7693828 8.10808984zM4.11678516 11.8848437C4.02238281 11.7903906 3.89136719 11.7360039 3.7578125 11.7360039 3.62425781 11.7360039 3.49324219 11.7903398 3.39878906 11.8848437 3.30433594 11.9792461 3.25 12.1102617 3.25 12.2438164 3.25 12.3774219 3.30428516 12.5083867 3.39878906 12.6028398 3.49329297 12.697293 3.62425781 12.7516289 3.7578125 12.7516289 3.89136719 12.7516289 4.02238281 12.6973437 4.11678516 12.6028398 4.21123828 12.5083867 4.265625 12.3774219 4.265625 12.2438164 4.265625 12.1102617 4.21128906 11.9792461 4.11678516 11.8848437zM10.7693828 11.7361055L6.27996484 11.7361055C5.99955078 11.7361055 5.77215234 11.9635039 5.77215234 12.243918 5.77215234 12.524332 5.99955078 12.7517305 6.27996484 12.7517305L10.7693828 12.7517305C11.0497969 12.7517305 11.2771953 12.524332 11.2771953 12.243918 11.2771953 11.9635039 11.0498477 11.7361055 10.7693828 11.7361055zM4.11678516 15.5126055C4.02238281 15.4182031 3.89136719 15.3643242 3.7578125 15.3643242 3.62425781 15.3643242 3.49324219 15.4182031 3.39878906 15.5126055 3.30433594 15.6075664 3.25 15.738582 3.25 15.8721367 3.25 16.0056914 3.30428516 16.1361992 3.39878906 16.2307031 3.49324219 16.3256641 3.62425781 16.3799492 3.7578125 16.3799492 3.89136719 16.3799492 4.02238281 16.3256641 4.11678516 16.2307031 4.21123828 16.13625 4.265625 16.0056914 4.265625 15.8721367 4.265625 15.738582 4.21128906 15.6076172 4.11678516 15.5126055zM10.7693828 15.3641719L6.27996484 15.3641719C5.99955078 15.3641719 5.77215234 15.5915703 5.77215234 15.8719844 5.77215234 16.1523984 5.99955078 16.3797969 6.27996484 16.3797969L10.7693828 16.3797969C11.0497969 16.3797969 11.2771953 16.1523984 11.2771953 15.8719844 11.2771953 15.5915703 11.0498477 15.3641719 10.7693828 15.3641719zM3.7578125 18.9921875C3.62425781 18.9921875 3.49324219 19.0464727 3.39878906 19.1409766 3.30433594 19.2354805 3.25 19.3664453 3.25 19.5 3.25 19.6335547 3.30428516 19.7645703 3.39878906 19.8589727 3.49324219 19.9534766 3.62425781 20.0078125 3.7578125 20.0078125 3.89136719 20.0078125 4.02238281 19.9534766 4.11678516 19.8589727 4.21128906 19.7645703 4.265625 19.6335547 4.265625 19.5 4.265625 19.3664453 4.21128906 19.2354297 4.11678516 19.1409766 4.02238281 19.0464727 3.89136719 18.9921875 3.7578125 18.9921875zM10.7693828 18.9921875L6.27996484 18.9921875C5.99955078 18.9921875 5.77215234 19.2195859 5.77215234 19.5 5.77215234 19.7804141 5.99955078 20.0078125 6.27996484 20.0078125L10.7693828 20.0078125C11.0497969 20.0078125 11.2771953 19.7804141 11.2771953 19.5 11.2771953 19.2195859 11.0498477 18.9921875 10.7693828 18.9921875zM9.6484375 24.984375C9.51488281 24.984375 9.38386719 25.0386602 9.28941406 25.1331641 9.19496094 25.227668 9.140625 25.3586328 9.140625 25.4921875 9.140625 25.6257422 9.19491016 25.7567578 9.28941406 25.8511602 9.38386719 25.9456133 9.51488281 26 9.6484375 26 9.78199219 26 9.91300781 25.9456641 10.0074102 25.8511602 10.1019141 25.7567578 10.15625 25.6257422 10.15625 25.4921875 10.15625 25.3586328 10.1019141 25.2276172 10.0074102 25.1331641 9.91300781 25.0386602 9.78199219 24.984375 9.6484375 24.984375z"/></g></g></svg>
