<svg height="512pt" viewBox="0 0 512 512" width="512pt" xmlns="http://www.w3.org/2000/svg"><path d="m501.960938 256c0-136.199219-110.121094-246.613281-245.960938-246.613281s-245.960938 110.414062-245.960938 246.613281 110.121094 246.613281 245.960938 246.613281 245.960938-110.414062 245.960938-246.613281zm0 0" fill="#97c9e8"/><path d="m256 9.386719c-7.414062 0-14.75.347656-22 .996093 125.53125 11.15625 223.960938 116.851563 223.960938 245.617188s-98.429688 234.460938-223.960938 245.617188c7.25.648437 14.585938.996093 22 .996093 135.839844 0 245.960938-110.414062 245.960938-246.613281s-110.121094-246.613281-245.960938-246.613281zm0 0" fill="#60b6ff"/><path d="m92.601562 367.59375c-11.375-17.355469 20.128907-58.171875 27.234376-89.039062 7.105468-30.867188-35.519532-28.492188-48.546876-39.175782-13.023437-10.683594-30.78125-56.984375-43.808593-67.667968l-1.878907-2.183594c-10.050781 26.910156-15.5625 56.046875-15.5625 86.472656 0 79.457031 37.488282 150.128906 95.691407 195.230469l4.632812-1.722657s9.472657-40.363281-17.761719-81.914062zm0 0" fill="#baeb6c"/><path d="m222.320312 67.023438c16.917969 30.207031 80.949219 4.835937 114.777344 50.746093 21.382813 29.015625 48.933594 109.339844 140.148438 56.785157l8.96875-5.507813c-35.066406-93.289063-124.902344-159.660156-230.214844-159.660156-8.679688 0-17.257812.457031-25.703125 1.339843l-.121094.117188s-24.769531 25.976562-7.855469 56.179688zm0 0" fill="#baeb6c"/><path d="m256 9.386719c-7.617188 0-15.148438.375-22.589844 1.054687 96.03125 9.335938 181.597656 80.582032 214.792969 177.242188 8.898437-2.8125 18.542969-7.082032 29.042969-13.128906l8.96875-5.507813c-35.066406-93.289063-124.902344-159.660156-230.214844-159.660156zm0 0" fill="#96d629"/><path d="m450.511719 406.929688-1.070313-.375s4.636719 3.3125-39.085937-12.585938c-43.722657-15.902344-33.125 58.296875-115.269531 37.097656-36.011719-9.292968-38.421876 52.996094-39.746094 68.898438l.03125 2.640625c.210937 0 .417968.007812.628906.007812 79.128906 0 149.519531-37.476562 194.511719-95.683593zm0 0" fill="#baeb6c"/><path d="m449.441406 406.554688s4.316406 3.082031-34.707031-11c-.28125.492187-.824219 1.257812-1.796875 2.078124-36.835938 46.378907-95.070312 86.722657-157.433594 100.195313-.058594.777344-.113281 1.496094-.167968 2.132813l.035156 2.644531c.210937 0 .417968.007812.628906.007812 79.128906 0 149.519531-37.476562 194.511719-95.683593zm0 0" fill="#96d629"/><path d="m219.90625 309.863281h75.519531s-7.773437 74.410157-37.761719 74.410157c-28.875 0-37.757812-74.410157-37.757812-74.410157zm0 0" fill="#fff"/><path d="m437.019531 74.980469c-48.351562-48.351563-112.640625-74.980469-181.019531-74.980469-29.675781 0-58.761719 5.035156-86.441406 14.964844-26.753906 9.59375-51.601563 23.53125-73.847656 41.417968-7.507813 6.03125 1.882812 17.730469 9.398437 11.6875 32.25-25.929687 69.519531-42.722656 109.449219-49.570312-6.382813 13.246094-9.753906 31.8125.875 50.75 9.542968 16.992188 29.464844 19.664062 50.558594 22.496094 24.109374 3.234375 49.039062 6.582031 65.914062 29.417968 2.996094 4.058594 6.304688 9.472657 9.804688 15.207032 11.257812 18.433594 26.671874 43.679687 51.46875 55.632812 9.464843 4.566406 19.722656 6.917969 30.484374 6.984375 9.609376 0 9.808594-14.9375.097657-15-8.644531-.054687-16.515625-1.851562-24.066407-5.496093-20.8125-10.035157-34.324218-32.160157-45.183593-49.9375-3.675781-6.023438-7.152344-11.714844-10.542969-16.300782-20.648438-27.949218-51.328125-32.066406-75.980469-35.375-18.769531-2.519531-33.597656-4.507812-39.472656-14.972656-11.898437-21.191406.558594-40.011719 5.242187-45.902344 7.34375-.660156 14.761719-1.003906 22.242188-1.003906 64.375 0 124.894531 25.066406 170.414062 70.585938 23.179688 23.183593 41.027344 50.265624 52.992188 79.753906-5.765625 3.289062-15.089844 8.265625-20.261719 10.488281-8.828125 3.800781-2.972656 17.605469 5.925781 13.78125 5.875-2.527344 12-5.613281 18.199219-9.175781.503907-.289063.953125-.632813 1.363281-1.007813 8.132813 24.359375 12.367188 50.140625 12.367188 76.574219 0 52.5625-16.71875 102.550781-47.632812 143.902344-3.824219-1.082032-13.03125-4.015625-34.859376-11.929688-23.8125-8.636718-35.90625 4.964844-46.578124 16.964844-13.648438 15.347656-27.761719 31.222656-70.570313 20.203125-9.546875-2.457031-18.402344-1.019531-25.621094 4.15625-19.113281 13.707031-22.179687 49.382813-23.550781 67.5625-47.960938-1.515625-93.503906-16.984375-131.957031-44.472656.949219-4.339844 8.929687-45.484375-19.046875-88.058594-2.144532-3.261719-1.535156-9.710937 1.804687-19.171875 3.210938-9.078125-10.929687-14.089844-14.140625-4.996094-3.230468 9.132813-6.757812 22.429688-.203125 32.40625 18.632813 28.355469 19.027344 56.371094 17.917969 69.296875-5.859375-4.855469-11.53125-10-16.976562-15.449219-45.519532-45.519531-70.585938-106.039062-70.585938-170.414062 0-24.816406 3.789062-49.183594 11.078125-72.367188 4.566406 6.609376 9.792969 16.257813 14.578125 25.097657 8.359375 15.433593 16.253906 30.007812 23.976562 36.328125 5.289063 4.324218 13.0625 6.621094 21.292969 9.054687 21.414063 6.328125 28.058594 10.527344 25.195313 22.929688-2.105469 9.121093-6.617188 19.421875-11.179688 29.1875-4.082031 8.738281 9.546875 15.003906 13.589844 6.347656 4.910156-10.511719 9.789062-21.683594 12.207031-32.164063 2.855469-12.363281-.578125-22.648437-9.917969-29.75-7.242187-5.5-17.019531-8.390624-25.644531-10.9375-6.441406-1.902343-13.101562-3.871093-16.042969-6.277343-5.4375-4.449219-13.324218-19.011719-20.285156-31.863281-7.617187-14.0625-14.851562-27.394532-21.917968-34.433594 10.773437-27.175782 26.511718-52.386719 46.734374-74.351563 6.523438-7.082031-4.5-17.253906-11.035156-10.160156-43.609375 47.367187-67.628906 108.933594-67.628906 173.359375 0 68.378906 26.628906 132.667969 74.980469 181.019531 48.351562 48.351563 112.640625 74.980469 181.019531 74.980469s132.667969-26.628906 181.019531-74.980469c48.351563-48.351562 74.980469-112.640625 74.980469-181.019531s-26.628906-132.667969-74.980469-181.019531zm-10.605469 351.433593c-43.8125 43.808594-101.519531 68.664063-163.179687 70.46875 1.117187-14.433593 4.144531-46 17.246094-55.394531 3.640625-2.609375 7.816406-3.191406 13.140625-1.820312 51.679687 13.300781 71.238281-8.699219 85.519531-24.765625 11.097656-12.476563 16.582031-17.789063 30.253906-12.828125 12.996094 4.710937 23.015625 8.203125 29.894531 10.417969-4.09375 4.777343-8.382812 9.425781-12.875 13.921874zm0 0"/><path d="m213.921875 305.296875c-1.421875 1.605469-2.089844 3.742187-1.835937 5.871094.09375.792969 2.394531 19.65625 8.425781 38.847656 8.914062 28.359375 21.421875 42.742187 37.171875 42.742187 36.011718 0 44.730468-73.335937 45.609375-81.699218.222656-2.113282-.464844-4.222656-1.886719-5.800782-1.421875-1.582031-3.449219-2.480468-5.574219-2.480468h-76.300781c-2.144531 0-4.183594.917968-5.609375 2.519531zm73.355469 12.480469c-3.714844 23.71875-13.832032 59.980468-29.59375 59.980468-8.066406 0-16.375-11.691406-22.804688-32.066406-3.277344-10.382812-5.40625-20.890625-6.617187-27.914062zm0 0"/><path d="m188.113281 189.453125c-24.875 0-45.113281 20.195313-45.113281 45.019531 0 9.695313 15 9.695313 15 0 0-16.550781 13.507812-30.019531 30.113281-30.019531 16.609375 0 30.117188 13.464844 30.117188 30.019531 0 9.695313 15 9.695313 15 0 0-24.824218-20.238281-45.019531-45.117188-45.019531zm0 0"/><path d="m293.769531 234.472656c0-16.550781 13.507813-30.019531 30.117188-30.019531 16.605469 0 30.113281 13.464844 30.113281 30.019531 0 9.695313 15 9.695313 15 0 0-24.824218-20.238281-45.019531-45.113281-45.019531-24.878907 0-45.117188 20.195313-45.117188 45.019531 0 9.695313 15 9.695313 15 0zm0 0"/></svg>