<svg height="511pt" viewBox="0 1 511.99927 511" width="511pt" xmlns="http://www.w3.org/2000/svg"><path d="m399.484375 163.945312 19.128906-156.996093-126.90625 71.703125zm0 0" fill="#fd646f"/><path d="m338.886719 51.996094-47.179688 26.65625 15.9375 12.613281h100.695313l4.785156-39.269531zm0 0" fill="#fbb540"/><path d="m430.515625 251.4375c0-96.640625-78.132813-174.980469-174.515625-174.980469s-174.519531 78.339844-174.519531 174.980469 78.136719 174.980469 174.519531 174.980469 174.515625-78.339844 174.515625-174.980469zm0 0" fill="#97c9e8"/><path d="m256 76.457031c-7.453125 0-14.792969.46875-21.996094 1.378907 85.996094 10.84375 152.519532 84.433593 152.519532 173.601562s-66.523438 162.753906-152.519532 173.601562c7.203125.90625 14.542969 1.378907 21.996094 1.378907 96.382812 0 174.515625-78.339844 174.515625-174.980469s-78.132813-174.980469-174.515625-174.980469zm0 0" fill="#60b6ff"/><g fill="#baeb6c"><path d="m140.0625 330.617188c-8.070312-12.3125 14.285156-41.273438 19.324219-63.175782 5.039062-21.898437-25.203125-20.214844-34.445313-27.796875-9.242187-7.582031-21.84375-40.429687-31.085937-48.011719l-1.332031-1.546874c-7.132813 19.089843-11.042969 39.761718-11.042969 61.351562 0 56.378906 26.601562 106.523438 67.894531 138.523438l3.289062-1.222657s6.722657-28.636719-12.601562-58.121093zm0 0"/><path d="m232.101562 117.351562c12.003907 21.433594 57.4375 3.429688 81.441407 36.007813 15.167969 20.585937 34.71875 77.582031 99.441406 40.289063l6.359375-3.90625c-24.878906-66.195313-88.625-113.285157-163.34375-113.285157-6.160156 0-12.246094.324219-18.242188.949219l-.082031.085938s-17.574219 18.429687-5.574219 39.859374zm0 0"/><path d="m394.011719 358.527344-.757813-.265625s3.289063 2.347656-27.734375-8.933594c-31.023437-11.28125-23.5 41.367187-81.789062 26.324219-25.550781-6.59375-27.261719 37.605468-28.203125 48.886718l.023437 1.875c.152344 0 .300781.003907.449219.003907 56.144531 0 106.089844-26.589844 138.011719-67.890625zm0 0"/><path d="m255.554688 426.414062c.140624 0 .28125.003907.425781.003907-.144531 0-.285157-.007813-.425781-.007813zm0 0"/></g><path d="m393.253906 358.261719s3.289063 2.351562-27.734375-8.929688c-2.90625-1.058593-5.476562-1.554687-7.792969-1.597656-23.464843 35.625-59.570312 62.132813-101.914062 73.109375-.113281 1.449219-.199219 2.703125-.285156 3.695312l.023437 1.871094c.144531 0 .285157.007813.429688.007813h.019531c56.144531 0 106.089844-26.589844 138.011719-67.886719zm0 0" fill="#96d629"/><path d="m240.707031 77.136719c1-.085938 2.003907-.167969 3.011719-.234375-1.007812.066406-2.011719.148437-3.011719.234375zm0 0" fill="#baeb6c"/><path d="m237.761719 77.40625-.019531.015625c.289062-.027344.574218-.0625.859374-.09375-.277343.027344-.5625.046875-.839843.078125zm0 0" fill="#baeb6c"/><path d="m245.796875 76.765625c1.105469-.066406 2.210937-.113281 3.320313-.15625-1.109376.042969-2.214844.089844-3.320313.15625zm0 0" fill="#baeb6c"/><path d="m250.878906 76.539062c1.699219-.050781 3.40625-.082031 5.121094-.082031-1.714844 0-3.421875.03125-5.121094.082031zm0 0" fill="#baeb6c"/><path d="m419.34375 189.738281c-24.878906-66.191406-88.625-113.28125-163.34375-113.28125-1.714844 0-3.421875.03125-5.121094.082031-.589844.015626-1.175781.042969-1.761718.066407-1.109376.042969-2.21875.09375-3.320313.160156-.695313.039063-1.386719.085937-2.078125.132813-1.007812.070312-2.011719.152343-3.015625.238281-.699219.0625-1.402344.121093-2.101563.191406-.289062.03125-.574218.066406-.859374.09375l-.066407.070313s-.253906.265624-.671875.757812c69.324219 9.972656 125.488282 60.792969 143.457032 127.359375 9.375-1.140625 20.117187-4.816406 32.519531-11.960937zm0 0" fill="#96d629"/><path d="m330.25 267.011719c0 41.007812-33.242188 74.25-74.25 74.25s-74.25-33.242188-74.25-74.25zm0 0" fill="#fff"/><path d="m201.695312 317.625c13.554688 14.535156 32.863282 23.636719 54.304688 23.636719 21.433594 0 40.734375-9.09375 54.285156-23.621094-55.304687-34.257813-104.226562-2.953125-108.589844-.015625zm0 0" fill="#fd646f"/><path d="m60.25 339.898438-11.789062 97.230468 83.5625-51.089844" fill="#fd646f"/><path d="m134.4375 386.886719 13.429688 97.015625 67.746093-70.730469" fill="#fbb540"/><path d="m216.046875 414.921875 36.894531 90.730469 48.25-85.230469" fill="#fd646f"/><path d="m301.234375 419.613281 56.328125 80.121094 27.878906-93.890625" fill="#fbb540"/><path d="m495.472656 116.953125c0 11.042969-8.953125 19.996094-19.996094 19.996094-11.046874 0-20-8.953125-20-19.996094 0-11.046875 8.953126-20 20-20 11.042969 0 19.996094 8.953125 19.996094 20zm0 0" fill="#0181fb"/><path d="m56.523438 113.953125c0 11.042969-8.953126 19.996094-20 19.996094-11.042969 0-19.996094-8.953125-19.996094-19.996094 0-11.046875 8.953125-20 19.996094-20 11.046874 0 20 8.953125 20 20zm0 0" fill="#0181fb"/><path d="m183.910156 241.171875c4.140625 0 7.5-3.359375 7.5-7.5 0-10.039063 8.164063-18.203125 18.203125-18.203125 10.039063 0 18.203125 8.164062 18.203125 18.203125 0 4.140625 3.355469 7.5 7.5 7.5 4.140625 0 7.5-3.359375 7.5-7.5 0-18.308594-14.894531-33.203125-33.203125-33.203125-18.308593 0-33.203125 14.894531-33.203125 33.203125 0 4.140625 3.355469 7.5 7.5 7.5zm0 0"/><path d="m284.179688 233.671875c0-10.039063 8.167968-18.203125 18.207031-18.203125 10.035156 0 18.203125 8.164062 18.203125 18.203125 0 4.140625 3.355468 7.5 7.5 7.5 4.140625 0 7.496094-3.359375 7.496094-7.5 0-18.308594-14.890626-33.203125-33.199219-33.203125-18.308594 0-33.203125 14.894531-33.203125 33.203125 0 4.140625 3.355468 7.5 7.5 7.5 4.140625 0 7.496094-3.359375 7.496094-7.5zm0 0"/><path d="m256 349.777344c45.074219 0 81.75-36.675782 81.75-81.75 0-4.140625-3.359375-7.5-7.5-7.5h-148.5c-4.144531 0-7.5 3.359375-7.5 7.5 0 45.074218 36.671875 81.75 81.75 81.75zm-41.621094-29.617188c14.476563-7.113281 46.832032-18.246094 83.1875.042969-11.414062 9.109375-25.859375 14.574219-41.566406 14.574219-15.734375 0-30.199219-5.480469-41.621094-14.617188zm107.953125-44.632812c-1.410156 12.558594-6.324219 24.070312-13.730469 33.542968-29.800781-16.5625-57.4375-15.382812-75.796874-11.234374-13.257813 2.996093-23.535157 7.871093-29.464844 11.164062-7.378906-9.460938-12.265625-20.945312-13.671875-33.472656zm0 0"/><path d="m119.339844 28.460938c4.140625 0 7.5-3.355469 7.5-7.496094v-13c0-9.628906-15-9.644532-15 0v13c0 4.140625 3.355468 7.496094 7.5 7.496094zm0 0"/><path d="m80.769531 35.140625 11.257813 6.496094c8.269531 4.769531 15.886718-8.144531 7.5-12.988281l-11.257813-6.496094c-8.34375-4.816406-15.851562 8.164062-7.5 12.988281zm0 0"/><path d="m92.527344 56.148438-11.257813 6.496093c-8.355469 4.824219-.808593 17.785157 7.496094 12.992188l11.257813-6.5c8.339843-4.816407.851562-17.8125-7.496094-12.988281zm0 0"/><path d="m120.339844 68.457031c-4.144532 0-7.5 3.355469-7.5 7.5v13c0 9.628907 15 9.640625 15 0v-13c0-4.140625-3.359375-7.5-7.5-7.5zm0 0"/><path d="m158.910156 61.78125-11.257812-6.5c-8.34375-4.8125-15.851563 8.167969-7.5 12.988281l11.257812 6.5c8.265625 4.769531 15.886719-8.144531 7.5-12.988281zm0 0"/><path d="m143.40625 41.78125c1.273438 0 2.566406-.324219 3.746094-1.007812l11.257812-6.5c8.335938-4.816407.851563-17.808594-7.5-12.988282l-11.257812 6.5c-6.46875 3.734375-3.765625 13.996094 3.753906 13.996094zm0 0"/><path d="m468.652344 444.414062c4.140625 0 7.496094-3.355468 7.496094-7.496093v-13c0-9.628907-14.996094-9.644531-14.996094 0v13c0 4.140625 3.355468 7.496093 7.5 7.496093zm0 0"/><path d="m430.082031 451.09375 11.257813 6.5c8.265625 4.769531 15.886718-8.148438 7.5-12.988281l-11.257813-6.5c-8.34375-4.8125-15.851562 8.167969-7.5 12.988281zm0 0"/><path d="m441.839844 472.101562-11.257813 6.5c-8.355469 4.820313-.808593 17.78125 7.5 12.988282l11.257813-6.5c8.335937-4.816406.847656-17.8125-7.5-12.988282zm0 0"/><path d="m469.652344 484.410156c-4.144532 0-7.5 3.359375-7.5 7.5v13c0 9.628906 14.996094 9.640625 14.996094 0v-13c0-4.140625-3.355469-7.5-7.496094-7.5zm0 0"/><path d="m508.222656 477.734375-11.257812-6.5c-8.34375-4.8125-15.851563 8.167969-7.5 12.988281l11.257812 6.5c8.265625 4.769532 15.886719-8.144531 7.5-12.988281zm0 0"/><path d="m492.722656 457.734375c1.269532 0 2.5625-.324219 3.742188-1.007813l11.257812-6.5c8.339844-4.8125.851563-17.808593-7.5-12.988281l-11.257812 6.5c-6.46875 3.734375-3.765625 13.996094 3.757812 13.996094zm0 0"/><path d="m495.351562 135.921875c4.714844-4.9375 7.621094-11.617187 7.621094-18.96875 0-15.160156-12.335937-27.496094-27.496094-27.496094-15.164062 0-27.5 12.335938-27.5 27.496094s12.335938 27.496094 27.5 27.496094c2.394532 0 4.714844-.308594 6.933594-.886719 18.089844 34.988281 19.386719 68.992188 3.496094 96.328125-11.324219 19.484375-30.683594 33.410156-50.148438 36.761719 1.019532-7.84375 1.539063-15.800782 1.539063-23.84375 0-36.625-10.871094-70.746094-29.53125-99.3125l18.285156-144.589844c.75-5.925781-5.878906-10.4375-11.125-7.46875l-126.90625 71.703125c-.316406.179687-.609375.382813-.886719.597656-10.121093-1.761719-20.519531-2.6875-31.132812-2.6875-51.945312 0-101.488281 22.402344-135.910156 61.457031-6.367188 7.226563 4.878906 17.152344 11.253906 9.917969 24.234375-27.5 56.640625-45.984375 91.941406-53.097656-3.476562 9.378906-4.46875 21.390625 2.375 33.613281 7.222656 12.894532 22.371094 14.933594 37.023438 16.902344 16.394531 2.207031 33.347656 4.488281 44.585937 19.738281 2.035157 2.765625 4.324219 6.519531 6.75 10.5 7.84375 12.882813 17.609375 28.914063 33.550781 38.074219 7.976563 4.585938 16.644532 6.875 25.96875 6.875 12.542969 0 26.265626-4.160156 41.050782-12.441406 5.003906 15.855468 7.710937 32.726562 7.710937 50.21875 0 10.347656-.929687 20.542968-2.753906 30.507812-.019531.089844-.035156.179688-.050781.273438-4.5 24.320312-14.355469 47.238281-29.15625 67.527344-3.246094-.996094-9.765625-3.160157-22.703125-7.867188-18.105469-6.582031-27.496094 4.007812-35.042969 12.519531-9.515625 10.726563-18.5 20.859375-47.097656 13.480469-7.195313-1.855469-13.925782-.808594-19.472656 3.03125-8.601563 5.957031-14.035157 18.257812-16.574219 37.535156-16.496094-1.566406-32.882813-4.351562-48.960938-8.363281-3.703125-.921875-45.9375-12.476563-45.332031-15.066406.289062-1.234375 6.867188-30.589844-12.953125-60.835938-2.410156-3.671875 4.511719-18.273437 8.648437-26.996093 4.257813-8.984376 8.664063-18.277344 10.671876-27 4.457031-19.363282-18.828126-27.824219-30.015626-31.890626-1.894531-.6875-4.445312-1.613281-5.339843-2.078124-3.253907-2.890626-8.460938-12.53125-12.664063-20.3125-4.65625-8.621094-9.105468-16.84375-13.597656-22.019532 2.542969-6.957031 5.53125-13.746094 8.988281-20.292968 4.492188-8.519532-8.769531-15.527344-13.269531-7-16.996094 32.226562-23.863281 69.445312-19.734375 105.625-19.347656-3.457032-38.539063-17.332032-49.796875-36.695313-15.890625-27.339844-14.59375-61.34375 3.496094-96.328125 2.214844.574219 4.539062.886719 6.933594.886719 15.160156 0 27.496093-12.335938 27.496093-27.5 0-15.160157-12.335937-27.496094-27.496093-27.496094-15.160157 0-27.496094 12.335937-27.496094 27.496094 0 7.351562 2.90625 14.03125 7.621094 18.96875-28.117188 53.59375-14.480469 92.660156-3.523438 111.507812 14.363281 24.703125 39.914062 41.957031 65.214844 44.632813 5.714844 28.230468 18.039062 54.664062 35.996094 77.183594-47.417969-27.867188-72.546876-58.652344-72.835938-59.011719-6.027344-7.503907-17.726562 1.871093-11.695312 9.386719.664062.832031 8.308593 10.238281 22.804687 23.246093l-11.59375 95.621094c-.746094 6.15625 6.164063 10.476563 11.355469 7.296875l75.910156-46.410156 12.15625 87.816406c.832031 6.035156 8.539062 8.65625 12.84375 4.160156l59.546875-62.171875 33.164063 81.558594c2.339843 5.746094 10.429687 6.242187 13.472656.871094l12.023437-21.242188c4.753907-8.390625-8.332031-15.710937-13.050781-7.386719l-4.386719 7.75-18.835937-46.316406-7.816406-19.21875c20.316406 3.15625 40.882812 4.472656 61.4375 4.09375l-15.113282 26.695313c-4.730468 8.351562 8.253906 15.859375 13.050782 7.386719l15.375-27.152344 49.28125 70.09375c3.550781 5.054687 11.574218 3.707031 13.320312-2.179688l26.777344-90.179687c13.445312-3.691407 26.96875-8.023438 40.5625-13.03125 9.035156-3.332031 3.859375-17.410157-5.1875-14.074219-23.59375 8.695312-46.964844 15.339844-70.003906 19.921875 16.730468-11.265625 31.644531-25.300781 43.84375-41.488281 15.886718-21.085938 26.792968-44.875 32.328124-70.160156 25.496094-2.46875 51.332032-19.796876 65.800782-44.691407 10.957031-18.84375 24.597656-57.910156-3.519532-111.503906zm-32.375-18.96875c0-6.894531 5.605469-12.5 12.5-12.5 6.890626 0 12.496094 5.605469 12.496094 12.5 0 6.890625-5.605468 12.496094-12.496094 12.496094-6.894531 0-12.5-5.605469-12.5-12.496094zm-109.242187-17.171875h45.707031l-4.59375 36.296875c-11.78125-14.066406-25.644531-26.332031-41.113281-36.296875zm52.570313-54.269531h-38.898438l41.890625-23.671875zm-65.445313 15h63.546875l-3.070312 24.273437h-76.226563c-5.425781-2.253906-10.976563-4.246094-16.652344-5.96875zm67.734375 128.25c-48.585938 27.992187-66.984375-2.210938-81.765625-26.480469-2.601563-4.269531-5.058594-8.300781-7.484375-11.597656-15.007812-20.367188-36.992188-23.324219-54.65625-25.703125-13.875-1.863281-22.554688-3.316407-25.941406-9.367188-7.1875-12.839843-.453125-24.433593 2.871094-28.929687 4.765624-.414063 9.5625-.636719 14.382812-.636719 68.929688 0 128.195312 42.273437 153.378906 102.324219-.265625.113281-.527344.242187-.785156.390625zm-372.070312-87.308594c6.894531 0 12.5 5.605469 12.5 12.5 0 6.890625-5.605469 12.5-12.5 12.5-6.890626 0-12.496094-5.609375-12.496094-12.5 0-6.894531 5.605468-12.5 12.496094-12.5zm81.09375 283.863281-59.847657 36.589844 8.539063-70.441406c13.445312 10.742187 30.5625 22.683594 51.308594 33.851562zm83.25 31.667969-47.699219 49.796875-9.53125-68.851562c18.511719 8.046874 37.625 14.410156 57.230469 19.054687zm-100.5625-192.578125c5.679687 10.507812 11.039062 20.433594 16.554687 24.953125 2.058594 1.691406 5.027344 2.773437 9.523437 4.40625 7.691407 2.792969 22.003907 7.992187 20.523438 14.425781-1.644531 7.136719-5.691406 15.679688-9.609375 23.941406-7.542969 15.902344-14.664063 30.925782-7.640625 41.640626 10.042969 15.328124 11.832031 30.503906 11.734375 39.859374-25.550781-24.367187-42.539063-55.972656-48.890625-90.332031.082031-.441406.132812-.898437.132812-1.367187 0-1.351563-.363281-2.617188-.988281-3.710938-1.277343-8.34375-1.945312-16.835937-1.945312-25.414062 0-13.210938 1.585937-26.371094 4.652343-39.148438 2.011719 3.445313 4.082032 7.28125 5.953126 10.746094zm214.347656 200.515625c19.726562-1.703125 39.726562-4.902344 59.945312-9.644531l-19.8125 66.726562zm-3.554688-14.730469c-15.765625 1.261719-31.335937 1.507813-46.664062.730469 2.542968-18.429687 7.359375-24.390625 10.128906-26.308594 1.316406-.914062 3.324219-1.832031 7.183594-.839843 37.476562 9.675781 51.691406-6.351563 62.070312-18.050782 7.726563-8.71875 10.558594-11.332031 18.691406-8.375 7.257813 2.636719 13.191407 4.734375 17.757813 6.269532-18.734375 21.054687-42.738281 37.238281-69.167969 46.574218zm0 0"/></svg>