<svg id="Layer_1" enable-background="new 0 0 512 512" height="512" viewBox="0 0 512 512" width="512" xmlns="http://www.w3.org/2000/svg"><path d="m460.933 207.224c-2.812-111.304-94.338-200.565-206.515-199.718-112.875.852-203.418 93.802-203.418 206.68v211.314c0 16.569 13.431 30 30 30 16.569 0 30-13.431 30-30v-33.454c0-13.027 14.755-20.702 25.328-13.092 6.338 4.562 12.947 8.77 19.798 12.599 5.078 2.837 8.231 8.19 8.231 14.007v68.94c0 16.569 13.431 30 30 30 16.569 0 30-13.431 30-30v-41.496c0-9.352 7.958-16.648 17.287-16.001 6.072.421 12.178.575 18.241.46 9.019-.17 16.449 7.021 16.449 16.041v17.946c0 16.569 13.431 30 30 30 16.569 0 30-13.431 30-30v-39.986c0-6.149 3.519-11.748 9.051-14.433 10.606-5.146 20.702-11.179 30.191-18.003 10.622-7.638 25.424-.068 25.424 13.016 0 16.569 13.431 30 30 30 16.569 0 30-13.431 30-30z" fill="#80deea"/><path d="m304.47 118.51c-.5 3.64-2.84 2.19-33.02 12.97-.43.15-1.61 4.15-2.23 6.33-1.37 4.89 14.16 17.78 7.66 21.24l-19.3 10.29c-3.09 1.64-2.54 10-5.43 11.73-8.57 5.13-8.73 5-9.3 6.21-3.23 6.79-3.82 9.64-6.79 9.52l-20.23-.77c-.77-.03-7.95 2.29-7.03 6.16 1.25 5.24 4.16 17.25 4.76 17.76 15.53 20.35 15.21 12.97 9.46 28.4-.68 1.83-2.79 2.66-4.54 1.81l-17.76-8.66c-.27-.13-.57-.23-.87-.28-18.08-3.19-18.38-2.79-19.4-4.71-3.18-5.96-15.37-28.81-15.55-28.96-28.91-23.72-28.81-22.7-29.32-24.58-5.46-19.99-5.25-19.13-5.08-20.08 4.21-23.77 3.96-22.39 4.09-22.74l5.17-14.72c.91-2.59-5.47-14.83-5.64-17.36-1.54-22.07-1.12-21.8-2.65-23.04-4.29-3.48-19.64-15.92-20.64-16.65 18.39-18.63 40.27-33.76 64.6-44.27 39.25 16.31 38.75 18.19 41.51 16.17 14.14-10.33 13.28-10.03 14.47-10.23 18.85-3.17 21.37-4.59 22.44-.79 4.15 14.73 5.16 15.85 2.88 17.67-33.17 26.51-32.28 25.07-32.17 27.45.67 14.27.51 13.8 1.04 14.74 11.24 20.25 10.87 20.7 13.17 21.02 15.41 2.14 16.29 2.86 17.82.62 16.46-24.21 15.17-22.5 15.95-23.01 8.38-5.5 9.18-6.61 11.38-5.56 10.88 5.21 11.32 5.1 11.97 6.66l9.18 21.93c.58 1.36-.61 7.81-.6 7.73z" fill="#ffca28"/><g fill="#4dd0e1"><path d="m106.328 378.953c-10.573-7.61-25.328.066-25.328 13.093v33.454c0 11.102-6.036 20.789-15 25.977 4.414 2.554 9.534 4.023 15 4.023 16.569 0 30-13.431 30-30v-33.454c0-3.128.857-5.943 2.297-8.316-2.354-1.551-4.685-3.133-6.969-4.777z"/><path d="m229.885 417.463c-6.063.115-12.169-.039-18.241-.46-9.329-.648-17.287 6.649-17.287 16.001v41.496c0 11.102-6.036 20.789-15 25.977 4.414 2.554 9.534 4.023 15 4.023 16.569 0 30-13.431 30-30v-41.496c0-6.864 4.294-12.607 10.264-14.928-1.504-.425-3.092-.644-4.736-.613z"/><path d="m345.576 379.028c-9.489 6.824-19.585 12.857-30.191 18.003-5.532 2.685-9.051 8.284-9.051 14.433v39.986c0 11.102-6.036 20.789-15 25.977 4.414 2.554 9.534 4.023 15 4.023 16.569 0 30-13.431 30-30v-39.986c0-6.149 3.519-11.748 9.051-14.433 8.089-3.925 15.879-8.37 23.332-13.284-4.558-7.531-15.057-10.532-23.141-4.719z"/><path d="m460.933 207.224c-2.812-111.304-94.338-200.565-206.515-199.718-4.487.034-8.934.229-13.347.55 104.448 7.591 187.191 93.427 189.862 199.168l.067 184.82c0 11.102-6.036 20.789-15 25.977 4.414 2.554 9.534 4.023 15 4.023 16.569 0 30-13.431 30-30z"/></g><path d="m369.401 294.003c-10.583 17.598-9.962 17.005-11.268 17.591-13.149 5.897-13.769 5.677-14.23 7.873-1.901 9.069-1.781 8.622-1.953 9.033-8.711 20.895-8.284 21.071-10.343 21.698-13.067 3.982-6.744.103-17.181 18.415l-7.499 10.053c-5.886.93-11.856 1.607-17.91 2.022l-4.566-18.216c-.581-2.317 3.782-10.87 3.425-13.116l-6.643-41.744c-.737-4.634-13.838-5.051-15.785-8.596-9.618-17.503-9.018-16.188-9.108-17.138-1.812-19.172-2.114-18.925-1.108-20.331 8.124-11.346 7.88-10.705 7.953-11.985.714-12.451.254-13.777 2.39-14.97 7.99-4.461 9.207-5.8 11.422-4.345 3.835 2.519 3.916 2.669 4.78 2.826l19.433 3.53c.195.035.386.088.572.158 20.89 7.858 20.118 7.24 20.916 8.76 6.706 12.773 6.912 14.763 10.027 14.262 19.252-3.094 18.495-3.309 19.983-2.244 15.916 11.393 16.316 11.098 16.395 13.315.828 23.01 1.003 21.977.298 23.149z" fill="#4caf50"/><path d="m396.373 63.161-.043.119c-.01.059-.043.119-.064.19-4.76 16.118-3.677 18.817-6.855 19.708-21.907 6.143-21.283 5.662-22.221 7.026-19.291 28.047-18.21 27.795-21.184 27.102-4.416-1.474-9.086-.777-9.426-4.52-2.259-24.858-2.245-23.217-1.87-24.212l5.158-13.72c1.279-3.402-5.026-8.392-6.297-11.85l-5.905-16.069c-1.426-3.879-18.311-10.819-13.842-15.901l10.426-11.859c27.059 9.57 51.578 24.661 72.123 43.986z" fill="#f5f5f5"/><path d="m396.373 63.161-.043.119c-.01.059-.043.119-.064.19-4.76 16.118-3.677 18.817-6.855 19.708-21.907 6.143-21.283 5.662-22.221 7.026-19.291 28.047-18.21 27.795-21.184 27.102-4.416-1.474-9.086-.777-9.426-4.52-2.259-24.858-2.245-23.217-1.87-24.212l5.158-13.72c1.279-3.402-5.026-8.392-6.297-11.85l-5.905-16.069c-1.426-3.879-18.311-10.819-13.842-15.901l10.426-11.859c27.059 9.57 51.578 24.661 72.123 43.986z" fill="#f5f5f5"/><path d="m396.267 63.47c.021-.071.054-.131.064-.19l.043-.119c-20.546-19.324-45.065-34.416-72.124-43.986l-8.082 9.193c27.152 13.32 50.927 32.46 69.693 55.804 1.115-.311 2.292-.64 3.551-.993 3.178-.892 2.095-3.59 6.855-19.709z" fill="#e6e6e6"/><path d="m51 391.269c4.142 0 7.5-3.358 7.5-7.5v-169.583c0-52.237 20.187-99.959 53.103-135.589 4.273 3.446 10.08 8.154 13.749 11.13.251 2.767.571 8.62 1.283 18.867.267 3.848 4.159 11.025 5.549 15.777-5.858 16.809-4.446 11.148-6.771 24.237-.724 4.079 1.996 7.972 6.074 8.696.444.079.884.117 1.32.117 3.567 0 6.73-2.556 7.376-6.19.846-4.766 1.406-7.917 1.598-8.935l5.058-14.381c2.125-6.042-3.433-15.043-5.272-20.83-1.561-22.573-.905-24.25-5.37-27.875-3.148-2.555-9.189-7.454-13.95-11.299 15.674-14.597 33.681-26.681 53.38-35.597 13.438 5.629 21.919 9.446 27.101 11.779 16.437 7.398 13.636 5.72 30.929-6.818 6.284-1.068 10.912-1.967 13.979-2.454.932 3.227 1.793 6.096 2.297 7.938-18.754 14.97-25.652 20.239-28.715 23.032-2.661 2.427-4.386 4.858-4.153 8.839l.006.102c.72 15.332.464 15.33 1.97 18.033 11.772 21.208 12.083 23.889 18.701 24.807 14.946 2.074 20.478 4.127 25.049-2.595 6.213-9.137 13.225-19.511 14.571-21.425 1.79-1.179 4.395-2.941 5.404-3.6 2.746 1.304 5.52 2.597 6.81 3.233l8.135 19.425c-.042.604-.142 1.471-.264 2.35-4.188 1.402-12.52 3.742-28.504 9.448-4.148 1.474-5.139 4.99-6.937 11.374-1.886 6.699 3.647 12.535 7.594 18.653l-15.542 8.283c-4.543 2.422-5.728 7.288-6.593 10.84-.135.553-.313 1.285-.477 1.854-1.124.67-2.076 1.234-2.886 1.714-7.735 4.582-6.695 4.133-10.393 12.083l-17.59-.672c-2.967-.104-9.111 2.145-12.341 6.078-2.243 2.731-3.049 6.039-2.271 9.312 4.13 17.362 4.941 19.623 6.532 21.156 5.352 6.967 9.225 11.137 10.852 13.224-.306.842-.811 2.081-1.226 3.115l-13.66-6.659c-2.275-1.108-11.958-2.391-17.876-3.54-14.99-28.114-15.124-28.382-16.468-29.469-11.34-9.303-18.295-14.864-22.452-18.187-2.11-1.687-3.795-3.034-4.742-3.829-1.103-3.977-5.218-6.32-9.201-5.229-3.996 1.09-6.352 5.213-5.261 9.209 2.453 6.872-2.285 1.416 31.052 28.738 1.801 3.301 7.403 13.759 14.776 27.587 3.016 5.657 6.224 5.309 24.133 8.462 16.406 7.654 19.737 11.211 25.97 8.72 5.161-2.063 6.001-6.117 7.881-10.792 4.016-9.984 2.834-12.854-3.967-20.793-1.884-2.199-4.427-5.167-7.742-9.47-.451-1.45-1.469-5.188-3.26-12.593l18.93.724c8.125.31 10.528-6.658 13.319-12.686 10.612-6.486 9.987-4.515 13.432-16.413l17.879-9.529c2.714-1.446 4.588-3.823 5.278-6.693 1.886-7.849-5.824-15.233-8.805-20.649.098-.333.19-.639.275-.918 27.233-9.571 33.441-8.692 34.734-17.818 1.164-4.278.906-9.79.1-11.714l-9.182-21.924c-1.636-3.903-3.807-4.927-10.251-7.964-9.365-4.417-10.288-5.779-20.238.896-7.123 4.78-3.842 1.039-20.505 25.555-2.009-.26-5.802-.847-9.996-1.443-1.498-2.564-4.321-7.873-9.196-16.669-.09-1.465-.234-5.035-.471-10.186 3.441-2.929 11.771-9.379 29.261-23.356 5.762-4.604 4.236-9.812 1.708-18.44-.564-1.927-1.25-4.265-2.053-7.119-1.357-4.819-4.885-7.568-9.934-7.74-2.674-.09-5.917.494-11.806 1.556-14.555 2.628-9.219.289-24.939 11.811-2.672-1.129-9.37-4.234-18.736-8.307 18.576-6.049 38.338-9.387 58.824-9.541 19.434-.155 38.472 2.527 56.613 7.781l-2.897 3.295c-1.99 2.264-2.894 5.11-2.544 8.014.971 8.065 10.927 12.588 15.327 16.373l5.557 15.122c1.229 3.345 3.87 6.028 5.61 8.502l-4.427 11.776c-1.152 2.78-.927 2.018 1.397 27.596.817 8.986 9.078 9.599 15.308 11.173 4.136.976 7.455-.176 10.448-3.589 2.549-2.908 6.257-8.764 17.657-25.362 22.452-6.8 24.421-3.733 27.672-17.633.033-.143.067-.288.102-.436 7.312 7.833 14.046 16.318 20.112 25.411 2.299 3.445 6.957 4.376 10.401 2.076 3.446-2.299 4.375-6.956 2.076-10.401-39.762-59.597-106.319-95.225-178.527-94.702-56.495.427-109.53 23.006-149.334 63.578-39.677 40.441-61.527 93.926-61.527 150.602v169.583c0 4.142 3.358 7.5 7.5 7.5zm334.126-314.679c-3.707 1.036-6.691 1.861-9.1 2.527-11.786 3.258-12.749 3.524-15.015 6.836-4.041 5.875-7.189 10.51-9.67 14.163-2.697 3.971-4.897 7.21-6.329 9.195-.434-.089-.849-.167-1.239-.24-.944-10.337-1.553-16.697-1.705-18.758l4.819-12.82c2.95-7.847-4.864-14.473-6.316-17.183l-5.866-15.963c-1.789-4.868-7.262-7.497-12.471-11.522l4.282-4.871c22.52 8.595 43.332 21.282 61.385 37.501-1.099 3.996-1.804 7.01-2.312 9.181-.152.653-.313 1.344-.463 1.954z"/><path d="m468.433 207.221c0-.062-.001-.124-.002-.187-.734-29.075-7.243-57.13-19.343-83.385-1.734-3.761-6.188-5.406-9.951-3.672-3.762 1.734-5.406 6.189-3.672 9.951 11.229 24.363 17.274 50.401 17.969 77.392l.067 184.725c0 12.407-10.093 22.5-22.5 22.5s-22.5-10.093-22.5-22.5c0-19.179-21.731-30.304-37.303-19.104-9.165 6.591-18.951 12.427-29.086 17.345-8.065 3.914-13.277 12.228-13.277 21.181v39.985c0 12.407-10.093 22.5-22.5 22.5s-22.5-10.093-22.5-22.5v-17.946c0-13.178-10.83-23.804-24.09-23.54-5.838.11-11.752-.04-17.581-.444-13.582-.946-25.307 9.726-25.307 23.482v41.496c0 12.407-10.093 22.5-22.5 22.5-12.406 0-22.5-10.093-22.5-22.5v-68.941c0-8.517-4.626-16.393-12.072-20.554-6.558-3.664-12.975-7.748-19.075-12.139-7.158-5.151-16.493-5.848-24.363-1.814-7.924 4.06-12.846 12.104-12.846 20.994v33.454c0 12.407-10.093 22.5-22.5 22.5s-22.5-10.093-22.5-22.5v-10.039c0-4.142-3.358-7.5-7.5-7.5s-7.5 3.358-7.5 7.5v10.039c0 20.678 16.822 37.5 37.5 37.5s37.5-16.822 37.5-37.5v-33.454c0-3.283 1.751-6.141 4.686-7.645 2.881-1.475 6.156-1.235 8.761.639 6.562 4.723 13.466 9.117 20.52 13.059 2.708 1.513 4.39 4.371 4.39 7.459v68.942c0 20.678 16.822 37.5 37.5 37.5 20.677 0 37.5-16.822 37.5-37.5v-41.497c0-4.966 4.227-8.868 9.269-8.519 6.267.435 12.625.596 18.902.477 4.847-.078 8.807 3.728 8.807 8.542v17.946c0 20.678 16.822 37.5 37.5 37.5s37.5-16.822 37.5-37.5v-39.985c0-3.246 1.894-6.263 4.825-7.686 10.906-5.292 21.436-11.571 31.296-18.662 5.667-4.073 13.545-.061 13.545 6.927 0 20.678 16.822 37.5 37.5 37.5s37.5-16.822 37.5-37.503z"/><path d="m277.178 364.297 4.566 18.216c.841 3.355 3.855 5.677 7.271 5.676.172 0 .345-.006.519-.018 6.214-.427 12.46-1.132 18.565-2.097 1.934-.305 3.671-1.355 4.842-2.924 10.513-14.137 7.054-8.538 14.771-24.006 12.756-3.96 9.571.048 21.163-27.763.44-1.04.351-.716 1.943-8.337 16.387-7.548 10.984-1.852 25.011-25.176 1.611-3.103 1.73-2.092 1.223-15.224-.117-3.023-.268-6.947-.452-12.059-.196-5.463-2.576-7.144-11.43-13.396-13.615-9.613-8.799-8.842-30.737-5.279-.664-1.251-3.35-6.554-5.132-9.948-1.888-3.652-3.062-4.089-14.289-8.264-14.572-5.417-7.245-3.534-31.074-7.855-8.709-5.71-9.374-4.858-22.019 2.201-6.205 3.464-5.54 8.596-6.155 19.899-.913 1.307-3.199 4.446-6.631 9.239-2.426 3.39-2.269 4.978-1.242 15.311 1.51 15.19-.678 8.914 10.984 30.135 2.341 4.26 7.063 5.709 11.63 7.112 1.046.321 2.582.792 3.665 1.215l6.146 38.621c-1.273 4.476-4.329 9.971-3.138 14.721zm57.773-38.497c.033-.087.058-.14.078-.186-.027.063-.053.124-.078.186zm-60.042-30.399c-1.091-.335-2.617-.803-3.535-1.174-2.708-4.927-6.793-12.305-7.648-13.913-.613-6.454-1.336-13.389-1.505-15.641 7.444-10.375 8.259-11.002 8.453-14.679.257-4.476.379-7.917.511-9.953 1.324-.755 2.811-1.622 3.762-2.158 5.496 3.639 3.083 1.659 24.551 6.034 7.481 2.813 15.178 5.644 17.288 6.483 5.534 10.642 8.019 18.263 17.131 16.79 6.483-1.042 13.532-2.237 15.806-2.565 5.043 3.6 10.197 7.2 11.96 8.51.35 9.596.619 15.818.656 18.063-4.293 7.145-7.361 12.337-8.456 14.083-18.291 8.16-15.86 6.207-19.005 20.699-3.125 7.501-6.149 15.004-7.295 17.593-8.626 2.508-10.507 2.932-14.244 10.86-6.563 13.925-7.409 12.276-10.575 17.275-2.656.377-5.334.701-8.02.971l-2.731-10.895c1.154-4.154 3.955-9.313 3.272-13.605l-6.643-41.745c-1.142-7.168-8.419-9.402-13.733-11.033z"/></svg>