<svg height="512pt" viewBox="0 0 512 512" width="512pt" xmlns="http://www.w3.org/2000/svg"><path d="m164.46875 252.347656c0-17.417968-13.78125-31.539062-30.785156-31.539062-.667969 0-1.332032.023437-1.992188.066406-3.78125.253906-7.183594-2.085938-8.394531-5.679688-5.996094-17.765624-22.460937-30.53125-41.839844-30.53125-24.453125 0-44.273437 20.308594-44.273437 45.359376v.027343c-12.25.417969-22.683594 8.160157-27.257813 19.09375-2.261719 5.398438 1.785157 11.355469 7.636719 11.355469h138.660156c4.484375 0 8.234375-3.582031 8.246094-8.066406 0-.027344 0-.054688 0-.085938zm0 0" fill="#cbe6f7"/><path d="m179.234375 183.003906 78.640625-168.078125c4.640625-9.914062 18.421875-9.898437 23.035156.027344l78.160156 168.050781-86.109374 197.996094zm0 0" fill="#ab632e"/><path d="m280.910156 14.953125c-4.613281-9.925781-18.394531-9.941406-23.035156-.027344l-10.519531 22.484375 89.605469 198.589844 22.109374-52.996094zm0 0" fill="#995929"/><path d="m49.460938 328.5 111.984374-239.480469c4.640626-9.914062 18.421876-9.898437 23.035157.027344l110.980469 238.453125zm0 0" fill="#de9252"/><path d="m184.480469 89.046875c-4.613281-9.925781-18.394531-9.941406-23.035157-.027344l-13.519531 28.910157 97.535157 209.570312-195.902344.796875-.097656.203125 246-1zm0 0" fill="#d9833b"/><path d="m267.960938 324 82.945312-177.238281c4.640625-9.914063 18.421875-9.894531 23.035156.027343l84.019532 179.210938zm0 0" fill="#de9252"/><path d="m373.941406 146.789062c-4.613281-9.921874-18.394531-9.9375-23.035156-.027343l-10.519531 22.484375 73.574219 160.753906h46zm0 0" fill="#d9833b"/><path d="m157.816406 172.988281c5.433594 3.050781 8.808594 8.890625 8.808594 15.238281v18.660157c0 9.59375 7.59375 17.371093 16.957031 17.371093s16.953125-7.777343 16.953125-17.371093v-24.109375c0-5.808594 2.832032-11.230469 7.550782-14.453125l10.269531-6.492188-33.875-72.785156c-4.613281-9.925781-18.394531-9.941406-23.035157-.027344l-31.859374 68.132813.523437.292968zm0 0" fill="#f0f0f0"/><path d="m237.914062 100.257812c2.757813 2.371094 4.355469 5.871094 4.355469 9.558594v27.585938c0 9.59375 7.589844 17.371094 16.953125 17.371094 9.363282 0 16.953125-7.777344 16.953125-17.371094v-13.808594c0-6.886719 5.449219-12.46875 12.171875-12.46875 13.445313 0 24.34375-11.167969 24.34375-24.941406v-2.894532l-31.78125-68.335937c-4.613281-9.925781-18.398437-9.941406-23.035156-.027344l-34.1875 73.0625 2.496094 2.199219zm0 0" fill="#f0f0f0"/><path d="m288.347656 111.121094c13.445313 0 24.347656-11.164063 24.347656-24.941406v-2.890626l-31.785156-68.335937c-4.613281-9.925781-18.394531-9.941406-23.035156-.027344l-10.519531 22.484375 34.214843 75.824219c1.9375-1.332031 4.269532-2.113281 6.777344-2.113281zm0 0" fill="#e8e8e8"/><path d="m334.058594 210.445312c8.507812 0 16.589844-3.824218 22.109375-10.464843 5.515625-6.640625 13.597656-10.46875 22.105469-10.46875h15.539062l-19.871094-42.722657c-4.617187-9.921874-18.398437-9.9375-23.035156-.027343l-29.796875 63.683593zm0 0" fill="#f0f0f0"/><path d="m378.277344 189.511719h15.535156l-19.871094-42.722657c-4.613281-9.921874-18.394531-9.9375-23.035156-.027343l-9.96875 21.308593 14.636719 32.582032c.199219-.222656.402343-.441406.59375-.671875 5.515625-6.640625 13.597656-10.46875 22.109375-10.46875zm0 0" fill="#e8e8e8"/><path d="m184.480469 89.046875c-4.613281-9.925781-18.394531-9.941406-23.035157-.027344l-12.078124 25.824219 45.96875 104.539062c3.199218-3.160156 5.199218-7.585937 5.199218-12.5v-24.105468c0-5.808594 2.832032-11.234375 7.550782-14.453125l10.269531-6.492188zm0 0" fill="#e8e8e8"/><path d="m18.367188 316.714844h474.921874v1.714844c-28.449218 107.230468-123.925781 186.070312-237.328124 186.070312-113.761719 0-209.484376-79.339844-237.59375-187.09375zm0 0" fill="#97c9e8"/><path d="m438.289062 316.714844v1.714844c-26.113281 98.441406-108.722656 172.941406-209.828124 184.5 9.03125 1.03125 18.203124 1.570312 27.503906 1.570312 113.398437 0 208.878906-78.839844 237.324218-186.070312v-1.714844zm0 0" fill="#60b6ff"/><g fill="#baeb6c"><path d="m92.566406 366.167969c-6.28125-9.820313.515625-26.972657 9.054688-45.6875l1.652344-3.765625h-84.90625v.691406c14.582031 55.90625 47.375 104.160156 91.441406 137.65625l.515625-4.96875s9.476562-41.355469-17.757813-83.925781zm0 0"/><path d="m410.320312 393.1875c-43.722656-16.289062-33.125 59.726562-115.269531 38.007812-36.015625-9.519531-38.425781 54.300782-39.75 70.589844l-.28125 2.703125c.316407.003907.628907.011719.945313.011719 79.136718 0 149.539062-38.402344 194.527344-98.050781l-1.085938-.367188c-.003906 0 4.636719 3.394531-39.085938-12.894531zm0 0"/><path d="m436.757812 423.078125c-.046874.054687-.097656.109375-.148437.164063.050781-.054688.101563-.109376.148437-.164063zm0 0"/></g><path d="m410.320312 393.199219c-1.589843-.59375-3.097656-1.046875-4.550781-1.40625-34.402343 53.023437-87.796875 91.921875-150.203125 106.453125-.097656 1.347656-.183594 2.539062-.265625 3.550781l-.28125 2.699219c75.144531.292968 151.445313-36.390625 195.472657-98.03125l-1.085938-.371094c-.003906 0 4.636719 3.394531-39.085938-12.894531zm0 0" fill="#96d629"/><path d="m495.441406 75.1875c0-17.421875-13.78125-31.539062-30.785156-31.539062-.667969 0-1.332031.019531-1.992188.066406-3.78125.25-7.183593-2.089844-8.394531-5.679688-5.996093-17.769531-22.457031-30.535156-41.839843-30.535156-24.453126 0-44.273438 20.308594-44.273438 45.359375v.027344c-12.25.417969-22.683594 8.160156-27.257812 19.09375-2.261719 5.398437 1.785156 11.355469 7.640624 11.355469h138.65625c4.484376 0 8.234376-3.582032 8.246094-8.066407 0-.027343 0-.054687 0-.082031zm0 0" fill="#cbe6f7"/><path d="m380.863281 255.933594c0-13.710938 10.851563-24.828125 24.234375-24.828125.507813 0 1.011719.015625 1.507813.046875 2.976562.191406 5.707031-1.601563 6.660156-4.429688 4.707031-14.007812 17.675781-24.070312 32.949219-24.070312 19.246094 0 34.851562 15.984375 34.851562 35.707031v.019531c9.632813.328125 17.839844 6.414063 21.449219 15.007813 1.789063 4.261719-1.425781 8.964843-6.050781 8.964843h-109.082032c-3.535156 0-6.507812-2.816406-6.519531-6.351562 0-.023438 0-.042969 0-.066406zm0 0" fill="#cbe6f7"/><path d="m117.460938 57.5c0 23.195312-18.804688 42-42 42-23.195313 0-42-18.804688-42-42s18.804687-42 42-42c23.195312 0 42 18.804688 42 42zm0 0" fill="#ffe469"/><path d="m348.539062 90.835938h138.65625c8.660157 0 15.722657-6.972657 15.746094-15.542969 0-.042969 0-.085938 0-.109375 0-21.523438-17.175781-39.039063-38.285156-39.039063-.832031 0-1.667969.03125-2.488281.085938-.433594.019531-.691407-.289063-.792969-.59375-7.191406-21.316407-26.859375-35.636719-48.945312-35.636719-26.363282 0-48.183594 20.21875-51.371094 46.265625-11.953125 2.667969-22.179688 11.113281-27.078125 22.820313-2.023438 4.832031-1.492188 10.332031 1.417969 14.707031 2.9375 4.410156 7.847656 7.042969 13.140624 7.042969zm19.871094-30.453126c4.042969-.136718 7.246094-3.453124 7.246094-7.496093 0-.027344 0-.050781 0-.082031.027344-20.851563 16.515625-37.804688 36.773438-37.804688 15.640624 0 29.601562 10.21875 34.730468 25.429688 2.300782 6.8125 8.886719 11.234374 16.003906 10.765624.492188-.03125.992188-.046874 1.492188-.046874 12.839844 0 23.285156 10.78125 23.285156 24.039062v.066406c0 .300782-.363281.582032-.746094.582032h-138.65625c-.105468 0-.414062 0-.652343-.351563-.199219-.300781-.113281-.507813-.070313-.605469 3.558594-8.503906 11.640625-14.191406 20.59375-14.496094zm0 0"/><path d="m510.875 250.484375c-3.914062-9.324219-11.914062-16.144531-21.339844-18.613281-3.074218-20.757813-20.683594-36.722656-41.875-36.722656-13.945312 0-26.707031 6.96875-34.511718 18.15625l-32.40625-69.675782c-6.140626-13.207031-24.402344-15.875-33.804688-4.496094l-59.222656-127.34375c-3.378906-7.261718-10.394532-11.7812495-18.304688-11.789062-.007812 0-.015625 0-.023437 0-7.902344 0-14.914063 4.5-18.304688 11.746094l-6.117187 13.074218c-4.089844 8.738282 9.523437 15.042969 13.585937 6.359376l6.117188-13.078126c1.3125-2.796874 3.730469-3.101562 4.71875-3.101562h.003906c.984375 0 3.414063.304688 4.71875 3.113281l31.082031 66.832031c.375 9.628907-6.796875 18.675782-16.84375 18.675782-10.847656 0-19.671875 8.960937-19.671875 19.972656v13.804688c0 12.636718-18.90625 12.660156-18.90625 0v-27.582032c0-5.890625-2.542969-11.449218-6.972656-15.25l-9.917969-8.515625 9.296875-19.875c4.082031-8.722656-9.5-15.089843-13.585937-6.355469l-24.828125 53.0625-12.480469-27c-7.15625-15.386718-29.433594-15.421874-36.628906-.042968l-46.746094 99.910156c-8.222656-5.476562-17.988281-8.585938-28.277344-8.585938-26.359375 0-48.183594 20.21875-51.371094 46.265626-11.949218 2.667968-22.179687 11.113281-27.078124 22.820312-4.265626 10.1875 3.597656 21.75 14.558593 21.75h53.683594l-19.28125 41.214844h-31.773437c-5.261719 0-8.515626 5.265625-7.257813 10.082031 29.597656 113.460937 130.285156 192.703125 244.851563 192.703125 32.417968 0 63.988281-6.195312 93.84375-18.414062 8.910156-3.648438 3.242187-17.539063-5.683594-13.882813-25.820313 10.566406-53.011719 16.324219-80.933594 17.175781 1.105469-14.730468 4.105469-47.316406 17.308594-56.738281 3.511718-2.503906 7.527344-3.042969 12.632812-1.695313 51.285156 13.5625 70.675782-8.84375 84.839844-25.203124 10.9375-12.640626 16.339844-18.015626 29.730469-13.027344 12.957031 4.828125 22.929687 8.398437 29.746093 10.648437-16.953124 20.453125-36.882812 37.789063-59.410156 51.617188-8.21875 5.046875-.332031 17.808593 7.851563 12.785156 27.824219-17.082031 51.921875-39.175781 71.628906-65.664063 19.949219-26.8125 34.425781-56.839843 43.023437-89.25 1.34375-5.0625-1.402343-11.136718-7.25-11.136718h-35.535156l-18.308594-39.367188h58.464844c9.761719.003906 16.761719-10.320312 12.964844-19.363281zm-160.476562-55.296875c-4.097657 4.929688-10.050782 7.757812-16.339844 7.757812h-1.15625l24.800781-53.003906c1.917969-4.101562 7.53125-4.09375 9.441406.011719l14.910157 32.0625c-12.257813-.199219-23.582032 3.453125-31.65625 13.171875zm39.445312 59.664062c.539062-9.054687 7.824219-16.246093 16.699219-16.246093 6.742187 0 12.957031-2.589844 15.273437-9.492188 3.816406-11.34375 14.199219-18.964843 25.839844-18.964843 15.054688 0 27.308594 12.609374 27.355469 28.121093v.109375c0 4.042969 3.203125 7.359375 7.242187 7.496094 5.902344.199219 11.28125 3.671875 14.105469 8.976562zm-156.816406-148.902343c1.105468.949219 1.742187 2.359375 1.742187 3.867187v27.585938c0 31.980468 48.90625 32.054687 48.90625 0v-13.808594c0-2.738281 2.097657-4.96875 4.671875-4.96875 7.910156 0 15.148438-2.960938 20.722656-7.839844 2.015626-1.765625 3.8125-3.78125 5.347657-6.003906l19.449219 41.824219 4.402343 9.46875-23.277343 49.75c-2.382813 5.09375.769531 12.125 6.828124 12.125 15.128907 0 29.492188-.386719 40.113282-13.175781 7.109375-8.554688 17.128906-7.757813 27.09375-7.757813l12.554687 26.988281c-13.976562 2.246094-24.941406 13.8125-26.558593 28.234375-1.65625 14.730469 9.824218 17.613281 21.679687 17.613281h26.199219l18.308594 39.363282h-158.03125l30.429687-65.035156c4.082031-8.722657-9.5-15.09375-13.585937-6.359376l-19.367188 41.390626-68.664062-148.523438 14.285156-30.53125zm-217.9375 146.695312c-.199219-.296875-.113282-.503906-.074219-.605469 3.558594-8.5 11.644531-14.1875 20.597656-14.492187 4.039063-.136719 7.246094-3.453125 7.246094-7.496094 0-.027343 0-.054687 0-.082031.027344-20.851562 16.511719-37.804688 36.773437-37.804688 8.039063 0 15.632813 2.703126 21.8125 7.394532l-25.003906 53.441406h-60.703125c-.101562 0-.414062 0-.648437-.355469zm157.867187-163.550781c2.070313 0 3.839844 1.207031 4.71875 3.097656l30.855469 66.746094c-8.582031 5.859375-15.496094 12.554688-15.496094 23.839844v24.109375c0 12.632812-18.910156 12.652343-18.910156 0v-18.660157c0-9.058593-4.84375-17.402343-12.640625-21.777343l-22.167969-12.4375 28.921875-61.816407c1.3125-2.800781 3.734375-3.101562 4.71875-3.101562zm-40.015625 78.542969 21.203125 11.894531c3.074219 1.722656 4.980469 5.054688 4.980469 8.695312v18.65625c0 31.984376 48.910156 32.054688 48.910156 0v-24.109374c0-4.75 3.152344-7.738282 6.875-10.03125l56.601563 122.429687.832031 1.804687-5.726562 12.238282h-199.917969zm-104.867187 156.578125h63.664062c-7.753906 17.804687-12.933593 34.359375-5.488281 45.996094 18.433594 28.816406 18.871094 57.296874 17.777344 70.53125-35.078125-29.777344-61.964844-69.855469-75.953125-116.527344zm419.164062 74.015625c-3.878906-1.140625-13.035156-4.148438-34.300781-12.070313-23.71875-8.835937-35.71875 5.03125-46.308594 17.265625-13.484375 15.578125-27.429687 31.6875-69.664062 20.519531-9.351563-2.472656-18.0625-1.09375-25.179688 3.984376-17.066406 12.179687-21.578125 41.53125-23.636718 68.925781-47.976563-1.609375-93.074219-17.988281-130.457032-45.335938.855469-3.960937 9-45.925781-18.808594-89.390625-4.597656-7.1875 4.242188-26.871094 9.277344-37.914062h375.6875c-7.992187 26.660156-20.28125 51.511718-36.609375 74.015625zm0 0"/><path d="m75.460938 107c27.296874 0 49.5-22.207031 49.5-49.5s-22.203126-49.5-49.5-49.5c-27.292969 0-49.5 22.207031-49.5 49.5s22.207031 49.5 49.5 49.5zm0-84c19.023437 0 34.5 15.476562 34.5 34.5s-15.476563 34.5-34.5 34.5c-19.023438 0-34.5-15.476562-34.5-34.5s15.476562-34.5 34.5-34.5zm0 0"/></svg>