<svg xmlns="http://www.w3.org/2000/svg" width="411" height="41" viewBox="0 0 411 41">
  <g fill="none" fill-rule="evenodd">
    <path fill="#C7B500" fill-rule="nonzero" d="M2.8457786,26 L2.8457786,21.4856361 L7.13701913,21.4856361 L7.13701913,19.9582763 L2.8457786,19.9582763 L2.8457786,16.5198358 L7.42517866,16.5198358 L7.42517866,15 L1,15 L1,26 L2.8457786,26 Z M11.9200223,26 L11.9200223,15 L10.0586675,15 L10.0586675,26 L11.9200223,26 Z M27,19.747606 L27,18.4008208 L19.5000642,18.4008208 L19.5000642,19.747606 L27,19.747606 Z M27,22.749658 L27,21.4103967 L19.5000642,21.4103967 L19.5000642,22.749658 L27,22.749658 Z"/>
    <g transform="translate(49)">
      <path fill="#C7B500" fill-rule="nonzero" d="M17.0253906,15 L17.0253906,13.5986328 L12.7939453,13.5986328 L12.7939453,5.00585938 L11.1601562,5.00585938 L11.1601562,15 L17.0253906,15 Z M20.9091797,15.1367188 C21.4879557,15.1367188 21.9619141,15.0535482 22.3310547,14.887207 C22.7001953,14.7208659 23.0670573,14.4075521 23.4316406,13.9472656 L23.4316406,13.9472656 L23.4863281,13.9472656 L23.8076172,15 L24.9560547,15 L24.9560547,9.90722656 C24.9560547,9.0094401 24.7111003,8.35091146 24.2211914,7.93164062 C23.7312826,7.51236979 23.0055339,7.30273438 22.0439453,7.30273438 C21.6110026,7.30273438 21.1507161,7.3585612 20.6630859,7.47021484 C20.1754557,7.58186849 19.7265625,7.74479167 19.3164062,7.95898438 L19.3164062,7.95898438 L19.8359375,9.10742188 C20.1640625,8.95247396 20.5058594,8.81803385 20.8613281,8.70410156 C21.2167969,8.59016927 21.5882161,8.53320312 21.9755859,8.53320312 C22.4495443,8.53320312 22.7993164,8.65283203 23.0249023,8.89208984 C23.2504883,9.13134766 23.3632812,9.49251302 23.3632812,9.97558594 L23.3632812,9.97558594 L23.3632812,10.3789062 L22.0576172,10.4199219 C20.8727214,10.4563802 19.9908854,10.6728516 19.4121094,11.0693359 C18.8333333,11.4658203 18.5439453,12.0537109 18.5439453,12.8330078 C18.5439453,13.5667318 18.7524414,14.1341146 19.1694336,14.5351562 C19.5864258,14.9361979 20.1663411,15.1367188 20.9091797,15.1367188 Z M21.4150391,13.90625 C21.0139974,13.90625 20.7132161,13.8139648 20.5126953,13.6293945 C20.3121745,13.4448242 20.2119141,13.1839193 20.2119141,12.8466797 C20.2119141,12.3818359 20.3839518,12.0366211 20.7280273,11.8110352 C21.0721029,11.5854492 21.6223958,11.4589844 22.3789062,11.4316406 L22.3789062,11.4316406 L23.3496094,11.390625 L23.3496094,12.046875 C23.3496094,12.6347656 23.1730143,13.0916341 22.8198242,13.4174805 C22.4666341,13.7433268 21.9983724,13.90625 21.4150391,13.90625 Z M29.3046875,15 L29.3046875,11.2333984 C29.3046875,10.2900391 29.4619141,9.61783854 29.7763672,9.21679688 C30.0908203,8.81575521 30.5875651,8.61523438 31.2666016,8.61523438 C31.7770182,8.61523438 32.1495768,8.75878906 32.3842773,9.04589844 C32.6189779,9.33300781 32.7363281,9.76822917 32.7363281,10.3515625 L32.7363281,10.3515625 L32.7363281,15 L34.3496094,15 L34.3496094,10.0712891 C34.3496094,8.22558594 33.4427083,7.30273438 31.6289062,7.30273438 C31.1184896,7.30273438 30.6536458,7.40071615 30.234375,7.59667969 C29.8151042,7.79264323 29.4915365,8.07063802 29.2636719,8.43066406 L29.2636719,8.43066406 L29.1816406,8.43066406 L28.9560547,7.43945312 L27.6982422,7.43945312 L27.6982422,15 L29.3046875,15 Z M39.6347656,15.1367188 C40.6282552,15.1367188 41.382487,14.7607422 41.8974609,14.0087891 L41.8974609,14.0087891 L41.9726562,14.0087891 L42.2529297,15 L43.5107422,15 L43.5107422,4.36328125 L41.8974609,4.36328125 L41.8974609,7.11816406 C41.8974609,7.43261719 41.9361979,7.8610026 42.0136719,8.40332031 L42.0136719,8.40332031 L41.9316406,8.40332031 C41.4121094,7.66959635 40.655599,7.30273438 39.6621094,7.30273438 C38.7141927,7.30273438 37.9724935,7.64794922 37.4370117,8.33837891 C36.9015299,9.02880859 36.6337891,9.9938151 36.6337891,11.2333984 C36.6337891,12.4684245 36.898112,13.4277344 37.4267578,14.1113281 C37.9554036,14.7949219 38.6914062,15.1367188 39.6347656,15.1367188 Z M40.0654297,13.8378906 C39.4729818,13.8378906 39.0286458,13.6180013 38.7324219,13.1782227 C38.4361979,12.738444 38.2880859,12.0992839 38.2880859,11.2607422 C38.2880859,10.4130859 38.4407552,9.76025391 38.7460938,9.30224609 C39.0514323,8.84423828 39.4866536,8.61523438 40.0517578,8.61523438 C40.7125651,8.61523438 41.1979167,8.81575521 41.5078125,9.21679688 C41.8177083,9.61783854 41.9726562,10.2945964 41.9726562,11.2470703 L41.9726562,11.2470703 L41.9726562,11.4726562 C41.9635417,12.3066406 41.8085938,12.9093424 41.5078125,13.2807617 C41.2070312,13.652181 40.726237,13.8378906 40.0654297,13.8378906 Z"/>
      <g fill="#C7B500" fill-rule="nonzero" transform="translate(0 20)">
        <path d="M8.36621094 15L8.36621094 13.5986328 4.13476562 13.5986328 4.13476562 5.00585938 2.50097656 5.00585938 2.50097656 15 8.36621094 15zM12.25 15.1367188C12.828776 15.1367188 13.3027344 15.0535482 13.671875 14.887207 14.0410156 14.7208659 14.4078776 14.4075521 14.7724609 13.9472656L14.7724609 13.9472656 14.8271484 13.9472656 15.1484375 15 16.296875 15 16.296875 9.90722656C16.296875 9.0094401 16.0519206 8.35091146 15.5620117 7.93164062 15.0721029 7.51236979 14.3463542 7.30273438 13.3847656 7.30273438 12.9518229 7.30273438 12.4915365 7.3585612 12.0039062 7.47021484 11.516276 7.58186849 11.0673828 7.74479167 10.6572266 7.95898438L10.6572266 7.95898438 11.1767578 9.10742188C11.5048828 8.95247396 11.8466797 8.81803385 12.2021484 8.70410156 12.5576172 8.59016927 12.9290365 8.53320312 13.3164062 8.53320312 13.7903646 8.53320312 14.1401367 8.65283203 14.3657227 8.89208984 14.5913086 9.13134766 14.7041016 9.49251302 14.7041016 9.97558594L14.7041016 9.97558594 14.7041016 10.3789062 13.3984375 10.4199219C12.2135417 10.4563802 11.3317057 10.6728516 10.7529297 11.0693359 10.1741536 11.4658203 9.88476562 12.0537109 9.88476562 12.8330078 9.88476562 13.5667318 10.0932617 14.1341146 10.5102539 14.5351562 10.9272461 14.9361979 11.5071615 15.1367188 12.25 15.1367188zM12.7558594 13.90625C12.3548177 13.90625 12.0540365 13.8139648 11.8535156 13.6293945 11.6529948 13.4448242 11.5527344 13.1839193 11.5527344 12.8466797 11.5527344 12.3818359 11.7247721 12.0366211 12.0688477 11.8110352 12.4129232 11.5854492 12.9632161 11.4589844 13.7197266 11.4316406L13.7197266 11.4316406 14.6904297 11.390625 14.6904297 12.046875C14.6904297 12.6347656 14.5138346 13.0916341 14.1606445 13.4174805 13.8074544 13.7433268 13.3391927 13.90625 12.7558594 13.90625zM20.6455078 15L20.6455078 11.2333984C20.6455078 10.2900391 20.8027344 9.61783854 21.1171875 9.21679688 21.4316406 8.81575521 21.9283854 8.61523438 22.6074219 8.61523438 23.1178385 8.61523438 23.4903971 8.75878906 23.7250977 9.04589844 23.9597982 9.33300781 24.0771484 9.76822917 24.0771484 10.3515625L24.0771484 10.3515625 24.0771484 15 25.6904297 15 25.6904297 10.0712891C25.6904297 8.22558594 24.7835286 7.30273438 22.9697266 7.30273438 22.4593099 7.30273438 21.9944661 7.40071615 21.5751953 7.59667969 21.1559245 7.79264323 20.8323568 8.07063802 20.6044922 8.43066406L20.6044922 8.43066406 20.5224609 8.43066406 20.296875 7.43945312 19.0390625 7.43945312 19.0390625 15 20.6455078 15zM30.9755859 15.1367188C31.9690755 15.1367188 32.7233073 14.7607422 33.2382812 14.0087891L33.2382812 14.0087891 33.3134766 14.0087891 33.59375 15 34.8515625 15 34.8515625 4.36328125 33.2382812 4.36328125 33.2382812 7.11816406C33.2382812 7.43261719 33.2770182 7.8610026 33.3544922 8.40332031L33.3544922 8.40332031 33.2724609 8.40332031C32.7529297 7.66959635 31.9964193 7.30273438 31.0029297 7.30273438 30.055013 7.30273438 29.3133138 7.64794922 28.777832 8.33837891 28.2423503 9.02880859 27.9746094 9.9938151 27.9746094 11.2333984 27.9746094 12.4684245 28.2389323 13.4277344 28.7675781 14.1113281 29.296224 14.7949219 30.0322266 15.1367188 30.9755859 15.1367188zM31.40625 13.8378906C30.8138021 13.8378906 30.3694661 13.6180013 30.0732422 13.1782227 29.7770182 12.738444 29.6289062 12.0992839 29.6289062 11.2607422 29.6289062 10.4130859 29.7815755 9.76025391 30.0869141 9.30224609 30.3922526 8.84423828 30.827474 8.61523438 31.3925781 8.61523438 32.0533854 8.61523438 32.538737 8.81575521 32.8486328 9.21679688 33.1585286 9.61783854 33.3134766 10.2945964 33.3134766 11.2470703L33.3134766 11.2470703 33.3134766 11.4726562C33.304362 12.3066406 33.1494141 12.9093424 32.8486328 13.2807617 32.5478516 13.652181 32.0670573 13.8378906 31.40625 13.8378906zM38.0742188 19L38.0742188 16.8476562C38.0742188 16.3111979 38.156901 15.9277344 38.3222656 15.6972656 38.4876302 15.4667969 38.7473958 15.3515625 39.1015625 15.3515625 39.3671875 15.3515625 39.5625 15.4329427 39.6875 15.5957031 39.8125 15.7584635 39.875 16.0052083 39.875 16.3359375L39.875 16.3359375 39.875 19 40.796875 19 40.796875 16.7109375C40.796875 16.25 40.8795573 15.9082031 41.0449219 15.6855469 41.2102865 15.4628906 41.4713542 15.3515625 41.828125 15.3515625 42.09375 15.3515625 42.2897135 15.4329427 42.4160156 15.5957031 42.5423177 15.7584635 42.6054688 16.0052083 42.6054688 16.3359375L42.6054688 16.3359375 42.6054688 19 43.5234375 19 43.5234375 16.1835938C43.5234375 15.6497396 43.405599 15.2526042 43.1699219 14.9921875 42.9342448 14.7317708 42.5585938 14.6015625 42.0429688 14.6015625 41.7434896 14.6015625 41.4778646 14.6614583 41.2460938 14.78125 41.0143229 14.9010417 40.8346354 15.0677083 40.7070312 15.28125L40.7070312 15.28125 40.6445312 15.28125C40.4283854 14.828125 39.9882812 14.6015625 39.3242188 14.6015625 39.0507812 14.6015625 38.8001302 14.6575521 38.5722656 14.7695312 38.344401 14.8815104 38.1705729 15.0403646 38.0507812 15.2460938L38.0507812 15.2460938 38.0039062 15.2460938 37.875 14.6796875 37.15625 14.6796875 37.15625 19 38.0742188 19zM46.1372768 19.078125C46.468006 19.078125 46.7388393 19.030599 46.9497768 18.9355469 47.1607143 18.8404948 47.3703497 18.6614583 47.578683 18.3984375L47.578683 18.3984375 47.609933 18.3984375 47.7935268 19 48.4497768 19 48.4497768 16.0898438C48.4497768 15.5768229 48.3098028 15.2005208 48.0298549 14.9609375 47.749907 14.7213542 47.3351935 14.6015625 46.7857143 14.6015625 46.5383185 14.6015625 46.2752976 14.6334635 45.9966518 14.6972656 45.718006 14.7610677 45.4614955 14.8541667 45.2271205 14.9765625L45.2271205 14.9765625 45.5239955 15.6328125C45.7114955 15.5442708 45.906808 15.4674479 46.109933 15.4023438 46.313058 15.3372396 46.5252976 15.3046875 46.7466518 15.3046875 47.0174851 15.3046875 47.2173549 15.3730469 47.3462612 15.5097656 47.4751674 15.6464844 47.5396205 15.8528646 47.5396205 16.1289062L47.5396205 16.1289062 47.5396205 16.359375 46.7935268 16.3828125C46.1164435 16.4036458 45.6125372 16.5273438 45.281808 16.7539062 44.9510789 16.9804688 44.7857143 17.3164062 44.7857143 17.7617188 44.7857143 18.1809896 44.9048549 18.5052083 45.1431362 18.734375 45.3814174 18.9635417 45.7127976 19.078125 46.1372768 19.078125zM46.4263393 18.375C46.1971726 18.375 46.0252976 18.3222656 45.9107143 18.2167969 45.796131 18.1113281 45.7388393 17.9622396 45.7388393 17.7695312 45.7388393 17.5039062 45.8371466 17.3066406 46.0337612 17.1777344 46.2303757 17.0488281 46.5448289 16.9765625 46.9771205 16.9609375L46.9771205 16.9609375 47.531808 16.9375 47.531808 17.3125C47.531808 17.6484375 47.4308966 17.9095052 47.2290737 18.0957031 47.0272507 18.281901 46.7596726 18.375 46.4263393 18.375zM50.4972098 19L51.5597098 17.3828125 52.6261161 19 53.6651786 19 52.1378348 16.7929688 53.5909598 14.6796875 52.5518973 14.6796875 51.5597098 16.1914062 50.5753348 14.6796875 49.5284598 14.6796875 50.9776786 16.7929688 49.4581473 19 50.4972098 19z"/>
      </g>
      <line x1="1" x2="54" y1="20" y2="20" stroke="#C7B500" stroke-linecap="square" stroke-width="2"/>
    </g>
    <g transform="translate(133)">
      <path fill="#C7B500" fill-rule="nonzero" d="M14.7568359,15.1367188 C15.3994141,15.1367188 15.9975586,15.0957031 16.5512695,15.0136719 C17.1049805,14.9316406 17.6826172,14.7926432 18.2841797,14.5966797 L18.2841797,14.5966797 L18.2841797,9.57910156 L14.6064453,9.57910156 L14.6064453,10.9804688 L16.6777344,10.9804688 L16.6777344,13.5576172 C16.0761719,13.6897786 15.5110677,13.7558594 14.9824219,13.7558594 C13.9342448,13.7558594 13.1310221,13.4379883 12.5727539,12.8022461 C12.0144857,12.1665039 11.7353516,11.2379557 11.7353516,10.0166016 C11.7353516,8.85449219 12.0452474,7.93847656 12.6650391,7.26855469 C13.2848307,6.59863281 14.1279297,6.26367188 15.1943359,6.26367188 C16.0055339,6.26367188 16.8167318,6.45052083 17.6279297,6.82421875 L17.6279297,6.82421875 L18.2021484,5.46386719 C17.2679036,5.06282552 16.2789714,4.86230469 15.2353516,4.86230469 C13.6129557,4.86230469 12.3391927,5.31689453 11.4140625,6.22607422 C10.4889323,7.13525391 10.0263672,8.39420573 10.0263672,10.0029297 C10.0263672,11.6344401 10.4365234,12.8979492 11.2568359,13.793457 C12.0771484,14.6889648 13.2438151,15.1367188 14.7568359,15.1367188 Z M22.8447266,15.1367188 C23.4235026,15.1367188 23.8974609,15.0535482 24.2666016,14.887207 C24.6357422,14.7208659 25.0026042,14.4075521 25.3671875,13.9472656 L25.3671875,13.9472656 L25.421875,13.9472656 L25.7431641,15 L26.8916016,15 L26.8916016,9.90722656 C26.8916016,9.0094401 26.6466471,8.35091146 26.1567383,7.93164062 C25.6668294,7.51236979 24.9410807,7.30273438 23.9794922,7.30273438 C23.5465495,7.30273438 23.086263,7.3585612 22.5986328,7.47021484 C22.1110026,7.58186849 21.6621094,7.74479167 21.2519531,7.95898438 L21.2519531,7.95898438 L21.7714844,9.10742188 C22.0996094,8.95247396 22.4414062,8.81803385 22.796875,8.70410156 C23.1523438,8.59016927 23.523763,8.53320312 23.9111328,8.53320312 C24.3850911,8.53320312 24.7348633,8.65283203 24.9604492,8.89208984 C25.1860352,9.13134766 25.2988281,9.49251302 25.2988281,9.97558594 L25.2988281,9.97558594 L25.2988281,10.3789062 L23.9931641,10.4199219 C22.8082682,10.4563802 21.9264323,10.6728516 21.3476562,11.0693359 C20.7688802,11.4658203 20.4794922,12.0537109 20.4794922,12.8330078 C20.4794922,13.5667318 20.6879883,14.1341146 21.1049805,14.5351562 C21.5219727,14.9361979 22.101888,15.1367188 22.8447266,15.1367188 Z M23.3505859,13.90625 C22.9495443,13.90625 22.648763,13.8139648 22.4482422,13.6293945 C22.2477214,13.4448242 22.1474609,13.1839193 22.1474609,12.8466797 C22.1474609,12.3818359 22.3194987,12.0366211 22.6635742,11.8110352 C23.0076497,11.5854492 23.5579427,11.4589844 24.3144531,11.4316406 L24.3144531,11.4316406 L25.2851562,11.390625 L25.2851562,12.046875 C25.2851562,12.6347656 25.1085612,13.0916341 24.7553711,13.4174805 C24.402181,13.7433268 23.9339193,13.90625 23.3505859,13.90625 Z M31.5957031,15.1367188 C32.5983073,15.1367188 33.3684896,14.9396159 33.90625,14.5454102 C34.4440104,14.1512044 34.7128906,13.5849609 34.7128906,12.8466797 C34.7128906,12.4820964 34.6445312,12.1687826 34.5078125,11.9067383 C34.3710938,11.644694 34.1614583,11.4134115 33.8789062,11.2128906 C33.5963542,11.0123698 33.1429036,10.7913411 32.5185547,10.5498047 C31.7757161,10.2626953 31.2937826,10.0371094 31.0727539,9.87304688 C30.8517253,9.70898438 30.7412109,9.50846354 30.7412109,9.27148438 C30.7412109,8.78841146 31.1650391,8.546875 32.0126953,8.546875 C32.5686849,8.546875 33.2545573,8.71549479 34.0703125,9.05273438 L34.0703125,9.05273438 L34.5898438,7.84277344 C33.796875,7.4827474 32.9560547,7.30273438 32.0673828,7.30273438 C31.1695964,7.30273438 30.4597982,7.48160807 29.9379883,7.83935547 C29.4161784,8.19710286 29.1552734,8.69954427 29.1552734,9.34667969 C29.1552734,9.8844401 29.309082,10.3219401 29.6166992,10.6591797 C29.9243164,10.9964193 30.5133464,11.3336589 31.3837891,11.6708984 C31.8304036,11.8440755 32.1790365,11.9990234 32.4296875,12.1357422 C32.6803385,12.2724609 32.8603516,12.4046224 32.9697266,12.5322266 C33.0791016,12.6598307 33.1337891,12.8193359 33.1337891,13.0107422 C33.1337891,13.6077474 32.6393229,13.90625 31.6503906,13.90625 C30.8847656,13.90625 30.0576172,13.7011719 29.1689453,13.2910156 L29.1689453,13.2910156 L29.1689453,14.6787109 C29.7796224,14.9840495 30.5885417,15.1367188 31.5957031,15.1367188 Z"/>
      <g fill="#C7B500" fill-rule="nonzero" transform="translate(0 20)">
        <path d="M6.45605469 15.1367188C7.09863281 15.1367188 7.69677734 15.0957031 8.25048828 15.0136719 8.80419922 14.9316406 9.38183594 14.7926432 9.98339844 14.5966797L9.98339844 14.5966797 9.98339844 9.57910156 6.30566406 9.57910156 6.30566406 10.9804688 8.37695312 10.9804688 8.37695312 13.5576172C7.77539062 13.6897786 7.21028646 13.7558594 6.68164062 13.7558594 5.63346354 13.7558594 4.83024089 13.4379883 4.27197266 12.8022461 3.71370443 12.1665039 3.43457031 11.2379557 3.43457031 10.0166016 3.43457031 8.85449219 3.74446615 7.93847656 4.36425781 7.26855469 4.98404948 6.59863281 5.82714844 6.26367188 6.89355469 6.26367188 7.7047526 6.26367188 8.51595052 6.45052083 9.32714844 6.82421875L9.32714844 6.82421875 9.90136719 5.46386719C8.9671224 5.06282552 7.9781901 4.86230469 6.93457031 4.86230469 5.31217448 4.86230469 4.03841146 5.31689453 3.11328125 6.22607422 2.18815104 7.13525391 1.72558594 8.39420573 1.72558594 10.0029297 1.72558594 11.6344401 2.13574219 12.8979492 2.95605469 13.793457 3.77636719 14.6889648 4.94303385 15.1367188 6.45605469 15.1367188zM14.5439453 15.1367188C15.1227214 15.1367188 15.5966797 15.0535482 15.9658203 14.887207 16.3349609 14.7208659 16.7018229 14.4075521 17.0664062 13.9472656L17.0664062 13.9472656 17.1210938 13.9472656 17.4423828 15 18.5908203 15 18.5908203 9.90722656C18.5908203 9.0094401 18.3458659 8.35091146 17.855957 7.93164062 17.3660482 7.51236979 16.6402995 7.30273438 15.6787109 7.30273438 15.2457682 7.30273438 14.7854818 7.3585612 14.2978516 7.47021484 13.8102214 7.58186849 13.3613281 7.74479167 12.9511719 7.95898438L12.9511719 7.95898438 13.4707031 9.10742188C13.7988281 8.95247396 14.140625 8.81803385 14.4960938 8.70410156 14.8515625 8.59016927 15.2229818 8.53320312 15.6103516 8.53320312 16.0843099 8.53320312 16.434082 8.65283203 16.659668 8.89208984 16.8852539 9.13134766 16.9980469 9.49251302 16.9980469 9.97558594L16.9980469 9.97558594 16.9980469 10.3789062 15.6923828 10.4199219C14.507487 10.4563802 13.625651 10.6728516 13.046875 11.0693359 12.468099 11.4658203 12.1787109 12.0537109 12.1787109 12.8330078 12.1787109 13.5667318 12.387207 14.1341146 12.8041992 14.5351562 13.2211914 14.9361979 13.8011068 15.1367188 14.5439453 15.1367188zM15.0498047 13.90625C14.648763 13.90625 14.3479818 13.8139648 14.1474609 13.6293945 13.9469401 13.4448242 13.8466797 13.1839193 13.8466797 12.8466797 13.8466797 12.3818359 14.0187174 12.0366211 14.362793 11.8110352 14.7068685 11.5854492 15.2571615 11.4589844 16.0136719 11.4316406L16.0136719 11.4316406 16.984375 11.390625 16.984375 12.046875C16.984375 12.6347656 16.8077799 13.0916341 16.4545898 13.4174805 16.1013997 13.7433268 15.633138 13.90625 15.0498047 13.90625zM23.2949219 15.1367188C24.297526 15.1367188 25.0677083 14.9396159 25.6054688 14.5454102 26.1432292 14.1512044 26.4121094 13.5849609 26.4121094 12.8466797 26.4121094 12.4820964 26.34375 12.1687826 26.2070312 11.9067383 26.0703125 11.644694 25.8606771 11.4134115 25.578125 11.2128906 25.2955729 11.0123698 24.8421224 10.7913411 24.2177734 10.5498047 23.4749349 10.2626953 22.9930013 10.0371094 22.7719727 9.87304688 22.550944 9.70898438 22.4404297 9.50846354 22.4404297 9.27148438 22.4404297 8.78841146 22.8642578 8.546875 23.7119141 8.546875 24.2679036 8.546875 24.953776 8.71549479 25.7695312 9.05273438L25.7695312 9.05273438 26.2890625 7.84277344C25.4960938 7.4827474 24.6552734 7.30273438 23.7666016 7.30273438 22.8688151 7.30273438 22.1590169 7.48160807 21.637207 7.83935547 21.1153971 8.19710286 20.8544922 8.69954427 20.8544922 9.34667969 20.8544922 9.8844401 21.0083008 10.3219401 21.315918 10.6591797 21.6235352 10.9964193 22.2125651 11.3336589 23.0830078 11.6708984 23.5296224 11.8440755 23.8782552 11.9990234 24.1289062 12.1357422 24.3795573 12.2724609 24.5595703 12.4046224 24.6689453 12.5322266 24.7783203 12.6598307 24.8330078 12.8193359 24.8330078 13.0107422 24.8330078 13.6077474 24.3385417 13.90625 23.3496094 13.90625 22.5839844 13.90625 21.7568359 13.7011719 20.8681641 13.2910156L20.8681641 13.2910156 20.8681641 14.6787109C21.4788411 14.9840495 22.2877604 15.1367188 23.2949219 15.1367188zM29.0742188 19L29.0742188 16.8476562C29.0742188 16.3111979 29.156901 15.9277344 29.3222656 15.6972656 29.4876302 15.4667969 29.7473958 15.3515625 30.1015625 15.3515625 30.3671875 15.3515625 30.5625 15.4329427 30.6875 15.5957031 30.8125 15.7584635 30.875 16.0052083 30.875 16.3359375L30.875 16.3359375 30.875 19 31.796875 19 31.796875 16.7109375C31.796875 16.25 31.8795573 15.9082031 32.0449219 15.6855469 32.2102865 15.4628906 32.4713542 15.3515625 32.828125 15.3515625 33.09375 15.3515625 33.2897135 15.4329427 33.4160156 15.5957031 33.5423177 15.7584635 33.6054688 16.0052083 33.6054688 16.3359375L33.6054688 16.3359375 33.6054688 19 34.5234375 19 34.5234375 16.1835938C34.5234375 15.6497396 34.405599 15.2526042 34.1699219 14.9921875 33.9342448 14.7317708 33.5585938 14.6015625 33.0429688 14.6015625 32.7434896 14.6015625 32.4778646 14.6614583 32.2460938 14.78125 32.0143229 14.9010417 31.8346354 15.0677083 31.7070312 15.28125L31.7070312 15.28125 31.6445312 15.28125C31.4283854 14.828125 30.9882812 14.6015625 30.3242188 14.6015625 30.0507812 14.6015625 29.8001302 14.6575521 29.5722656 14.7695312 29.344401 14.8815104 29.1705729 15.0403646 29.0507812 15.2460938L29.0507812 15.2460938 29.0039062 15.2460938 28.875 14.6796875 28.15625 14.6796875 28.15625 19 29.0742188 19zM37.1372768 19.078125C37.468006 19.078125 37.7388393 19.030599 37.9497768 18.9355469 38.1607143 18.8404948 38.3703497 18.6614583 38.578683 18.3984375L38.578683 18.3984375 38.609933 18.3984375 38.7935268 19 39.4497768 19 39.4497768 16.0898438C39.4497768 15.5768229 39.3098028 15.2005208 39.0298549 14.9609375 38.749907 14.7213542 38.3351935 14.6015625 37.7857143 14.6015625 37.5383185 14.6015625 37.2752976 14.6334635 36.9966518 14.6972656 36.718006 14.7610677 36.4614955 14.8541667 36.2271205 14.9765625L36.2271205 14.9765625 36.5239955 15.6328125C36.7114955 15.5442708 36.906808 15.4674479 37.109933 15.4023438 37.313058 15.3372396 37.5252976 15.3046875 37.7466518 15.3046875 38.0174851 15.3046875 38.2173549 15.3730469 38.3462612 15.5097656 38.4751674 15.6464844 38.5396205 15.8528646 38.5396205 16.1289062L38.5396205 16.1289062 38.5396205 16.359375 37.7935268 16.3828125C37.1164435 16.4036458 36.6125372 16.5273438 36.281808 16.7539062 35.9510789 16.9804688 35.7857143 17.3164062 35.7857143 17.7617188 35.7857143 18.1809896 35.9048549 18.5052083 36.1431362 18.734375 36.3814174 18.9635417 36.7127976 19.078125 37.1372768 19.078125zM37.4263393 18.375C37.1971726 18.375 37.0252976 18.3222656 36.9107143 18.2167969 36.796131 18.1113281 36.7388393 17.9622396 36.7388393 17.7695312 36.7388393 17.5039062 36.8371466 17.3066406 37.0337612 17.1777344 37.2303757 17.0488281 37.5448289 16.9765625 37.9771205 16.9609375L37.9771205 16.9609375 38.531808 16.9375 38.531808 17.3125C38.531808 17.6484375 38.4308966 17.9095052 38.2290737 18.0957031 38.0272507 18.281901 37.7596726 18.375 37.4263393 18.375zM41.4972098 19L42.5597098 17.3828125 43.6261161 19 44.6651786 19 43.1378348 16.7929688 44.5909598 14.6796875 43.5518973 14.6796875 42.5597098 16.1914062 41.5753348 14.6796875 40.5284598 14.6796875 41.9776786 16.7929688 40.4581473 19 41.4972098 19z"/>
      </g>
      <line x2="45" y1="20" y2="20" stroke="#C7B500" stroke-linecap="square" stroke-width="2"/>
    </g>
    <polygon fill="#C7B500" fill-rule="nonzero" points="118.733 25 118.733 21.726 122 21.726 122 20.29 118.733 20.29 118.733 17 117.259 17 117.259 20.29 114 20.29 114 21.726 117.259 21.726 117.259 25"/>
    <polygon fill="#C7B500" fill-rule="nonzero" points="193.733 25 193.733 21.726 197 21.726 197 20.29 193.733 20.29 193.733 17 192.259 17 192.259 20.29 189 20.29 189 21.726 192.259 21.726 192.259 25"/>
    <g transform="translate(206)">
      <path fill="#C7B500" fill-rule="nonzero" d="M14.8701172,15 L16.5244141,9.06640625 C16.5927734,8.83854167 16.6782227,8.4921875 16.7807617,8.02734375 C16.8833008,7.5625 16.9573568,7.18424479 17.0029297,6.89257812 C17.0257161,7.08398438 17.0917969,7.42464193 17.2011719,7.91455078 C17.3105469,8.40445964 17.4016927,8.77929688 17.4746094,9.0390625 L17.4746094,9.0390625 L19.1699219,15 L20.9472656,15 L23.5517578,5.00585938 L21.8974609,5.00585938 L20.4755859,10.8164062 C20.2158203,11.8235677 20.0517578,12.6529948 19.9833984,13.3046875 C19.8056641,12.2246094 19.6370443,11.4134115 19.4775391,10.8710938 L19.4775391,10.8710938 L17.8095703,5.00585938 L16.1894531,5.00585938 L14.5625,10.84375 C14.4804688,11.139974 14.3893229,11.5273438 14.2890625,12.0058594 C14.1888021,12.484375 14.1136068,12.9173177 14.0634766,13.3046875 C13.9677734,12.5891927 13.8082682,11.7643229 13.5849609,10.8300781 L13.5849609,10.8300781 L12.15625,5.00585938 L10.4882812,5.00585938 L11.8007812,9.99609375 L13.0927734,15 L14.8701172,15 Z M26.8476562,15.1367188 C27.4264323,15.1367188 27.9003906,15.0535482 28.2695312,14.887207 C28.6386719,14.7208659 29.0055339,14.4075521 29.3701172,13.9472656 L29.3701172,13.9472656 L29.4248047,13.9472656 L29.7460938,15 L30.8945312,15 L30.8945312,9.90722656 C30.8945312,9.0094401 30.6495768,8.35091146 30.159668,7.93164062 C29.6697591,7.51236979 28.9440104,7.30273438 27.9824219,7.30273438 C27.5494792,7.30273438 27.0891927,7.3585612 26.6015625,7.47021484 C26.1139323,7.58186849 25.6650391,7.74479167 25.2548828,7.95898438 L25.2548828,7.95898438 L25.7744141,9.10742188 C26.1025391,8.95247396 26.4443359,8.81803385 26.7998047,8.70410156 C27.1552734,8.59016927 27.5266927,8.53320312 27.9140625,8.53320312 C28.3880208,8.53320312 28.737793,8.65283203 28.9633789,8.89208984 C29.1889648,9.13134766 29.3017578,9.49251302 29.3017578,9.97558594 L29.3017578,9.97558594 L29.3017578,10.3789062 L27.9960938,10.4199219 C26.8111979,10.4563802 25.929362,10.6728516 25.3505859,11.0693359 C24.7718099,11.4658203 24.4824219,12.0537109 24.4824219,12.8330078 C24.4824219,13.5667318 24.690918,14.1341146 25.1079102,14.5351562 C25.5249023,14.9361979 26.1048177,15.1367188 26.8476562,15.1367188 Z M27.3535156,13.90625 C26.952474,13.90625 26.6516927,13.8139648 26.4511719,13.6293945 C26.250651,13.4448242 26.1503906,13.1839193 26.1503906,12.8466797 C26.1503906,12.3818359 26.3224284,12.0366211 26.6665039,11.8110352 C27.0105794,11.5854492 27.5608724,11.4589844 28.3173828,11.4316406 L28.3173828,11.4316406 L29.2880859,11.390625 L29.2880859,12.046875 C29.2880859,12.6347656 29.1114909,13.0916341 28.7583008,13.4174805 C28.4051107,13.7433268 27.936849,13.90625 27.3535156,13.90625 Z M36.0703125,15.1367188 C36.3710938,15.1367188 36.6616211,15.1105143 36.9418945,15.0581055 C37.222168,15.0056966 37.4511719,14.9407552 37.6289062,14.8632812 L37.6289062,14.8632812 L37.6289062,13.6533203 C37.2369792,13.7763672 36.8450521,13.8378906 36.453125,13.8378906 C36.1386719,13.8378906 35.8846029,13.7456055 35.690918,13.5610352 C35.4972331,13.3764648 35.4003906,13.0904948 35.4003906,12.703125 L35.4003906,12.703125 L35.4003906,8.65625 L37.5537109,8.65625 L37.5537109,7.43945312 L35.4003906,7.43945312 L35.4003906,5.7578125 L34.4091797,5.7578125 L33.8623047,7.35742188 L32.7548828,7.9453125 L32.7548828,8.65625 L33.7871094,8.65625 L33.7871094,12.7304688 C33.7871094,14.3346354 34.5481771,15.1367188 36.0703125,15.1367188 Z M42.9414062,15.1367188 C43.4563802,15.1367188 43.914388,15.0979818 44.3154297,15.0205078 C44.7164714,14.9430339 45.1129557,14.8108724 45.5048828,14.6240234 L45.5048828,14.6240234 L45.5048828,13.3183594 C45.0628255,13.5143229 44.6492513,13.6544596 44.2641602,13.7387695 C43.879069,13.8230794 43.4632161,13.8652344 43.0166016,13.8652344 C42.3375651,13.8652344 41.8111979,13.6681315 41.4375,13.2739258 C41.0638021,12.8797201 40.8655599,12.3157552 40.8427734,11.5820312 L40.8427734,11.5820312 L45.8808594,11.5820312 L45.8808594,10.7138672 C45.8808594,9.65201823 45.5914714,8.81803385 45.0126953,8.21191406 C44.4339193,7.60579427 43.6455078,7.30273438 42.6474609,7.30273438 C41.5719401,7.30273438 40.7265625,7.65592448 40.1113281,8.36230469 C39.4960938,9.0686849 39.1884766,10.039388 39.1884766,11.2744141 C39.1884766,12.4775391 39.5200195,13.4220378 40.1831055,14.1079102 C40.8461914,14.7937826 41.765625,15.1367188 42.9414062,15.1367188 Z M44.3017578,10.4199219 L40.8701172,10.4199219 C40.929362,9.80013021 41.112793,9.32845052 41.4204102,9.00488281 C41.7280273,8.6813151 42.1370443,8.51953125 42.6474609,8.51953125 C43.1578776,8.51953125 43.5589193,8.68017578 43.8505859,9.00146484 C44.1422526,9.32275391 44.2926432,9.79557292 44.3017578,10.4199219 L44.3017578,10.4199219 Z M49.8125,15 L49.8125,11.0488281 C49.8125,10.3789062 50.0118815,9.8343099 50.4106445,9.41503906 C50.8094076,8.99576823 51.3300781,8.78613281 51.9726562,8.78613281 C52.21875,8.78613281 52.4557292,8.81347656 52.6835938,8.86816406 L52.6835938,8.86816406 L52.8408203,7.37109375 C52.6311849,7.32552083 52.3645833,7.30273438 52.0410156,7.30273438 C51.5761719,7.30273438 51.1420898,7.43489583 50.7387695,7.69921875 C50.3354492,7.96354167 50.0084635,8.32128906 49.7578125,8.77246094 L49.7578125,8.77246094 L49.6757812,8.77246094 L49.4638672,7.43945312 L48.2060547,7.43945312 L48.2060547,15 L49.8125,15 Z"/>
      <g fill="#C7B500" fill-rule="nonzero" transform="translate(0 20)">
        <path d="M5.77636719 15L7.43066406 9.06640625C7.49902344 8.83854167 7.58447266 8.4921875 7.68701172 8.02734375 7.78955078 7.5625 7.86360677 7.18424479 7.90917969 6.89257812 7.93196615 7.08398438 7.99804688 7.42464193 8.10742188 7.91455078 8.21679688 8.40445964 8.30794271 8.77929688 8.38085938 9.0390625L8.38085938 9.0390625 10.0761719 15 11.8535156 15 14.4580078 5.00585938 12.8037109 5.00585938 11.3818359 10.8164062C11.1220703 11.8235677 10.9580078 12.6529948 10.8896484 13.3046875 10.7119141 12.2246094 10.5432943 11.4134115 10.3837891 10.8710938L10.3837891 10.8710938 8.71582031 5.00585938 7.09570312 5.00585938 5.46875 10.84375C5.38671875 11.139974 5.29557292 11.5273438 5.1953125 12.0058594 5.09505208 12.484375 5.01985677 12.9173177 4.96972656 13.3046875 4.87402344 12.5891927 4.71451823 11.7643229 4.49121094 10.8300781L4.49121094 10.8300781 3.0625 5.00585938 1.39453125 5.00585938 2.70703125 9.99609375 3.99902344 15 5.77636719 15zM17.7539062 15.1367188C18.3326823 15.1367188 18.8066406 15.0535482 19.1757812 14.887207 19.5449219 14.7208659 19.9117839 14.4075521 20.2763672 13.9472656L20.2763672 13.9472656 20.3310547 13.9472656 20.6523438 15 21.8007812 15 21.8007812 9.90722656C21.8007812 9.0094401 21.5558268 8.35091146 21.065918 7.93164062 20.5760091 7.51236979 19.8502604 7.30273438 18.8886719 7.30273438 18.4557292 7.30273438 17.9954427 7.3585612 17.5078125 7.47021484 17.0201823 7.58186849 16.5712891 7.74479167 16.1611328 7.95898438L16.1611328 7.95898438 16.6806641 9.10742188C17.0087891 8.95247396 17.3505859 8.81803385 17.7060547 8.70410156 18.0615234 8.59016927 18.4329427 8.53320312 18.8203125 8.53320312 19.2942708 8.53320312 19.644043 8.65283203 19.8696289 8.89208984 20.0952148 9.13134766 20.2080078 9.49251302 20.2080078 9.97558594L20.2080078 9.97558594 20.2080078 10.3789062 18.9023438 10.4199219C17.7174479 10.4563802 16.835612 10.6728516 16.2568359 11.0693359 15.6780599 11.4658203 15.3886719 12.0537109 15.3886719 12.8330078 15.3886719 13.5667318 15.597168 14.1341146 16.0141602 14.5351562 16.4311523 14.9361979 17.0110677 15.1367188 17.7539062 15.1367188zM18.2597656 13.90625C17.858724 13.90625 17.5579427 13.8139648 17.3574219 13.6293945 17.156901 13.4448242 17.0566406 13.1839193 17.0566406 12.8466797 17.0566406 12.3818359 17.2286784 12.0366211 17.5727539 11.8110352 17.9168294 11.5854492 18.4671224 11.4589844 19.2236328 11.4316406L19.2236328 11.4316406 20.1943359 11.390625 20.1943359 12.046875C20.1943359 12.6347656 20.0177409 13.0916341 19.6645508 13.4174805 19.3113607 13.7433268 18.843099 13.90625 18.2597656 13.90625zM26.9765625 15.1367188C27.2773438 15.1367188 27.5678711 15.1105143 27.8481445 15.0581055 28.128418 15.0056966 28.3574219 14.9407552 28.5351562 14.8632812L28.5351562 14.8632812 28.5351562 13.6533203C28.1432292 13.7763672 27.7513021 13.8378906 27.359375 13.8378906 27.0449219 13.8378906 26.7908529 13.7456055 26.597168 13.5610352 26.4034831 13.3764648 26.3066406 13.0904948 26.3066406 12.703125L26.3066406 12.703125 26.3066406 8.65625 28.4599609 8.65625 28.4599609 7.43945312 26.3066406 7.43945312 26.3066406 5.7578125 25.3154297 5.7578125 24.7685547 7.35742188 23.6611328 7.9453125 23.6611328 8.65625 24.6933594 8.65625 24.6933594 12.7304688C24.6933594 14.3346354 25.4544271 15.1367188 26.9765625 15.1367188zM33.8476562 15.1367188C34.3626302 15.1367188 34.820638 15.0979818 35.2216797 15.0205078 35.6227214 14.9430339 36.0192057 14.8108724 36.4111328 14.6240234L36.4111328 14.6240234 36.4111328 13.3183594C35.9690755 13.5143229 35.5555013 13.6544596 35.1704102 13.7387695 34.785319 13.8230794 34.3694661 13.8652344 33.9228516 13.8652344 33.2438151 13.8652344 32.7174479 13.6681315 32.34375 13.2739258 31.9700521 12.8797201 31.7718099 12.3157552 31.7490234 11.5820312L31.7490234 11.5820312 36.7871094 11.5820312 36.7871094 10.7138672C36.7871094 9.65201823 36.4977214 8.81803385 35.9189453 8.21191406 35.3401693 7.60579427 34.5517578 7.30273438 33.5537109 7.30273438 32.4781901 7.30273438 31.6328125 7.65592448 31.0175781 8.36230469 30.4023438 9.0686849 30.0947266 10.039388 30.0947266 11.2744141 30.0947266 12.4775391 30.4262695 13.4220378 31.0893555 14.1079102 31.7524414 14.7937826 32.671875 15.1367188 33.8476562 15.1367188zM35.2080078 10.4199219L31.7763672 10.4199219C31.835612 9.80013021 32.019043 9.32845052 32.3266602 9.00488281 32.6342773 8.6813151 33.0432943 8.51953125 33.5537109 8.51953125 34.0641276 8.51953125 34.4651693 8.68017578 34.7568359 9.00146484 35.0485026 9.32275391 35.1988932 9.79557292 35.2080078 10.4199219L35.2080078 10.4199219zM40.71875 15L40.71875 11.0488281C40.71875 10.3789062 40.9181315 9.8343099 41.3168945 9.41503906 41.7156576 8.99576823 42.2363281 8.78613281 42.8789062 8.78613281 43.125 8.78613281 43.3619792 8.81347656 43.5898438 8.86816406L43.5898438 8.86816406 43.7470703 7.37109375C43.5374349 7.32552083 43.2708333 7.30273438 42.9472656 7.30273438 42.4824219 7.30273438 42.0483398 7.43489583 41.6450195 7.69921875 41.2416992 7.96354167 40.9147135 8.32128906 40.6640625 8.77246094L40.6640625 8.77246094 40.5820312 8.77246094 40.3701172 7.43945312 39.1123047 7.43945312 39.1123047 15 40.71875 15zM46.0742188 19L46.0742188 16.8476562C46.0742188 16.3111979 46.156901 15.9277344 46.3222656 15.6972656 46.4876302 15.4667969 46.7473958 15.3515625 47.1015625 15.3515625 47.3671875 15.3515625 47.5625 15.4329427 47.6875 15.5957031 47.8125 15.7584635 47.875 16.0052083 47.875 16.3359375L47.875 16.3359375 47.875 19 48.796875 19 48.796875 16.7109375C48.796875 16.25 48.8795573 15.9082031 49.0449219 15.6855469 49.2102865 15.4628906 49.4713542 15.3515625 49.828125 15.3515625 50.09375 15.3515625 50.2897135 15.4329427 50.4160156 15.5957031 50.5423177 15.7584635 50.6054688 16.0052083 50.6054688 16.3359375L50.6054688 16.3359375 50.6054688 19 51.5234375 19 51.5234375 16.1835938C51.5234375 15.6497396 51.405599 15.2526042 51.1699219 14.9921875 50.9342448 14.7317708 50.5585938 14.6015625 50.0429688 14.6015625 49.7434896 14.6015625 49.4778646 14.6614583 49.2460938 14.78125 49.0143229 14.9010417 48.8346354 15.0677083 48.7070312 15.28125L48.7070312 15.28125 48.6445312 15.28125C48.4283854 14.828125 47.9882812 14.6015625 47.3242188 14.6015625 47.0507812 14.6015625 46.8001302 14.6575521 46.5722656 14.7695312 46.344401 14.8815104 46.1705729 15.0403646 46.0507812 15.2460938L46.0507812 15.2460938 46.0039062 15.2460938 45.875 14.6796875 45.15625 14.6796875 45.15625 19 46.0742188 19zM54.1372768 19.078125C54.468006 19.078125 54.7388393 19.030599 54.9497768 18.9355469 55.1607143 18.8404948 55.3703497 18.6614583 55.578683 18.3984375L55.578683 18.3984375 55.609933 18.3984375 55.7935268 19 56.4497768 19 56.4497768 16.0898438C56.4497768 15.5768229 56.3098028 15.2005208 56.0298549 14.9609375 55.749907 14.7213542 55.3351935 14.6015625 54.7857143 14.6015625 54.5383185 14.6015625 54.2752976 14.6334635 53.9966518 14.6972656 53.718006 14.7610677 53.4614955 14.8541667 53.2271205 14.9765625L53.2271205 14.9765625 53.5239955 15.6328125C53.7114955 15.5442708 53.906808 15.4674479 54.109933 15.4023438 54.313058 15.3372396 54.5252976 15.3046875 54.7466518 15.3046875 55.0174851 15.3046875 55.2173549 15.3730469 55.3462612 15.5097656 55.4751674 15.6464844 55.5396205 15.8528646 55.5396205 16.1289062L55.5396205 16.1289062 55.5396205 16.359375 54.7935268 16.3828125C54.1164435 16.4036458 53.6125372 16.5273438 53.281808 16.7539062 52.9510789 16.9804688 52.7857143 17.3164062 52.7857143 17.7617188 52.7857143 18.1809896 52.9048549 18.5052083 53.1431362 18.734375 53.3814174 18.9635417 53.7127976 19.078125 54.1372768 19.078125zM54.4263393 18.375C54.1971726 18.375 54.0252976 18.3222656 53.9107143 18.2167969 53.796131 18.1113281 53.7388393 17.9622396 53.7388393 17.7695312 53.7388393 17.5039062 53.8371466 17.3066406 54.0337612 17.1777344 54.2303757 17.0488281 54.5448289 16.9765625 54.9771205 16.9609375L54.9771205 16.9609375 55.531808 16.9375 55.531808 17.3125C55.531808 17.6484375 55.4308966 17.9095052 55.2290737 18.0957031 55.0272507 18.281901 54.7596726 18.375 54.4263393 18.375zM58.4972098 19L59.5597098 17.3828125 60.6261161 19 61.6651786 19 60.1378348 16.7929688 61.5909598 14.6796875 60.5518973 14.6796875 59.5597098 16.1914062 58.5753348 14.6796875 57.5284598 14.6796875 58.9776786 16.7929688 57.4581473 19 58.4972098 19z"/>
      </g>
      <line x1="2" x2="62" y1="20" y2="20" stroke="#C7B500" stroke-linecap="square" stroke-width="2"/>
    </g>
    <g transform="translate(296)">
      <path fill="#C7B500" fill-rule="nonzero" d="M17.4672852,15 L17.4672852,13.6123047 L13.4477539,13.6123047 L13.4477539,10.4746094 L17.2143555,10.4746094 L17.2143555,9.10742188 L13.4477539,9.10742188 L13.4477539,6.38671875 L17.4672852,6.38671875 L17.4672852,5.00585938 L11.8139648,5.00585938 L11.8139648,15 L17.4672852,15 Z M22.6157227,15.1367188 C23.1443685,15.1367188 23.6149089,15.0364583 24.0273438,14.8359375 C24.4397786,14.6354167 24.7576497,14.3597005 24.980957,14.0087891 L24.980957,14.0087891 L25.0629883,14.0087891 L25.2885742,15 L26.5532227,15 L26.5532227,7.43945312 L24.9399414,7.43945312 L24.9399414,11.2060547 C24.9399414,12.1539714 24.7815755,12.8295898 24.4648438,13.2329102 C24.148112,13.6362305 23.6525065,13.8378906 22.9780273,13.8378906 C22.472168,13.8378906 22.1007487,13.6931966 21.8637695,13.4038086 C21.6267904,13.1144206 21.5083008,12.6803385 21.5083008,12.1015625 L21.5083008,12.1015625 L21.5083008,7.43945312 L19.8881836,7.43945312 L19.8881836,12.3818359 C19.8881836,13.3069661 20.1137695,13.9973958 20.5649414,14.453125 C21.0161133,14.9088542 21.699707,15.1367188 22.6157227,15.1367188 Z M31.7768555,15.1367188 C32.0776367,15.1367188 32.3681641,15.1105143 32.6484375,15.0581055 C32.9287109,15.0056966 33.1577148,14.9407552 33.3354492,14.8632812 L33.3354492,14.8632812 L33.3354492,13.6533203 C32.9435221,13.7763672 32.5515951,13.8378906 32.159668,13.8378906 C31.8452148,13.8378906 31.5911458,13.7456055 31.3974609,13.5610352 C31.203776,13.3764648 31.1069336,13.0904948 31.1069336,12.703125 L31.1069336,12.703125 L31.1069336,8.65625 L33.2602539,8.65625 L33.2602539,7.43945312 L31.1069336,7.43945312 L31.1069336,5.7578125 L30.1157227,5.7578125 L29.5688477,7.35742188 L28.4614258,7.9453125 L28.4614258,8.65625 L29.4936523,8.65625 L29.4936523,12.7304688 C29.4936523,14.3346354 30.2547201,15.1367188 31.7768555,15.1367188 Z M36.9526367,15 L36.9526367,11.0488281 C36.9526367,10.3789062 37.1520182,9.8343099 37.5507812,9.41503906 C37.9495443,8.99576823 38.4702148,8.78613281 39.112793,8.78613281 C39.3588867,8.78613281 39.5958659,8.81347656 39.8237305,8.86816406 L39.8237305,8.86816406 L39.980957,7.37109375 C39.7713216,7.32552083 39.5047201,7.30273438 39.1811523,7.30273438 C38.7163086,7.30273438 38.2822266,7.43489583 37.8789062,7.69921875 C37.4755859,7.96354167 37.1486003,8.32128906 36.8979492,8.77246094 L36.8979492,8.77246094 L36.815918,8.77246094 L36.6040039,7.43945312 L35.3461914,7.43945312 L35.3461914,15 L36.9526367,15 Z M44.7124023,15.1367188 C45.8426107,15.1367188 46.7244466,14.7903646 47.3579102,14.0976562 C47.9913737,13.4049479 48.3081055,12.4410807 48.3081055,11.2060547 C48.3081055,10.0120443 47.9890951,9.06298828 47.3510742,8.35888672 C46.7130534,7.65478516 45.847168,7.30273438 44.753418,7.30273438 C43.6095378,7.30273438 42.7231445,7.6468099 42.0942383,8.33496094 C41.465332,9.02311198 41.1508789,9.98014323 41.1508789,11.2060547 C41.1508789,11.9944661 41.2967122,12.6871745 41.5883789,13.2841797 C41.8800456,13.8811849 42.2970378,14.3391927 42.8393555,14.6582031 C43.3816732,14.9772135 44.0060221,15.1367188 44.7124023,15.1367188 Z M44.7397461,13.8242188 C43.4500326,13.8242188 42.8051758,12.9514974 42.8051758,11.2060547 C42.8051758,10.3720703 42.9567057,9.73177083 43.2597656,9.28515625 C43.5628255,8.83854167 44.0515951,8.61523438 44.7260742,8.61523438 C46.0112305,8.61523438 46.6538086,9.47884115 46.6538086,11.2060547 C46.6538086,12.9514974 46.0157878,13.8242188 44.7397461,13.8242188 Z"/>
      <g fill="#C7B500" fill-rule="nonzero" transform="translate(0 20)">
        <path d="M8.46191406 15L8.46191406 13.6123047 4.44238281 13.6123047 4.44238281 10.4746094 8.20898438 10.4746094 8.20898438 9.10742188 4.44238281 9.10742188 4.44238281 6.38671875 8.46191406 6.38671875 8.46191406 5.00585938 2.80859375 5.00585938 2.80859375 15 8.46191406 15zM13.6103516 15.1367188C14.1389974 15.1367188 14.6095378 15.0364583 15.0219727 14.8359375 15.4344076 14.6354167 15.7522786 14.3597005 15.9755859 14.0087891L15.9755859 14.0087891 16.0576172 14.0087891 16.2832031 15 17.5478516 15 17.5478516 7.43945312 15.9345703 7.43945312 15.9345703 11.2060547C15.9345703 12.1539714 15.7762044 12.8295898 15.4594727 13.2329102 15.1427409 13.6362305 14.6471354 13.8378906 13.9726562 13.8378906 13.4667969 13.8378906 13.0953776 13.6931966 12.8583984 13.4038086 12.6214193 13.1144206 12.5029297 12.6803385 12.5029297 12.1015625L12.5029297 12.1015625 12.5029297 7.43945312 10.8828125 7.43945312 10.8828125 12.3818359C10.8828125 13.3069661 11.1083984 13.9973958 11.5595703 14.453125 12.0107422 14.9088542 12.6943359 15.1367188 13.6103516 15.1367188zM22.7714844 15.1367188C23.0722656 15.1367188 23.362793 15.1105143 23.6430664 15.0581055 23.9233398 15.0056966 24.1523438 14.9407552 24.3300781 14.8632812L24.3300781 14.8632812 24.3300781 13.6533203C23.938151 13.7763672 23.546224 13.8378906 23.1542969 13.8378906 22.8398438 13.8378906 22.5857747 13.7456055 22.3920898 13.5610352 22.1984049 13.3764648 22.1015625 13.0904948 22.1015625 12.703125L22.1015625 12.703125 22.1015625 8.65625 24.2548828 8.65625 24.2548828 7.43945312 22.1015625 7.43945312 22.1015625 5.7578125 21.1103516 5.7578125 20.5634766 7.35742188 19.4560547 7.9453125 19.4560547 8.65625 20.4882812 8.65625 20.4882812 12.7304688C20.4882812 14.3346354 21.249349 15.1367188 22.7714844 15.1367188zM27.9472656 15L27.9472656 11.0488281C27.9472656 10.3789062 28.1466471 9.8343099 28.5454102 9.41503906 28.9441732 8.99576823 29.4648438 8.78613281 30.1074219 8.78613281 30.3535156 8.78613281 30.5904948 8.81347656 30.8183594 8.86816406L30.8183594 8.86816406 30.9755859 7.37109375C30.7659505 7.32552083 30.499349 7.30273438 30.1757812 7.30273438 29.7109375 7.30273438 29.2768555 7.43489583 28.8735352 7.69921875 28.4702148 7.96354167 28.1432292 8.32128906 27.8925781 8.77246094L27.8925781 8.77246094 27.8105469 8.77246094 27.5986328 7.43945312 26.3408203 7.43945312 26.3408203 15 27.9472656 15zM35.7070312 15.1367188C36.8372396 15.1367188 37.7190755 14.7903646 38.3525391 14.0976562 38.9860026 13.4049479 39.3027344 12.4410807 39.3027344 11.2060547 39.3027344 10.0120443 38.983724 9.06298828 38.3457031 8.35888672 37.7076823 7.65478516 36.8417969 7.30273438 35.7480469 7.30273438 34.6041667 7.30273438 33.7177734 7.6468099 33.0888672 8.33496094 32.4599609 9.02311198 32.1455078 9.98014323 32.1455078 11.2060547 32.1455078 11.9944661 32.2913411 12.6871745 32.5830078 13.2841797 32.8746745 13.8811849 33.2916667 14.3391927 33.8339844 14.6582031 34.3763021 14.9772135 35.000651 15.1367188 35.7070312 15.1367188zM35.734375 13.8242188C34.4446615 13.8242188 33.7998047 12.9514974 33.7998047 11.2060547 33.7998047 10.3720703 33.9513346 9.73177083 34.2543945 9.28515625 34.5574544 8.83854167 35.046224 8.61523438 35.7207031 8.61523438 37.0058594 8.61523438 37.6484375 9.47884115 37.6484375 11.2060547 37.6484375 12.9514974 37.0104167 13.8242188 35.734375 13.8242188zM42.0742188 19L42.0742188 16.8476562C42.0742188 16.3111979 42.156901 15.9277344 42.3222656 15.6972656 42.4876302 15.4667969 42.7473958 15.3515625 43.1015625 15.3515625 43.3671875 15.3515625 43.5625 15.4329427 43.6875 15.5957031 43.8125 15.7584635 43.875 16.0052083 43.875 16.3359375L43.875 16.3359375 43.875 19 44.796875 19 44.796875 16.7109375C44.796875 16.25 44.8795573 15.9082031 45.0449219 15.6855469 45.2102865 15.4628906 45.4713542 15.3515625 45.828125 15.3515625 46.09375 15.3515625 46.2897135 15.4329427 46.4160156 15.5957031 46.5423177 15.7584635 46.6054688 16.0052083 46.6054688 16.3359375L46.6054688 16.3359375 46.6054688 19 47.5234375 19 47.5234375 16.1835938C47.5234375 15.6497396 47.405599 15.2526042 47.1699219 14.9921875 46.9342448 14.7317708 46.5585938 14.6015625 46.0429688 14.6015625 45.7434896 14.6015625 45.4778646 14.6614583 45.2460938 14.78125 45.0143229 14.9010417 44.8346354 15.0677083 44.7070312 15.28125L44.7070312 15.28125 44.6445312 15.28125C44.4283854 14.828125 43.9882812 14.6015625 43.3242188 14.6015625 43.0507812 14.6015625 42.8001302 14.6575521 42.5722656 14.7695312 42.344401 14.8815104 42.1705729 15.0403646 42.0507812 15.2460938L42.0507812 15.2460938 42.0039062 15.2460938 41.875 14.6796875 41.15625 14.6796875 41.15625 19 42.0742188 19zM50.1372768 19.078125C50.468006 19.078125 50.7388393 19.030599 50.9497768 18.9355469 51.1607143 18.8404948 51.3703497 18.6614583 51.578683 18.3984375L51.578683 18.3984375 51.609933 18.3984375 51.7935268 19 52.4497768 19 52.4497768 16.0898438C52.4497768 15.5768229 52.3098028 15.2005208 52.0298549 14.9609375 51.749907 14.7213542 51.3351935 14.6015625 50.7857143 14.6015625 50.5383185 14.6015625 50.2752976 14.6334635 49.9966518 14.6972656 49.718006 14.7610677 49.4614955 14.8541667 49.2271205 14.9765625L49.2271205 14.9765625 49.5239955 15.6328125C49.7114955 15.5442708 49.906808 15.4674479 50.109933 15.4023438 50.313058 15.3372396 50.5252976 15.3046875 50.7466518 15.3046875 51.0174851 15.3046875 51.2173549 15.3730469 51.3462612 15.5097656 51.4751674 15.6464844 51.5396205 15.8528646 51.5396205 16.1289062L51.5396205 16.1289062 51.5396205 16.359375 50.7935268 16.3828125C50.1164435 16.4036458 49.6125372 16.5273438 49.281808 16.7539062 48.9510789 16.9804688 48.7857143 17.3164062 48.7857143 17.7617188 48.7857143 18.1809896 48.9048549 18.5052083 49.1431362 18.734375 49.3814174 18.9635417 49.7127976 19.078125 50.1372768 19.078125zM50.4263393 18.375C50.1971726 18.375 50.0252976 18.3222656 49.9107143 18.2167969 49.796131 18.1113281 49.7388393 17.9622396 49.7388393 17.7695312 49.7388393 17.5039062 49.8371466 17.3066406 50.0337612 17.1777344 50.2303757 17.0488281 50.5448289 16.9765625 50.9771205 16.9609375L50.9771205 16.9609375 51.531808 16.9375 51.531808 17.3125C51.531808 17.6484375 51.4308966 17.9095052 51.2290737 18.0957031 51.0272507 18.281901 50.7596726 18.375 50.4263393 18.375zM54.4972098 19L55.5597098 17.3828125 56.6261161 19 57.6651786 19 56.1378348 16.7929688 57.5909598 14.6796875 56.5518973 14.6796875 55.5597098 16.1914062 54.5753348 14.6796875 53.5284598 14.6796875 54.9776786 16.7929688 53.4581473 19 54.4972098 19z"/>
      </g>
      <line x1="2" x2="58" y1="20" y2="20" stroke="#C7B500" stroke-linecap="square" stroke-width="2"/>
    </g>
    <polygon fill="#C7B500" fill-rule="nonzero" points="283.733 25 283.733 21.726 287 21.726 287 20.29 283.733 20.29 283.733 17 282.259 17 282.259 20.29 279 20.29 279 21.726 282.259 21.726 282.259 25"/>
    <path fill="#C7B500" fill-rule="nonzero" d="M43.9613527 38C40.0450886 32.7219112 38.0869565 26.9277716 38.0869565 20.6175812 38.0869565 17.2730496 38.5958132 14.0950915 39.6135266 11.0837066 40.6312399 8.07232176 42.0933977 5.37775289 44 3L44 3 41.8164251 3C39.9355878 5.27323628 38.4959742 7.91881299 37.4975845 10.9367301 36.4991948 13.9546473 36 17.1946622 36 20.6567749 36 24.0666293 36.4959742 27.254386 37.4879227 30.2200448 38.4798712 33.1857036 39.9227053 35.779022 41.8164251 38L41.8164251 38 43.9613527 38zM362.183575 38C364.064412 35.8051512 365.504026 33.2248973 366.502415 30.2592385 367.500805 27.2935797 368 24.0927585 368 20.6567749 368 17.2207913 367.504026 13.9905748 366.512077 10.9661254 365.520129 7.941676 364.077295 5.28630086 362.183575 3L362.183575 3 360 3C361.906602 5.36468832 363.36876 8.0527249 364.386473 11.0641097 365.404187 14.0754946 365.913043 17.2599851 365.913043 20.6175812 365.913043 26.9277716 363.954911 32.7219112 360.038647 38L360.038647 38 362.183575 38zM379.494949 22C379.979798 22 380.351852 21.8639344 380.611111 21.5918033 380.87037 21.3196721 381 20.9508197 381 20.4852459 381 20.0262295 380.872054 19.6639344 380.616162 19.3983607 380.360269 19.1327869 379.986532 19 379.494949 19 379.010101 19 378.639731 19.1278689 378.383838 19.3836066 378.127946 19.6393443 378 20.0065574 378 20.4852459 378 20.957377 378.127946 21.3278689 378.383838 21.5967213 378.639731 21.8655738 379.010101 22 379.494949 22zM400.007751 26.8403194L400.007751 25.1876248 394.399901 25.1876248 394.399901 25.1077844 396.452342 23.1437126C397.373516 22.2867598 398.032075 21.6067864 398.428018 21.1037924 398.823961 20.6007984 399.117552 20.1124418 399.30879 19.6387226 399.500027 19.1650033 399.595646 18.6646707 399.595646 18.1377246 399.595646 17.1796407 399.264347 16.4171657 398.601748 15.8502994 397.939149 15.2834331 397.058377 15 395.959433 15 395.259125 15 394.599219 15.1144378 393.979716 15.3433134 393.360213 15.572189 392.721856 15.9607452 392.064644 16.508982L392.064644 16.508982 393.090864 17.746507C393.645723 17.3153693 394.134592 17.0172987 394.55747 16.8522954 394.980349 16.6872921 395.418041 16.6047904 395.870547 16.6047904 396.436181 16.6047904 396.87926 16.756487 397.199786 17.0598802 397.520311 17.3632735 397.680574 17.7784431 397.680574 18.3053892 397.680574 18.6886228 397.613237 19.0479042 397.478562 19.3832335 397.343887 19.7185629 397.129755 20.0765136 396.836164 20.4570858 396.542574 20.837658 395.945965 21.4830339 395.046339 22.3932136L395.046339 22.3932136 392 25.4191617 392 26.8403194 400.007751 26.8403194zM405.450693 27C406.905178 27 408.027017 26.6500333 408.81621 25.9500998 409.605403 25.2501663 410 24.2774451 410 23.0319361 410 21.9567532 409.65254 21.1077844 408.957619 20.4850299 408.262698 19.8622754 407.319976 19.5508982 406.129453 19.5508982 405.736203 19.5508982 405.403557 19.572189 405.131514 19.6147705 404.859471 19.657352 404.629178 19.6946108 404.440633 19.7265469L404.440633 19.7265469 404.707289 16.8363273 409.175792 16.8363273 409.175792 15.1676647 403.034631 15.1676647 402.582124 20.8682635 403.430574 21.3632735C403.710697 21.2994012 404.036609 21.2421823 404.408311 21.1916168 404.780013 21.1410512 405.092458 21.1157685 405.345646 21.1157685 407.144899 21.1157685 408.044525 21.8130406 408.044525 23.2075848 408.044525 23.9367931 407.820965 24.4903526 407.373846 24.8682635 406.926726 25.2461743 406.274901 25.4351297 405.418371 25.4351297 404.933542 25.4351297 404.408311 25.3685961 403.842678 25.2355289 403.277045 25.1024617 402.776055 24.9135063 402.33971 24.6686627L402.33971 24.6686627 402.33971 26.3692615C403.093887 26.7897538 404.130882 27 405.450693 27z"/>
  </g>
</svg>
