<svg xmlns="http://www.w3.org/2000/svg" width="15" height="13" viewBox="0 0 15 13"><path fill="#D97E8E" d="M27.0491803,120.540984 C27.9016393,120.540984 28.6065574,120.262295 29.1639344,119.704918 C29.7213115,119.147541 30,118.442623 30,117.590164 C30,116.836066 29.7377049,116.196721 29.2131148,115.672131 C28.6885246,115.147541 28.0491803,114.885246 27.295082,114.885246 L27.295082,114.885246 L25.8196721,115.377049 C25.8196721,113.901639 26.1639344,112.639344 26.852459,111.590164 C27.5409836,110.540984 28.5081967,109.590164 29.7540984,108.737705 L29.7540984,108.737705 L29.2622951,108 C27.5245902,108.983607 26.1885246,110.221311 25.2540984,111.713115 C24.3196721,113.204918 23.852459,115 23.852459,117.098361 C23.852459,118.213115 24.1393443,119.065574 24.7131148,119.655738 C25.2868852,120.245902 26.0655738,120.540984 27.0491803,120.540984 Z M18.1967213,120.540984 C19.0491803,120.540984 19.7540984,120.262295 20.3114754,119.704918 C20.8688525,119.147541 21.147541,118.442623 21.147541,117.590164 C21.147541,116.836066 20.8852459,116.196721 20.3606557,115.672131 C19.8360656,115.147541 19.1967213,114.885246 18.442623,114.885246 L18.442623,114.885246 L16.9672131,115.377049 C16.9672131,113.901639 17.3114754,112.639344 18,111.590164 C18.6885246,110.540984 19.6557377,109.590164 20.9016393,108.737705 L20.9016393,108.737705 L20.4098361,108 C18.6721311,108.983607 17.3360656,110.221311 16.4016393,111.713115 C15.4672131,113.204918 15,115 15,117.098361 C15,118.213115 15.2868852,119.065574 15.8606557,119.655738 C16.4344262,120.245902 17.2131148,120.540984 18.1967213,120.540984 Z" transform="translate(-15 -108)"/></svg>
