<svg xmlns="http://www.w3.org/2000/svg" width="512" height="512" viewBox="0 0 512 512">
  <g fill="none">
    <path fill="#D8D7DA" d="M376.137,124.383 L376.137,215.243 L334.377,215.243 L334.377,124.383 C334.377,99.635 314.241,79.489 289.483,79.489 L24.752,79.489 L24.752,37.729 L289.483,37.729 C337.261,37.729 376.137,76.605 376.137,124.383 Z"/>
    <path fill="#C6C5CA" d="M363.519,125.507 L363.519,215.243 L339.417,215.243 L334.378,214.473 L334.378,124.383 C334.378,99.635 314.242,79.489 289.484,79.489 L24.752,79.489 L24.752,51.378 L289.4,51.378 C330.264,51.378 363.519,84.632 363.519,125.507 Z"/>
    <g fill="#00CCB3" transform="translate(222 404)">
      <path d="M8.65.24C4.337.24.841 3.736.841 8.049L.841 56.983C.841 61.295 4.336 64.792 8.65 64.792 12.963 64.792 16.459 61.296 16.459 56.983L16.459 8.049C16.459 3.736 12.963.24 8.65.24zM8.65 80.407C4.337 80.407.841 83.903.841 88.216L.841 100.19C.841 104.502 4.336 107.999 8.65 107.999 12.963 107.999 16.459 104.503 16.459 100.19L16.459 88.216C16.459 83.904 12.963 80.407 8.65 80.407z"/>
    </g>
    <path fill="#00EED1" d="M351.738,404.24 C347.425,404.24 343.929,407.736 343.929,412.049 L343.929,443.283 C343.929,447.595 347.424,451.092 351.738,451.092 C356.051,451.092 359.547,447.596 359.547,443.283 L359.547,412.049 C359.547,407.736 356.051,404.24 351.738,404.24 Z"/>
    <path fill="#00CCB3" d="M351.738,465.148 C347.425,465.148 343.929,468.644 343.929,472.957 L343.929,504.191 C343.929,508.503 347.424,512 351.738,512 C356.051,512 359.547,508.504 359.547,504.191 L359.547,472.957 C359.547,468.645 356.051,465.148 351.738,465.148 Z"/>
    <path fill="#00EED1" d="M392.102,484.407 C387.789,484.407 384.293,487.903 384.293,492.216 L384.293,504.19 C384.293,508.502 387.788,511.999 392.102,511.999 C396.416,511.999 399.911,508.503 399.911,504.19 L399.911,492.216 C399.911,487.904 396.414,484.407 392.102,484.407 Z"/>
    <path fill="#00CCB3" d="M392.102,404.24 C387.789,404.24 384.293,407.736 384.293,412.049 L384.293,460.983 C384.293,465.295 387.788,468.792 392.102,468.792 C396.416,468.792 399.911,465.296 399.911,460.983 L399.911,412.049 C399.911,407.736 396.414,404.24 392.102,404.24 Z"/>
    <g fill="#00EED1" transform="translate(424 404)">
      <path d="M8.464.24C4.151.24.655 3.736.655 8.049L.655 39.283C.655 43.595 4.15 47.092 8.464 47.092 12.777 47.092 16.273 43.596 16.273 39.283L16.273 8.049C16.273 3.736 12.777.24 8.464.24zM8.464 61.148C4.151 61.148.655 64.644.655 68.957L.655 100.191C.655 104.503 4.15 108 8.464 108 12.777 108 16.273 104.504 16.273 100.191L16.273 68.957C16.273 64.645 12.777 61.148 8.464 61.148zM48.827.24C44.514.24 41.018 3.736 41.018 8.049L41.018 56.983C41.018 61.295 44.513 64.792 48.827 64.792 53.14 64.792 56.636 61.296 56.636 56.983L56.636 8.049C56.635 3.736 53.14.24 48.827.24z"/>
    </g>
    <path fill="#00CCB3" d="M472.827,484.407 C468.514,484.407 465.018,487.903 465.018,492.216 L465.018,504.19 C465.018,508.502 468.513,511.999 472.827,511.999 C477.14,511.999 480.636,508.503 480.636,504.19 L480.636,492.216 C480.635,487.904 477.14,484.407 472.827,484.407 Z"/>
    <g fill="#00EED1" transform="translate(263 404)">
      <path d="M8.013.24C3.7.24.204 3.736.204 8.049L.204 39.283C.204 43.595 3.699 47.092 8.013 47.092 12.327 47.092 15.822 43.596 15.822 39.283L15.822 8.049C15.822 3.736 12.327.24 8.013.24zM8.013 61.148C3.7 61.148.204 64.644.204 68.957L.204 100.191C.204 104.503 3.699 108 8.013 108 12.327 108 15.822 104.504 15.822 100.191L15.822 68.957C15.822 64.645 12.327 61.148 8.013 61.148z"/>
    </g>
    <path fill="#00CCB3" d="M311.376,404.24 C307.063,404.24 303.567,407.736 303.567,412.049 L303.567,460.983 C303.567,465.295 307.062,468.792 311.376,468.792 C315.69,468.792 319.185,465.296 319.185,460.983 L319.185,412.049 C319.185,407.736 315.689,404.24 311.376,404.24 Z"/>
    <path fill="#00EED1" d="M311.376,484.407 C307.063,484.407 303.567,487.903 303.567,492.216 L303.567,504.19 C303.567,508.502 307.062,511.999 311.376,511.999 C315.69,511.999 319.185,508.503 319.185,504.19 L319.185,492.216 C319.185,487.904 315.689,484.407 311.376,484.407 Z"/>
    <path fill="#ACABB1" d="M399.609,243.859 L399.609,241.703 C399.609,218.899 380.951,200.241 358.147,200.241 L356.107,200.241 C333.303,200.241 314.645,218.899 314.645,241.703 L314.645,243.859 L399.609,243.859 L399.609,243.859 Z"/>
    <path fill="#D8D7DA" d="M491.215,352.924 L491.215,359.733 L223.037,359.733 L223.037,352.924 C223.037,281.28 282.246,216.108 369.099,222.354 C370.671,222.458 372.233,222.593 373.784,222.76 C439.522,229.528 491.215,285.479 491.215,352.924 Z"/>
    <path fill="#E0E0E2" d="M491.215,352.924 L491.215,359.733 L256.354,359.733 L256.354,352.924 C256.354,285.479 308.047,229.528 373.784,222.761 C439.522,229.528 491.215,285.479 491.215,352.924 Z"/>
    <path fill="#C6C5CA" d="M511.236,359.618 L511.236,359.795 C511.236,372.684 500.689,383.231 487.8,383.231 L226.452,383.231 C213.563,383.231 203.016,372.684 203.016,359.795 L203.016,359.618 C203.026,357.452 203.328,355.36 203.891,353.371 C206.65,343.501 215.75,336.234 226.453,336.234 L487.8,336.234 C498.503,336.234 507.602,343.501 510.362,353.371 C510.923,355.36 511.225,357.453 511.236,359.618 Z"/>
    <g fill="#ACABB1">
      <path d="M511.236 359.618L511.236 359.795C511.236 372.684 500.689 383.231 487.8 383.231L226.452 383.231C213.563 383.231 203.016 372.684 203.016 359.795L203.016 359.618C203.026 357.452 203.328 355.36 203.891 353.371L510.361 353.371C510.923 355.36 511.225 357.453 511.236 359.618zM36.954 35.23L36.954 76.272C36.954 87.579 31.696 97.709 23.513 104.362 22.003 105.601 20.379 106.705 18.682 107.683 15.996 109.234 13.091 110.442 10.02 111.254 5.335 112.503.764 108.859.764 104.008L.764 7.494C.764 2.642 5.335-1.002 10.02.248 13.091 1.06 15.996 2.268 18.682 3.819 20.379 4.798 22.003 5.901 23.513 7.14 31.696 13.793 36.954 23.923 36.954 35.23z"/>
    </g>
    <path fill="#898890" d="M23.513,7.14 L23.513,104.362 C22.003,105.601 20.379,106.705 18.682,107.683 C15.996,109.234 13.091,110.442 10.02,111.254 C5.335,112.503 0.764,108.859 0.764,104.008 L0.764,7.494 C0.764,2.642 5.335,-1.002 10.02,0.248 C13.091,1.06 15.996,2.268 18.682,3.819 C20.379,4.797 22.003,5.901 23.513,7.14 Z"/>
  </g>
</svg>
