<svg xmlns="http://www.w3.org/2000/svg" width="50" height="34" viewBox="0 0 50 34"><g fill="#A6606D"><path d="M7.11298828 12.5325195L31.25 12.5325195C32.4005859 12.5325195 33.3333008 11.5998047 33.3333008 10.4492188 33.3333008 9.29863281 32.4005859 8.36591797 31.25 8.36591797L7.11298828 8.36591797 11.8898438 3.5890625C12.703418 2.77548828 12.703418 1.45634766 11.8898438.642773438 11.0762695-.170800781 9.75712891-.170800781 8.94355469.642773438L.61015625 8.97607422C.561621094 9.02460938.515722656 9.07568359.472167969 9.12880859.452441406 9.15283203.435253906 9.17822266.416796875 9.20292969.39453125 9.23261719.371582031 9.26162109.350878906 9.29257812.331054687 9.32216797.313867187 9.35292969.295703125 9.38330078.279003906 9.41123047.261425781 9.43857422.245996094 9.46738281.229394531 9.49833984.215332031 9.53027344.200488281 9.56191406.186328125 9.59189453.171386719 9.62138672.15859375 9.65214844.145898437 9.68291016.135546875 9.71435547.124414062 9.74560547.112597656 9.77851562.1 9.8109375.08984375 9.84453125.0803710937 9.87578125.0734375 9.90751953.0655273437 9.93916016.0568359375 9.9734375.047265625 10.0073242.0403320312 10.0422852.0331054687 10.0789062.0288085937 10.1158203.0235351562 10.1526367.0192382812 10.1830078.0133789062 10.2129883.0103515625 10.24375-.003125 10.3804687-.003125 10.5182617.0103515625 10.6549805.0133789062 10.6857422.019140625 10.715625.0235351562 10.7460937.0288085937 10.7829102.0331054687 10.8199219.0404296875 10.8564453.0473632812 10.8914062.0569335937 10.9251953.065625 10.9594727.0735351562 10.9911133.08046875 11.0228516.0899414062 11.0541016.100097656 11.0876953.112695312 11.1202148.124511719 11.1530273.135742187 11.1842773.145996094 11.2157227.158691406 11.2464844.171386719 11.2772461.186425781 11.3066406.200585937 11.3366211.215527344 11.3682617.229589844 11.4001953.246191406 11.43125.261621094 11.4599609.279101562 11.487207.295800781 11.5151367.313964844 11.5456055.331152344 11.5763672.350976562 11.6060547.371582031 11.6369141.39453125 11.6658203.416699219 11.6955078.435253906 11.7203125.452441406 11.7457031.472265625 11.7698242.515527344 11.8225586.561132812 11.8732422.609277344 11.9213867.609667969 11.9217773.609863281 11.922168.610253906 11.9224609L8.94355469 20.2557617C9.75712891 21.0693359 11.0762695 21.0693359 11.8898437 20.2557617 12.703418 19.4421875 12.703418 18.1230469 11.8898437 17.3094727L7.11298828 12.5325195zM49.5277344 24.2697266C49.5476563 24.2455078 49.5648437 24.2200195 49.5834961 24.1951172 49.6055664 24.165625 49.6285156 24.1367187 49.6490234 24.105957 49.6689453 24.0762695 49.6861328 24.0454102 49.7042969 24.0149414 49.7208984 23.9871094 49.7383789 23.9598633 49.7537109 23.93125 49.7703125 23.9001953 49.7844727 23.8681641 49.7994141 23.8364258 49.8135742 23.806543 49.828418 23.7771484 49.8412109 23.7464844 49.8539063 23.7157227 49.8642578 23.6842773 49.8753906 23.6530273 49.887207 23.6201172 49.8998047 23.5876953 49.9099609 23.5541016 49.9194336 23.5228516 49.9263672 23.4910156 49.9342773 23.4594727 49.9429687 23.4251953 49.9525391 23.3913086 49.9594727 23.3564453 49.9666992 23.3198242 49.9709961 23.2829102 49.9763672 23.2460937 49.9806641 23.2157227 49.9865234 23.1858398 49.9895508 23.1549805 50.0030273 23.0182617 50.0030273 22.8804687 49.9895508 22.74375 49.9865234 22.7129883 49.9807617 22.6831055 49.9763672 22.6526367 49.9710938 22.6158203 49.9667969 22.5788086 49.9594727 22.5422852 49.9525391 22.5073242 49.9429687 22.4735352 49.9342773 22.4392578 49.9263672 22.4076172 49.9194336 22.3758789 49.9099609 22.3446289 49.8998047 22.3110352 49.887207 22.2785156 49.8753906 22.2457031 49.8641602 22.2144531 49.8539063 22.1830078 49.8412109 22.1522461 49.8285156 22.121582 49.8135742 22.0921875 49.7994141 22.0623047 49.7844727 22.0305664 49.7704102 21.9985352 49.7537109 21.9674805 49.7383789 21.9388672 49.7208984 21.9116211 49.7042969 21.8837891 49.6861328 21.8533203 49.6688477 21.8224609 49.6490234 21.7927734 49.628418 21.7620117 49.6055664 21.7331055 49.5834961 21.7036133 49.5648438 21.6787109 49.5475586 21.6532227 49.5277344 21.6290039 49.4848633 21.5767578 49.4395508 21.5264648 49.3917969 21.4786133 49.3911133 21.477832 49.3904297 21.4770508 49.3897461 21.4763672L41.0564453 13.1430664C40.2428711 12.3294922 38.9237305 12.3294922 38.1101562 13.1430664 37.296582 13.9566406 37.296582 15.2757812 38.1101562 16.0893555L42.8870117 20.8662109 18.75 20.8662109C17.5994141 20.8662109 16.6666992 21.7989258 16.6666992 22.9495117 16.6666992 24.1000977 17.5994141 25.0328125 18.75 25.0328125L42.8870117 25.0328125 38.1101562 29.809668C37.296582 30.6232422 37.296582 31.9423828 38.1101562 32.755957 38.9237305 33.5695312 40.2428711 33.5695312 41.0564453 32.755957L49.3897461 24.4226562C49.3905273 24.421875 49.3911133 24.4210937 49.3917969 24.4204102 49.4395508 24.3722656 49.4848633 24.3219727 49.5277344 24.2697266z"/></g></svg>
