<svg xmlns="http://www.w3.org/2000/svg" width="488" height="480" viewBox="0 0 488 480">
  <g fill="none">
    <path fill="#F5CBA1" d="M16,400 L16,472 L64,472 L64,352 C37.488,352 16,373.488 16,400 Z"/>
    <polygon fill="#46AFDA" points="288 472 64 472 64 352 136 336 216 336 288 352"/>
    <g fill="#F5CBA1" transform="translate(56 168)">
      <path d="M280 232L280 304 232 304 232 184C258.512 184 280 205.488 280 232zM220 40C228.912 40 236.376 34.128 238.96 26.072 239.136 23.2 239.36 20.32 239.744 17.448 238.48 7.624 230.176 0 220 0L208 0 208 40 220 40zM20 0C8.952 0 0 8.952 0 20 0 31.048 8.952 40 20 40L32 40 32 0 20 0z"/>
    </g>
    <path fill="#4D2817" d="M274.432,26.256 C267.984,14.968 255.976,8 242.968,8 C235.816,8 228.824,10.12 222.864,14.088 L208,24 C192.352,13.568 173.96,8 155.152,8 L144,8 C118.816,8 95.112,19.856 80,40 C64.888,60.144 41.184,72 16,72 L8,72 L21.704,92.552 C32.672,109.016 52.808,116.8 72,112 L72,104 L96,104 L152,104 L272,104 L273.632,101.272 C287.448,78.256 287.752,49.568 274.432,26.256 L274.432,26.256 Z"/>
    <path fill="#F5CBA1" d="M88,168 L88,208 L88,216 C88,264.6 127.4,304 176,304 C224.6,304 264,264.6 264,216 L264,208 L264,168 L264,144 L88,144 L88,168 Z"/>
    <circle cx="440" cy="400" r="40" fill="#C9F364"/>
    <path fill="#FFF" d="M465.56,224.896 C488.712,171.216 472.936,119.48 424.248,98.48 C375.56,77.48 327.104,101.504 303.952,155.184 C280.8,208.864 303.672,277.04 340.4,292.88 C377.128,308.72 442.408,278.584 465.56,224.896 L465.56,224.896 Z"/>
    <polygon fill="#FFF" points="256 448.16 292.728 464 330.752 375.848 301.368 363.176 294.024 360.008"/>
    <path fill="#ADD156" d="M440,424 C420.648,424 404.512,410.256 400.808,392 C400.28,394.584 400,397.256 400,400 C400,422.088 417.912,440 440,440 C462.088,440 480,422.088 480,400 C480,397.256 479.72,394.584 479.192,392 C475.488,410.256 459.352,424 440,424 Z"/>
    <polygon fill="#1A326E" points="72 104 280 104 280 144 72 144"/>
    <path fill="#F5CBA1" d="M176,304 C161.584,304 148.008,300.464 136,294.32 L136,352 C136,352 160,368 176,368 C200,368 216,352 216,352 L216,294.32 C203.992,300.464 190.416,304 176,304 Z"/>
    <path fill="#D9B48E" d="M136,294.32 L136,318.32 C148.008,324.464 161.584,328 176,328 C190.416,328 203.992,324.464 216,318.32 L216,294.32 C203.992,300.464 190.416,304 176,304 C161.584,304 148.008,300.464 136,294.32 Z"/>
    <polygon fill="#D9B48E" points="88 144 264 144 264 160 88 160"/>
    <path fill="#3B1E12" d="M283.08,51.496 C280.52,66.608 266.992,77.424 251.672,77.768 L152,80 L121.296,80 C104.544,80 87.896,82.704 72,88 C54.048,92.488 35.368,85.864 24.04,71.528 C21.376,71.8 18.704,72 16,72 L8,72 L21.704,92.552 C32.672,109.016 52.808,116.8 72,112 L72,104 L96,104 L152,104 L272,104 L273.632,101.272 C282.792,86 285.88,68.256 283.12,51.216 C283.104,51.312 283.088,51.4 283.08,51.496 L283.08,51.496 Z"/>
    <ellipse cx="244" cy="32" fill="#61321D" rx="20" ry="8"/>
    <ellipse cx="260" cy="52" fill="#61321D" rx="12" ry="4"/>
    <path fill="#000" d="M136 206C128.28 206 122 199.72 122 192 122 184.28 128.28 178 136 178 143.72 178 150 184.28 150 192 150 199.72 143.72 206 136 206zM136 190C134.896 190 134 190.896 134 192 134 194.2 138 194.2 138 192 138 190.896 137.104 190 136 190zM216 206C208.28 206 202 199.72 202 192 202 184.28 208.28 178 216 178 223.72 178 230 184.28 230 192 230 199.72 223.72 206 216 206zM216 190C214.896 190 214 190.896 214 192 214 194.2 218 194.2 218 192 218 190.896 217.104 190 216 190zM176 262C159.456 262 146 248.544 146 232L158 232C158 241.928 166.072 250 176 250 185.928 250 194 241.928 194 232L206 232C206 248.544 192.544 262 176 262z"/>
    <path fill="#000" d="M60.712,121.392 C61.808,121.392 62.904,121.256 64,121.192 L64,144 C64,148.416 67.584,152 72,152 L80,152 L80,160 L76,160 C60.56,160 48,172.56 48,188 C48,203.44 60.56,216 76,216 L80,216 C80,251.44 99.352,282.376 128,299.008 L128,329.584 L63.088,344.008 C32.632,344.496 8,369.424 8,400 L8,472 C8,476.416 11.584,480 16,480 L336,480 C340.416,480 344,476.416 344,472 L344,400 C344,391.808 342.096,383.744 338.656,376.368 C338.864,373.12 337.128,369.952 333.992,368.56 C344.416,345.512 361.04,326.064 382.304,312.264 L419.36,288.216 L419.128,287.864 C443.12,273.544 462.504,252.168 472.904,228.072 C498.024,169.84 479.32,113.536 427.416,91.144 C375.52,68.776 321.728,93.808 296.6,152.032 C294.752,156.312 293.256,160.664 291.936,165.048 C287.408,161.88 281.928,160 276,160 L272,160 L272,152 L280,152 C284.416,152 288,148.416 288,144 L288,104 C288,101.288 286.568,99.008 284.504,97.568 C295.584,73.6 294.648,45.512 281.384,22.296 C273.52,8.536 258.808,2.84217094e-14 242.976,2.84217094e-14 C234.216,2.84217094e-14 225.728,2.568 218.44,7.432 L207.88,14.472 C191.92,4.992 173.808,2.84217094e-14 155.16,2.84217094e-14 L144,2.84217094e-14 C116.448,2.84217094e-14 90.136,13.16 73.6,35.2 C60.072,53.232 38.544,64 16,64 L8,64 C5.048,64 2.336,65.624 0.944,68.224 C-0.448,70.824 -0.296,73.984 1.344,76.432 L15.048,96.984 C25.352,112.448 42.664,121.392 60.712,121.392 Z M76,200 C69.384,200 64,194.616 64,188 C64,181.384 69.384,176 76,176 L80,176 L80,200 L76,200 Z M96,216 L96,152 L256,152 L256,216 C256,260.112 220.112,296 176,296 C131.888,296 96,260.112 96,216 Z M272,216 L276,216 C279.952,216 283.696,215.16 287.112,213.672 C287.664,220.176 288.616,226.56 290.032,232.736 L289.736,232.816 L300.584,274.648 C306.592,297.816 306,322.344 299.256,345.208 C295.864,344.512 292.416,344.064 288.912,344.008 L224,329.584 L224,299.008 C252.648,282.376 272,251.44 272,216 L272,216 Z M320.232,380.024 L288.552,453.48 L266.512,443.976 L298.192,370.52 L320.232,380.024 Z M72,358.416 L92.048,353.96 C110.784,381.888 142.32,399.144 176,399.144 C209.68,399.144 241.224,381.888 259.952,353.96 L285.472,359.632 L248.656,444.984 C247.816,446.936 247.784,449.136 248.568,451.104 C249.352,453.08 250.888,454.656 252.832,455.496 L272.528,464 L72,464 L72,358.416 Z M176,312 C187.232,312 197.976,309.96 208,306.4 L208,348.544 C189.744,364.552 162.256,364.552 144,348.544 L144,306.4 C154.024,309.96 164.768,312 176,312 Z M130.344,357.656 C142.928,370.248 159.464,376.536 176,376.536 C192.536,376.536 209.072,370.24 221.656,357.656 C223.16,356.16 224,354.12 224,352 L224,345.968 L243.176,350.232 C227.112,370.768 202.264,383.144 176,383.144 C149.736,383.144 124.888,370.768 108.824,350.232 L128,345.968 L128,352 C128,354.12 128.84,356.16 130.344,357.656 Z M24,400 C24,380.688 37.768,364.528 56,360.808 L56,464 L24,464 L24,400 Z M301.448,464 L328,402.432 L328,464 L301.448,464 Z M319.304,362.2 L311.568,358.864 C319.888,336.216 322.528,311.752 319.32,287.88 C324.856,293.176 330.848,297.472 337.224,300.224 C344.728,303.464 353.344,305.056 362.584,305.056 C363.352,305.056 364.176,304.912 364.952,304.888 C345.152,319.84 329.544,339.464 319.304,362.2 Z M389.144,98.96 C399.584,98.96 410.336,101.2 421.088,105.832 C465.024,124.784 479.944,171.36 458.216,221.728 C448.216,244.928 428.6,265.392 404.408,277.856 C381.96,289.416 359.224,292.288 343.576,285.536 C318.944,274.912 300.56,236.088 302.744,195.872 C303.48,193.36 304,190.752 304,188 C304,187.184 303.824,186.416 303.76,185.616 C305.088,176.376 307.496,167.184 311.304,158.36 C327.712,120.312 356.896,98.96 389.144,98.96 Z M276,176 C281.64,176 286.36,179.928 287.632,185.184 C287.304,187.744 287.128,190.304 286.952,192.856 C285.08,197.056 280.888,200 276,200 L272,200 L272,176 L276,176 Z M272,136 L264,136 L88,136 L80,136 L80,112 L272,112 L272,136 Z M86.4,44.8 C99.928,26.768 121.456,16 144,16 L155.16,16 C172.448,16 189.184,21.064 203.568,30.656 C206.256,32.448 209.752,32.448 212.44,30.656 L227.312,20.744 C231.96,17.64 237.376,16 242.976,16 C253.08,16 262.48,21.456 267.488,30.224 C279.144,50.616 279.024,75.68 267.368,96 L187.68,96 C195.312,87.496 200,76.304 200,64 L184,64 C184,81.648 169.648,96 152,96 L131.68,96 C139.312,87.496 144,76.304 144,64 L128,64 C128,81.648 113.648,96 96,96 L72,96 C67.584,96 64,99.584 64,104 L64,105.248 C50.064,106.448 36.28,100 28.36,88.12 L22.776,79.736 C47.816,77.776 71.224,65.024 86.4,44.8 Z"/>
    <path fill="#000" d="M333.192 228.792L347.888 235.128 354.008 220.928 368.736 227.168 362.568 241.464 377.264 247.8 383.472 233.408 398.2 239.648 391.944 254.144 406.64 260.48 412.936 245.888 427.72 252.144 433.952 237.408 419.272 231.192 425.608 216.496 440.392 222.76 446.624 208.024 431.944 201.808 438.32 187.016 453.008 193.352 459.344 178.656 444.656 172.32 450.992 157.632 436.296 151.296 429.96 165.984 415.272 159.648 421.608 144.952 406.912 138.616 400.576 153.304 385.888 146.968 392.224 132.28 377.528 125.944 371.192 140.632 341.808 127.96 335.472 142.656 364.856 155.328 358.264 170.608 329.272 158.336 323.04 173.072 351.928 185.304 345.608 200 316.616 187.728 310.384 202.464 339.272 214.696 333.192 228.792zM404.544 224.952L389.816 218.712 396.152 204.016 410.88 210.256 404.544 224.952zM423.64 180.688L417.216 195.576 402.488 189.336 408.952 174.352 423.64 180.688zM379.568 161.672L394.256 168.008 387.752 183.096 373.024 176.856 379.568 161.672zM366.688 191.552L381.416 197.792 375.08 212.488 360.352 206.248 366.688 191.552zM440 352C413.528 352 392 373.528 392 400 392 426.472 413.528 448 440 448 466.472 448 488 426.472 488 400 488 373.528 466.472 352 440 352zM440 432C422.352 432 408 417.648 408 400 408 382.352 422.352 368 440 368 457.648 368 472 382.352 472 400 472 417.648 457.648 432 440 432zM440 464C425.176 464 411.272 459.088 399.776 449.784L389.712 462.224C403.88 473.688 421.736 480 440 480L440 464zM360 400L376 400C376 385.176 380.912 371.272 390.216 359.776L377.776 349.712C366.312 363.88 360 381.736 360 400z"/>
  </g>
</svg>
